<?xml version="1.0" encoding="iso-8859-1"?>
<!-- Generator: Adobe Illustrator 19.0.0, SVG Export Plug-In . SVG Version: 6.00 Build 0)  -->
<svg version="1.1" id="Capa_1" xmlns="http://www.w3.org/2000/svg" xmlns:xlink="http://www.w3.org/1999/xlink" x="0px" y="0px"
	 viewBox="0 0 512 512" style="enable-background:new 0 0 512 512;" xml:space="preserve">
<linearGradient id="SVGID_1_" gradientUnits="userSpaceOnUse" x1="255.8505" y1="514.0682" x2="255.8505" y2="2.3192" gradientTransform="matrix(1.0005 0 0 -1.0005 0.024 514.3203)">
	<stop  offset="0" style="stop-color:#2AF598"/>
	<stop  offset="1" style="stop-color:#009EFD"/>
</linearGradient>
<path style="fill:url(#SVGID_1_);" d="M256.205,512l-17.308-28.509c-50.33-82.899-113.448-164.495-164.722-212.947l-15.524-14.67
	l15.65-14.535c53.537-49.727,115.028-129.222,164.488-212.649L255.795,0l17.308,28.509
	c50.33,82.898,113.448,164.495,164.722,212.947l15.524,14.669l-15.65,14.535c-53.537,49.727-115.028,129.222-164.488,212.649
	L256.205,512z M116.611,256.143c44.59,45.39,95.378,110.685,139.194,178.894c43.618-69.368,92.946-132.707,139.583-179.179
	c-44.59-45.39-95.378-110.685-139.194-178.894C212.576,146.332,163.248,209.67,116.611,256.143z"/>
<g>
</g>
<g>
</g>
<g>
</g>
<g>
</g>
<g>
</g>
<g>
</g>
<g>
</g>
<g>
</g>
<g>
</g>
<g>
</g>
<g>
</g>
<g>
</g>
<g>
</g>
<g>
</g>
<g>
</g>
</svg>
