<svg id="Capa_1" enable-background="new 0 0 512 512" height="512" viewBox="0 0 512 512" width="512" xmlns="http://www.w3.org/2000/svg"><g><g><path d="m3.247 91.875c7.182-5.091 23.688-13.428 44.79-2.623l-.353-32.61s-40.582-6.939-47.65 33.21c-.318 1.8 1.722 3.081 3.213 2.023z" fill="#4a80aa"/></g><g><path d="m3.198 81.257c-.354.213-.717.359-1.083.466-.851 2.457-1.558 5.136-2.07 8.092-.315 1.819 1.709 3.118 3.215 2.051 7.189-5.092 23.688-13.411 44.777-2.614l-.14-12.931c-19.762-6.587-35.593-.543-44.699 4.936z" fill="#407093"/></g><g><g><path d="m270.496 467.373h-123.584c-4.264 0-7.719-3.456-7.719-7.719s3.456-7.719 7.719-7.719h123.584c4.264 0 7.719 3.456 7.719 7.719s-3.455 7.719-7.719 7.719z" fill="#dd636e"/></g><g><path d="m181.02 491.3c-2.474 0-4.903-1.187-6.396-3.388-2.392-3.529-1.471-8.328 2.057-10.721l31.899-21.628v-38.608c0-4.264 3.456-7.719 7.719-7.719s7.719 3.456 7.719 7.719v42.701c0 2.56-1.268 4.953-3.387 6.389l-35.286 23.925c-1.327.898-2.835 1.33-4.325 1.33z" fill="#dd636e"/></g></g><g><path d="m179.982 347.312 26.059 69.337c2.914 7.753 12.186 10.911 19.226 6.548 15.722-9.743 25.288-26.924 25.288-45.421v-41.27z" fill="#e7ecf6"/></g><g><path d="m227.303 340.067v37.71c0 16.265-7.401 31.507-19.876 41.574 3.827 5.726 11.686 7.66 17.841 3.846 15.722-9.743 25.288-26.924 25.288-45.421v-41.27z" fill="#d8e2f1"/></g><g><path d="m505.861 360.334-278.558-43.73 152.696-43.8 129.413 77.754c4.988 2.997 2.199 10.679-3.551 9.776z" fill="#d8e2f1"/></g><g><path d="m457.046 352.671 48.815 7.663c5.749.903 8.539-6.779 3.551-9.776l-129.413-77.754-37.824 10.85z" fill="#b9cbea"/></g><g><path d="m508.219 285.504c5.163-1.546 4.994-8.913-.235-10.216-29.145-7.264-86.601-22.399-134.931-40.098-13.129-4.808-31.521-3.859-42.553-8.939-7.958-3.664-24.317-22.713-28.203-25.661-6.79-5.152-12.461-10.418-17.072-15.266-13.782-14.489-30.678-25.65-49.524-32.336l-45.669-16.201c-6.522-2.314-12.11-6.692-15.918-12.47l-41.459-62.921c-7.67-11.64-17.463-21.778-29.037-29.548-4.222-2.835-8.548-5.29-12.383-6.609-27.993-9.63-61.901-4.841-71.531 23.152-4.187 12.171-1.934 25.71 4.251 37.918 4.126 8.145 22.248 5.111 29.13 11.269 4.37 3.91 9.007 8.753 11.598 22.757l9.488 130.848c-.054 42.448 21.951 83.753 61.351 106.501 34.587 19.969 74.854 21.173 109.025 6.781z" fill="#e7ecf6"/></g><g><path d="m507.984 275.288c-29.145-7.264-86.601-22.399-134.931-40.098-13.688-5.013-29.21-5.283-40.584-10.586-7.405-3.453-26.285-21.066-30.171-24.015-6.79-5.152-12.461-10.418-17.072-15.266-13.782-14.489-30.678-25.65-49.524-32.336l-45.669-16.201c-6.522-2.314-12.11-6.692-15.918-12.47l-41.459-62.921c-7.67-11.64-17.463-21.778-29.037-29.548-4.222-2.835-8.548-5.29-12.383-6.609-23.873-8.212-52.035-5.925-65.784 12.284 12.19-2.062 25.83-.466 38.259 3.995 3.817 1.37 8.11 3.882 12.294 6.772 11.47 7.922 21.129 18.188 28.644 29.929l40.624 63.463c3.731 5.828 9.261 10.28 15.752 12.679l45.451 16.803c18.756 6.934 35.503 18.318 49.093 32.988 7.149 7.717 16.902 16.502 29.523 24.291 44.653 27.557 143.309 55.662 188.067 67.56l35.061-10.5c5.162-1.544 4.993-8.911-.236-10.214z" fill="#d8e2f1"/></g><g><circle cx="55.308" cy="64.455" fill="#da4a54" r="9.141"/></g><g><path d="m235.914 297.916c.406-1.029 1.568-1.526 2.593-1.109 3.347 1.362 6.962 2.226 10.765 2.482 16.298 1.098 30.722-9.208 35.49-24.095.358-1.117 1.587-1.68 2.667-1.223 3.478 1.473 7.257 2.4 11.237 2.669 19.187 1.293 35.788-13.213 37.081-32.399l.002-.029c.09-1.346 1.433-2.21 2.711-1.778 2.789.944 5.743 1.548 8.819 1.755 9.849.664 19.01-2.843 25.775-9.001-22.6-8.276-43.207-17.111-57.987-25.965-4.632-2.775-8.881-5.687-12.767-8.636-4.518 13.989-17.641 24.111-33.134 24.111-1.286 0-2.555-.073-3.804-.212-1.278-.142-2.34.918-2.207 2.196.121 1.164.185 2.345.185 3.542 0 19.23-15.589 34.819-34.819 34.819-2.206 0-4.361-.209-6.452-.604-1.665-.315-3.222.915-3.316 2.608l-.001.021c-1.048 18.288-16.211 32.795-34.761 32.795-3.425 0-6.732-.497-9.858-1.42-1.198-.354-2.406.448-2.555 1.688-1.551 12.948-10.209 23.707-21.96 28.274-1.692.658-1.752 3.038-.099 3.789 3.695 1.677 7.747 2.731 12.035 3.02 12.907.87 24.637-5.416 31.331-15.461.484-.727 1.357-1.065 2.205-.854 1.967.49 4.004.814 6.097.955 15.499 1.045 29.31-8.223 34.727-21.938z" fill="#365e7d"/></g><g><path d="m285.091 228.443c12.819 7.911 30.092 15.867 49.259 23.472.734-2.45 1.217-5.015 1.396-7.675l.002-.029c.09-1.346 1.433-2.21 2.711-1.778 2.789.944 5.743 1.548 8.819 1.755 9.849.664 19.01-2.843 25.775-9.001-22.6-8.276-43.207-17.111-57.987-25.965-4.632-2.775-8.881-5.687-12.767-8.636-3.649 11.299-12.913 20.071-24.503 23.029 2.318 1.639 4.745 3.255 7.295 4.828z" fill="#2b4d66"/></g></g></svg>