<?xml version="1.0" encoding="UTF-8" standalone="no"?>
<svg
   xmlns:svg="http://www.w3.org/2000/svg"
   xmlns="http://www.w3.org/2000/svg"
   xmlns:sodipodi="http://sodipodi.sourceforge.net/DTD/sodipodi-0.dtd"
   xmlns:inkscape="http://www.inkscape.org/namespaces/inkscape"
   id="Capa_1"
   enable-background="new 0 0 512 512"
   height="512"
   viewBox="0 0 512 512"
   width="512"
   version="1.1"
   sodipodi:docname="brickwall.svg"
   inkscape:version="1.1-dev (a1a64ec, 2020-05-08)">
  <defs
     id="defs1037" />
  <sodipodi:namedview
     pagecolor="#ffffff"
     bordercolor="#666666"
     borderopacity="1"
     objecttolerance="10"
     gridtolerance="10"
     guidetolerance="10"
     inkscape:pageopacity="0"
     inkscape:pageshadow="2"
     inkscape:window-width="1203"
     inkscape:window-height="715"
     id="namedview1035"
     showgrid="false"
     inkscape:zoom="0.80569191"
     inkscape:cx="261.59476"
     inkscape:cy="280.91302"
     inkscape:window-x="0"
     inkscape:window-y="23"
     inkscape:window-maximized="0"
     inkscape:current-layer="Capa_1" />
  <path
     d="m497 83.5h-91v-75h91c8.284 0 15 6.716 15 15v45c0 8.284-6.716 15-15 15z"
     id="path998"
     style="fill:#ce8857;fill-opacity:1" />
  <path
     d="m271 8.5h105v75h-105z"
     id="path1000"
     style="fill:#d6a585;fill-opacity:1" />
  <path
     d="m203.5 113.5h105v75h-105z"
     id="path1002"
     style="fill:#d6a585;fill-opacity:1" />
  <path
     d="m136 8.5h105v75h-105z"
     id="path1004"
     style="fill:#ce8857;fill-opacity:1" />
  <path
     d="m15 8.5h91v75h-91c-8.284 0-15-6.716-15-15v-45c0-8.284 6.716-15 15-15z"
     id="path1006"
     style="fill:#d67322;fill-opacity:1" />
  <path
     d="m68.5 113.5h105v75h-105z"
     id="path1008"
     style="fill:#a9553b;fill-opacity:1" />
  <path
     d="m338.5 113.5h105v75h-105z"
     id="path1010"
     style="fill:#ce8857;fill-opacity:1" />
  <path
     d="m497 293.5h-91v-75h91c8.284 0 15 6.716 15 15v45c0 8.284-6.716 15-15 15z"
     id="path1012"
     style="fill:#c87137;fill-opacity:1" />
  <path
     d="m271 218.5h105v75h-105z"
     id="path1014"
     style="fill:#d67322;fill-opacity:1" />
  <path
     d="m203.5 323.5h105v75h-105z"
     id="path1016"
     style="fill:#b06a51;fill-opacity:1" />
  <path
     d="m136 218.5h105v75h-105z"
     id="path1018"
     style="fill:#ce8857;fill-opacity:1" />
  <path
     d="m15 218.5h91v75h-91c-8.284 0-15-6.716-15-15v-45c0-8.284 6.716-15 15-15z"
     id="path1020"
     style="fill:#ce8857;fill-opacity:1" />
  <path
     d="m68.5 323.5h105v75h-105z"
     id="path1022"
     style="fill:#543d37;fill-opacity:1" />
  <path
     d="m338.5 323.5h105v75h-105z"
     id="path1024"
     style="fill:#d67322;fill-opacity:1" />
  <path
     d="m497 503.5h-91v-75h91c8.284 0 15 6.716 15 15v45c0 8.284-6.716 15-15 15z"
     id="path1026"
     style="fill:#ce8857;fill-opacity:1" />
  <path
     d="m271 428.5h105v75h-105z"
     id="path1028"
     style="fill:#ce8857;fill-opacity:1" />
  <path
     d="m136 428.5h105v75h-105z"
     id="path1030"
     style="fill:#b06a51;fill-opacity:1" />
  <path
     d="m15 428.5h91v75h-91c-8.284 0-15-6.716-15-15v-45c0-8.284 6.716-15 15-15z"
     id="path1032"
     style="fill:#c87137;fill-opacity:1" />
</svg>
