<svg id="Capa_1" enable-background="new 0 0 512 512" height="512" viewBox="0 0 512 512" width="512" xmlns="http://www.w3.org/2000/svg"><path d="m497 83.5h-91v-75h91c8.284 0 15 6.716 15 15v45c0 8.284-6.716 15-15 15z"/><path d="m271 8.5h105v75h-105z"/><path d="m203.5 113.5h105v75h-105z"/><path d="m136 8.5h105v75h-105z"/><path d="m15 8.5h91v75h-91c-8.284 0-15-6.716-15-15v-45c0-8.284 6.716-15 15-15z"/><path d="m68.5 113.5h105v75h-105z"/><path d="m338.5 113.5h105v75h-105z"/><path d="m497 293.5h-91v-75h91c8.284 0 15 6.716 15 15v45c0 8.284-6.716 15-15 15z"/><path d="m271 218.5h105v75h-105z"/><path d="m203.5 323.5h105v75h-105z"/><path d="m136 218.5h105v75h-105z"/><path d="m15 218.5h91v75h-91c-8.284 0-15-6.716-15-15v-45c0-8.284 6.716-15 15-15z"/><path d="m68.5 323.5h105v75h-105z"/><path d="m338.5 323.5h105v75h-105z"/><path d="m497 503.5h-91v-75h91c8.284 0 15 6.716 15 15v45c0 8.284-6.716 15-15 15z"/><path d="m271 428.5h105v75h-105z"/><path d="m136 428.5h105v75h-105z"/><path d="m15 428.5h91v75h-91c-8.284 0-15-6.716-15-15v-45c0-8.284 6.716-15 15-15z"/></svg>