<?xml version="1.0" encoding="UTF-8" standalone="no"?>
<svg
   xmlns:svg="http://www.w3.org/2000/svg"
   xmlns="http://www.w3.org/2000/svg"
   xmlns:sodipodi="http://sodipodi.sourceforge.net/DTD/sodipodi-0.dtd"
   xmlns:inkscape="http://www.inkscape.org/namespaces/inkscape"
   inkscape:version="1.1-dev (a1a64ec, 2020-05-08)"
   sodipodi:docname="brickwall.svg"
   version="1.1"
   width="512"
   viewBox="0 0 512 512"
   height="512"
   enable-background="new 0 0 512 512"
   id="Capa_1">
  <defs
     id="defs1037" />
  <sodipodi:namedview
     inkscape:current-layer="Capa_1"
     inkscape:window-maximized="0"
     inkscape:window-y="23"
     inkscape:window-x="0"
     inkscape:cy="256"
     inkscape:cx="256"
     inkscape:zoom="1.2128906"
     showgrid="false"
     id="namedview1035"
     inkscape:window-height="715"
     inkscape:window-width="1203"
     inkscape:pageshadow="2"
     inkscape:pageopacity="0"
     guidetolerance="10"
     gridtolerance="10"
     objecttolerance="10"
     borderopacity="1"
     bordercolor="#666666"
     pagecolor="#ffffff" />
  <path
     style="fill:#ee5d30;fill-opacity:1"
     id="path998"
     d="m497 83.5h-91v-75h91c8.284 0 15 6.716 15 15v45c0 8.284-6.716 15-15 15z" />
  <path
     style="fill:#ee5d30;fill-opacity:1"
     id="path1000"
     d="m271 8.5h105v75h-105z" />
  <path
     style="fill:#ee5d30;fill-opacity:1"
     id="path1002"
     d="m203.5 113.5h105v75h-105z" />
  <path
     style="fill:#ee5d30;fill-opacity:1"
     id="path1004"
     d="m136 8.5h105v75h-105z" />
  <path
     style="fill:#ee5d30;fill-opacity:1"
     id="path1006"
     d="m15 8.5h91v75h-91c-8.284 0-15-6.716-15-15v-45c0-8.284 6.716-15 15-15z" />
  <path
     style="fill:#ee5d30;fill-opacity:1"
     id="path1008"
     d="m68.5 113.5h105v75h-105z" />
  <path
     style="fill:#ee5d30;fill-opacity:1"
     id="path1010"
     d="m338.5 113.5h105v75h-105z" />
  <path
     style="fill:#ee5d30;fill-opacity:1"
     id="path1012"
     d="m497 293.5h-91v-75h91c8.284 0 15 6.716 15 15v45c0 8.284-6.716 15-15 15z" />
  <path
     style="fill:#ee5d30;fill-opacity:1"
     id="path1014"
     d="m271 218.5h105v75h-105z" />
  <path
     style="fill:#ee5d30;fill-opacity:1"
     id="path1016"
     d="m203.5 323.5h105v75h-105z" />
  <path
     style="fill:#ee5d30;fill-opacity:1"
     id="path1018"
     d="m136 218.5h105v75h-105z" />
  <path
     style="fill:#ee5d30;fill-opacity:1"
     id="path1020"
     d="m15 218.5h91v75h-91c-8.284 0-15-6.716-15-15v-45c0-8.284 6.716-15 15-15z" />
  <path
     style="fill:#ee5d30;fill-opacity:1"
     id="path1022"
     d="m68.5 323.5h105v75h-105z" />
  <path
     style="fill:#ee5d30;fill-opacity:1"
     id="path1024"
     d="m338.5 323.5h105v75h-105z" />
  <path
     style="fill:#ee5d30;fill-opacity:1"
     id="path1026"
     d="m497 503.5h-91v-75h91c8.284 0 15 6.716 15 15v45c0 8.284-6.716 15-15 15z" />
  <path
     style="fill:#ee5d30;fill-opacity:1"
     id="path1028"
     d="m271 428.5h105v75h-105z" />
  <path
     style="fill:#ee5d30;fill-opacity:1"
     id="path1030"
     d="m136 428.5h105v75h-105z" />
  <path
     style="fill:#ee5d30;fill-opacity:1"
     id="path1032"
     d="m15 428.5h91v75h-91c-8.284 0-15-6.716-15-15v-45c0-8.284 6.716-15 15-15z" />
</svg>
