
<svg
xmlns="http://www.w3.org/2000/svg"
   viewBox="0 0 449 449"
   height="449"
   width="449"
   id="svg1177"
   version="1.1">
  <defs
     id="defs1181" />
  <g
     id="g1183">
    <path
       id="path1244"
       d="m 211.46124,407.22789 c -19.12776,-2.1364 -33.74482,-5.86611 -53.90123,-13.75348 -4.46206,-1.74604 -27.06469,-14.51577 -35.09877,-19.82963 -8.43795,-5.58098 -30.965066,-26.56984 -34.805996,-32.42927 -1.98293,-3.025 -5.76277,-8.36924 -8.39966,-11.87609 -9.15915,-12.18093 -16.97682,-26.18025 -20.93121,-37.48211 -9.78699,-27.97174 -9.37154,-26.26937 -12.33637,-50.5508 -2.08515,-17.07697 -0.85646,-45.9384 2.51937,-59.17913 2.07431,-8.1359 8.7316,-28.23771 12.22442,-36.91187 6.11853,-15.1949 21.09427,-37.50087 34.95865,-52.069963 23.257216,-24.43935 56.336516,-44.57251 83.770796,-50.985689 7.15,-1.671421 16.825,-3.946485 21.5,-5.055698 17.53352,-4.160086 66.09481,-1.737369 79.18832,3.950697 2.57858,1.120182 9.32858,3.467205 15,5.215606 11.29209,3.481156 21.75324,8.352121 28.95811,13.483603 2.55554,1.820114 7.84927,5.12423 11.76385,7.342479 7.19003,4.074333 22.67017,16.834552 31.25692,25.764972 7.07498,7.358153 26.12847,34.636623 31.6789,45.353993 7.32356,14.14114 16.74371,44.44227 18.18674,58.5 1.40012,13.63969 1.40229,38.56553 0.004,48.31778 -2.42675,16.9278 -8.08888,39.1495 -11.96357,46.95238 -2.11112,4.25141 -4.88961,10.20484 -6.17441,13.22984 -6.00477,14.1379 -26.05025,41.29781 -38.65413,52.37302 -25.43081,22.34642 -47.62912,35.09489 -74.74495,42.92594 -15.02816,4.34013 -14.84995,4.30078 -27.5,6.07266 -17.27956,2.42032 -29.10788,2.58332 -46.5,0.64076 z"
       fill="#eb6035" />
  </g>
</svg>
