<?xml version="1.0" encoding="UTF-8" standalone="no"?>
<svg
   xmlns:svg="http://www.w3.org/2000/svg"
   xmlns="http://www.w3.org/2000/svg"
   xmlns:xlink="http://www.w3.org/1999/xlink"
   xmlns:sodipodi="http://sodipodi.sourceforge.net/DTD/sodipodi-0.dtd"
   xmlns:inkscape="http://www.inkscape.org/namespaces/inkscape"
   width="2500"
   height="2500"
   viewBox="0 0 192.756 192.756"
   version="1.1"
   id="svg861"
   sodipodi:docname="eho.svg"
   inkscape:version="1.1-dev (a1a64ec, 2020-05-08)">
  <defs
     id="defs865">
    <linearGradient
       id="linearGradient1065"
       inkscape:collect="always">
      <stop
         id="stop1061"
         offset="0"
         style="stop-color:#441650;stop-opacity:1" />
      <stop
         style="stop-color:#ff7f2a;stop-opacity:1"
         offset="0.34937975"
         id="stop1071" />
      <stop
         style="stop-color:#ffe680;stop-opacity:1"
         offset="0.6987595"
         id="stop1069" />
      <stop
         id="stop1063"
         offset="1"
         style="stop-color:#90c0cd;stop-opacity:1" />
    </linearGradient>
    <radialGradient
       gradientUnits="userSpaceOnUse"
       gradientTransform="matrix(1.0557419,-1.8974638,1.6633938,0.92550637,-307.04374,89.383783)"
       r="90.734"
       fy="195.78798"
       fx="42.401733"
       cy="195.78798"
       cx="42.401733"
       id="radialGradient1067"
       xlink:href="#linearGradient1065"
       inkscape:collect="always" />
  </defs>
  <sodipodi:namedview
     pagecolor="#ffffff"
     bordercolor="#666666"
     borderopacity="1"
     objecttolerance="10"
     gridtolerance="10"
     guidetolerance="10"
     inkscape:pageopacity="0"
     inkscape:pageshadow="2"
     inkscape:window-width="1440"
     inkscape:window-height="829"
     id="namedview863"
     showgrid="false"
     inkscape:zoom="0.2484"
     inkscape:cx="990.34924"
     inkscape:cy="1398.938"
     inkscape:window-x="0"
     inkscape:window-y="23"
     inkscape:window-maximized="1"
     inkscape:current-layer="svg861" />
  <path
     d="M 123.256,78.75 H 67.479 V 58.592 h 55.777 z m 0,28.912 H 67.479 V 87.491 h 55.777 z m -96.783,40.893 h -7.099 v 2.81 h 6.52 v 2.373 h -6.52 v 3.453 h 7.414 v 2.375 H 16.636 v -13.378 h 9.837 z m 8.977,7.373 1.342,1.264 a 3.247,3.247 0 0 1 -1.509,0.357 c -1.51,0 -3.635,-0.93 -3.635,-4.674 0,-3.744 2.125,-4.674 3.635,-4.674 1.509,0 3.632,0.93 3.632,4.674 0,1.254 -0.242,2.18 -0.614,2.873 l -1.416,-1.322 z m 6.317,3.09 -1.457,-1.371 c 0.82,-1.045 1.4,-2.572 1.4,-4.771 0,-6.277 -4.658,-7.039 -6.428,-7.039 -1.769,0 -6.425,0.762 -6.425,7.039 0,6.281 4.656,7.041 6.425,7.041 0.78,0 2.16,-0.146 3.427,-0.898 l 1.586,1.514 z m 13.096,-4.129 c 0,3.516 -2.127,5.027 -5.499,5.027 -1.228,0 -3.054,-0.297 -4.246,-1.619 -0.726,-0.814 -1.006,-1.904 -1.042,-3.242 v -8.867 h 2.85 v 8.678 c 0,1.869 1.08,2.684 2.382,2.684 1.921,0 2.701,-0.93 2.701,-2.551 v -8.811 h 2.855 v 8.701 z m 7.485,-5.682 h 0.041 l 1.655,5.291 H 60.63 Z m -2.464,7.594 h 4.939 l 0.858,2.766 h 3.037 l -4.71,-13.379 h -3.225 l -4.769,13.379 h 2.943 z m 13.808,0.344 h 6.65 v 2.421 h -9.448 v -13.378 h 2.798 z m 17.246,-3.583 v 6.004 h -2.79 v -13.378 h 2.79 v 5.066 h 5.218 v -5.066 h 2.791 v 13.378 h -2.791 v -6.004 z m 13.335,-0.687 c 0,-3.744 2.127,-4.674 3.631,-4.674 1.512,0 3.637,0.93 3.637,4.674 0,3.744 -2.125,4.674 -3.637,4.674 -1.504,0 -3.631,-0.93 -3.631,-4.674 z m -2.791,0 c 0,6.281 4.66,7.041 6.422,7.041 1.777,0 6.432,-0.76 6.432,-7.041 0,-6.277 -4.654,-7.039 -6.432,-7.039 -1.761,0 -6.422,0.762 -6.422,7.039 z m 26.194,2.014 c 0,3.516 -2.127,5.027 -5.5,5.027 -1.23,0 -3.051,-0.297 -4.248,-1.619 -0.725,-0.814 -1.006,-1.904 -1.039,-3.242 v -8.867 h 2.846 v 8.678 c 0,1.869 1.084,2.684 2.391,2.684 1.918,0 2.699,-0.93 2.699,-2.551 v -8.811 h 2.852 v 8.701 z m 5.113,0.556 c 0.025,0.744 0.4,2.162 2.838,2.162 1.32,0 2.795,-0.316 2.795,-1.736 0,-1.039 -1.006,-1.322 -2.42,-1.656 l -1.436,-0.336 c -2.168,-0.502 -4.252,-0.98 -4.252,-3.924 0,-1.492 0.807,-4.119 5.145,-4.119 4.102,0 5.199,2.68 5.219,4.32 h -2.686 c -0.072,-0.592 -0.297,-2.012 -2.738,-2.012 -1.059,0 -2.326,0.391 -2.326,1.602 0,1.049 0.857,1.264 1.41,1.395 l 3.264,0.801 c 1.826,0.449 3.5,1.195 3.5,3.596 0,4.029 -4.096,4.379 -5.271,4.379 -4.877,0 -5.715,-2.814 -5.715,-4.471 h 2.673 z m 13.397,4.121 H 143.4 v -13.378 h 2.786 z m 11.164,-13.378 h 2.605 v 13.378 h -2.791 l -5.455,-9.543 h -0.047 v 9.543 h -2.605 V 146.188 H 152 l 5.303,9.316 h 0.047 z m 11.957,6.167 h 5.584 v 7.211 h -1.859 l -0.279,-1.676 c -0.707,0.812 -1.732,2.025 -4.174,2.025 -3.221,0 -6.143,-2.309 -6.143,-7.002 0,-3.648 2.031,-7.098 6.533,-7.078 4.105,0 5.727,2.66 5.867,4.512 h -2.791 c 0,-0.523 -0.953,-2.203 -2.924,-2.203 -1.998,0 -3.84,1.377 -3.84,4.803 0,3.654 1.994,4.602 3.893,4.602 0.615,0 2.67,-0.238 3.242,-2.943 h -3.109 z M 18.836,173.197 c 0,-3.744 2.123,-4.678 3.63,-4.678 1.509,0 3.631,0.934 3.631,4.678 0,3.742 -2.122,4.68 -3.631,4.68 -1.507,0 -3.63,-0.938 -3.63,-4.68 z m -2.794,0 c 0,6.275 4.656,7.049 6.425,7.049 1.77,0 6.426,-0.773 6.426,-7.049 0,-6.276 -4.657,-7.039 -6.426,-7.039 -1.769,0 -6.425,0.764 -6.425,7.039 z m 20.507,-0.449 v -3.934 h 2.217 c 1.731,0 2.459,0.545 2.459,1.85 0,0.596 0,2.084 -2.088,2.084 z m 0,2.314 h 3.202 c 3.597,0 4.265,-3.059 4.265,-4.268 0,-2.625 -1.561,-4.285 -4.153,-4.285 h -6.107 v 13.379 h 2.793 z m 15.05,-2.314 v -3.934 h 2.213 c 1.733,0 2.46,0.545 2.46,1.85 0,0.596 0,2.084 -2.083,2.084 z m 0,2.314 h 3.204 c 3.594,0 4.267,-3.059 4.267,-4.268 0,-2.625 -1.563,-4.285 -4.153,-4.285 h -6.113 v 13.379 h 2.795 z m 14.458,-1.865 c 0,-3.744 2.118,-4.678 3.633,-4.678 1.502,0 3.63,0.934 3.63,4.678 0,3.742 -2.127,4.68 -3.63,4.68 -1.515,0 -3.633,-0.938 -3.633,-4.68 z m -2.795,0 c 0,6.275 4.655,7.049 6.428,7.049 1.765,0 6.421,-0.773 6.421,-7.049 0,-6.276 -4.656,-7.039 -6.421,-7.039 -1.773,0 -6.428,0.764 -6.428,7.039 z m 20.455,-0.801 v -3.582 h 3.479 c 1.64,0 1.954,1.049 1.954,1.756 0,1.324 -0.705,1.826 -2.159,1.826 z m -2.746,7.493 h 2.746 v -5.236 h 2.882 c 2.07,0 2.184,0.705 2.184,2.531 0,1.375 0.105,2.064 0.292,2.705 h 3.095 v -0.361 c -0.596,-0.221 -0.596,-0.707 -0.596,-2.656 0,-2.504 -0.596,-2.91 -1.694,-3.396 1.322,-0.443 2.064,-1.713 2.064,-3.182 0,-1.158 -0.648,-3.783 -4.207,-3.783 H 80.97 v 13.378 z m 21.384,0 h -2.793 v -11.012 h -4.04 V 166.51 H 106.4 v 2.367 h -4.045 z m 19.04,-4.682 c 0,3.52 -2.123,5.039 -5.498,5.039 -1.223,0 -3.049,-0.311 -4.244,-1.631 -0.727,-0.816 -1.006,-1.898 -1.039,-3.238 v -8.867 h 2.846 v 8.678 c 0,1.863 1.082,2.689 2.385,2.689 1.918,0 2.699,-0.938 2.699,-2.557 v -8.811 h 2.852 v 8.698 z m 13.521,-8.697 h 2.613 v 13.379 h -2.8 l -5.459,-9.543 h -0.03 v 9.543 h -2.613 V 166.51 h 2.943 l 5.313,9.312 h 0.033 z m 10.496,13.379 h -2.803 V 166.51 h 2.803 z m 10.908,0 h -2.793 v -11.012 h -4.035 v -2.367 h 10.873 v 2.367 h -4.045 z m 14.608,0 h -2.799 v -5.051 l -4.615,-8.328 h 3.295 l 2.775,5.814 2.652,-5.814 h 3.162 l -4.47,8.361 z M 95.706,6.842 5.645,51.199 v 20.836 h 10.08 v 62.502 H 175.009 V 72.035 h 12.104 V 51.199 Z m 59.815,108.871 H 35.216 V 58.592 l 60.49,-30.914 59.816,30.914 v 57.121 z"
     style="clip-rule:evenodd;fill-rule:evenodd;fill:url(#radialGradient1067);fill-opacity:1"
     id="path857" />
</svg>
