<?xml version="1.0" encoding="UTF-8" standalone="no"?>
<svg
   xmlns:svg="http://www.w3.org/2000/svg"
   xmlns="http://www.w3.org/2000/svg"
   xmlns:sodipodi="http://sodipodi.sourceforge.net/DTD/sodipodi-0.dtd"
   xmlns:inkscape="http://www.inkscape.org/namespaces/inkscape"
   inkscape:version="1.1-dev (a1a64ec, 2020-05-08)"
   inkscape:export-ydpi="96"
   inkscape:export-xdpi="96"
   inkscape:export-filename="/Users/williamandree/Kod3n/OTLwebsite/public/file.png"
   sodipodi:docname="file.svg"
   version="1.1"
   width="514"
   viewBox="0 0 514 514"
   height="514"
   enable-background="new 0 0 512 512"
   id="Capa_1">
  <defs
     id="defs1644" />
  <sodipodi:namedview
     inkscape:current-layer="Capa_1"
     inkscape:window-maximized="0"
     inkscape:window-y="23"
     inkscape:window-x="0"
     inkscape:cy="420.52248"
     inkscape:cx="177.62016"
     inkscape:zoom="1.2597656"
     fit-margin-bottom="1"
     fit-margin-right="1"
     fit-margin-left="1"
     lock-margins="true"
     fit-margin-top="1"
     showgrid="false"
     id="namedview1642"
     inkscape:window-height="717"
     inkscape:window-width="1254"
     inkscape:pageshadow="2"
     inkscape:pageopacity="0"
     guidetolerance="10"
     gridtolerance="10"
     objecttolerance="10"
     borderopacity="1"
     bordercolor="#666666"
     pagecolor="#ffffff" />
  <g
     transform="translate(1,1)"
     style="fill:#f9e1c9;fill-opacity:1"
     id="g1639">
    <path
       style="fill:#f9e1c9;fill-opacity:1"
       id="path1637"
       d="M 452,60 V 0 H 105 V 362 H 0 v 22.5 C 0,421.72 30.28,452 67.5,452 H 165 v 60 H 512 V 60 Z M 135,30 H 422 V 384.5 C 422,405.178 405.178,422 384.5,422 363.822,422 347,405.178 347,384.5 V 362 H 135 Z M 30.753,392 h 286.661 c 1.223,11.008 5.105,21.23 10.986,30 H 67.5 C 49.391,422 34.238,409.096 30.753,392 Z M 482,482 H 195 v -30 h 189.5 c 37.22,0 67.5,-30.28 67.5,-67.5 V 90 h 30 z" />
  </g>
</svg>
