<svg id="Layer_1_1_" enable-background="new 0 0 64 64" height="512" viewBox="0 0 64 64" width="512" xmlns="http://www.w3.org/2000/svg"><path d="m61 56h-24.294c.872-.605 1.463-1.537 1.634-2.594.186-1.144-.141-2.303-.894-3.182l-.709-.828c-1.145-1.334-1.635-3.095-1.346-4.829l.429-2.567h9.575c1.988 0 3.605-1.617 3.605-3.605 0-.538.268-1.037.715-1.336l1.84-1.227c.366-.244.53-.7.402-1.122s-.517-.71-.957-.71h-16v-4h6c1.988 0 3.605-1.617 3.605-3.605 0-.538.268-1.037.715-1.336l1.84-1.227c.366-.244.53-.7.402-1.122s-.516-.71-.957-.71h-11.605v-2.001c0-3.35 1.953-6.329 5-7.671v-.328h-8-8v.328c3.048 1.342 5 4.321 5 7.672v2h-11.605c-.44 0-.829.288-.957.71s.036.878.402 1.122l1.84 1.227c.447.299.715.798.715 1.336 0 1.988 1.617 3.605 3.605 3.605h6v4h-16c-.44 0-.829.288-.957.71s.036.878.402 1.122l1.84 1.227c.447.298.715.797.715 1.336 0 1.988 1.617 3.605 3.605 3.605h9.575l.428 2.567c.289 1.734-.201 3.495-1.345 4.829l-.71.827c-.753.88-1.079 2.039-.894 3.183.171 1.057.762 1.988 1.634 2.594h-24.293c-.553 0-1 .447-1 1v4c0 .553.447 1 1 1h58c.553 0 1-.447 1-1v-4c0-.553-.447-1-1-1z"/><path d="m9 34c0-1.103.897-2 2-2 2.206 0 4-1.794 4-4v-5c0-1.103.897-2 2-2h6v-2h-6c-2.206 0-4 1.794-4 4v5c0 1.103-.897 2-2 2-2.206 0-4 1.794-4 4v14h2z"/><path d="m7 50h2v3h-2z"/><path d="m12 40h2v8h-2z"/><path d="m12 50h2v3h-2z"/><path d="m32.857 11.515 3-5c.236-.394.174-.897-.15-1.222l-3-3c-.391-.391-1.023-.391-1.414 0l-3 3c-.324.324-.387.828-.15 1.222l3 5c.18.3.505.485.857.485s.677-.185.857-.485z"/><path d="m41 19v2h6c1.103 0 2 .897 2 2v5c0 2.206 1.794 4 4 4 1.103 0 2 .897 2 2v14h2v-14c0-2.206-1.794-4-4-4-1.103 0-2-.897-2-2v-5c0-2.206-1.794-4-4-4z"/><path d="m55 50h2v3h-2z"/><path d="m50 40h2v8h-2z"/><path d="m50 50h2v3h-2z"/><path d="m45 12h2c0-3.309-2.691-6-6-6h-2v2h2c2.206 0 4 1.794 4 4z"/><path d="m45 14h2v2h-2z"/><path d="m23 8h2v-2h-2c-3.309 0-6 2.691-6 6h2c0-2.206 1.794-4 4-4z"/><path d="m17 14h2v2h-2z"/></svg>