<svg xmlns="http://www.w3.org/2000/svg" xmlns:xlink="http://www.w3.org/1999/xlink" xml:space="preserve" version="1.1" style="shape-rendering:geometricPrecision;text-rendering:geometricPrecision;image-rendering:optimizeQuality;" viewBox="0 0 60000 75000" x="0px" y="0px" fill-rule="evenodd" clip-rule="evenodd"><defs><style type="text/css">
   
    .fil0 {fill:black;fill-rule:nonzero}
   
  </style></defs><g><path class="fil0" d="M29669 9527c-1,-138 111,-249 248,-250 138,-1 249,111 250,248l48 8641c23,15 45,32 65,52l64 64 1469 -8611c23,-136 152,-227 288,-204 136,23 227,152 204,288l-1528 8958 53 53 3069 -8581c46,-130 189,-198 319,-151 130,46 198,189 151,319l-3149 8803 17 17 4627 -8119c68,-120 220,-162 340,-94 120,68 162,220 94,340l-4695 8237 0 0 6046 -7287c88,-106 245,-121 352,-33 106,88 121,245 33,352l-6055 7298 7221 -6128c105,-89 263,-76 352,29 89,105 76,263 -29,352l-7213 6121 3 3 8155 -4769c119,-70 271,-30 341,89 70,119 30,271 -89,341l-8042 4703 23 23 8716 -3227c129,-47 273,19 320,148 47,129 -19,273 -148,320l-8221 3044 734 -7 7913 -1441c135,-24 265,66 289,201 24,135 -66,265 -201,289l-5067 923 6466 -61c-41,-3510 -1549,-6685 -3965,-8992 -2456,-2345 -5851,-3795 -9602,-3795 -3751,0 -7146,1450 -9602,3795 -2416,2307 -3924,5481 -3965,8990l6778 64 -5412 -923c-136,-23 -227,-152 -204,-288 23,-136 152,-227 288,-204l8472 1445 469 4 -8511 -3044c-130,-46 -198,-189 -151,-319 46,-130 189,-198 319,-151l8917 3190 2 -2 -8218 -4684c-120,-68 -162,-220 -94,-340 68,-120 220,-162 340,-94l8240 4696 -7289 -6048c-106,-88 -121,-245 -33,-352 88,-106 245,-121 352,-33l7298 6055 -6128 -7221c-89,-105 -76,-263 29,-352 105,-89 263,-76 352,29l6163 7263c11,13 21,28 29,43l103 -102c-4,-6 -8,-12 -12,-18l-4808 -8222c-70,-119 -30,-271 89,-341 119,-70 271,-30 341,89l4369 7472 -2990 -8076c-47,-129 19,-273 148,-320 129,-47 273,19 320,148l3192 8622 44 -43 -1639 -9005c-24,-135 66,-265 201,-289 135,-24 265,66 289,201l1578 8666 117 -117 0 0 -48 -8691zm-7857 35928c1387,683 2398,1721 3097,2848 993,1601 1353,3389 1272,4582 -4,53 -8,104 -13,155l3771 980 3771 -980c-5,-51 -10,-102 -13,-155 -81,-1194 280,-2982 1272,-4582 699,-1127 1709,-2165 3097,-2848l-4281 0c-97,0 -187,-35 -256,-93l-3538 -2524 -3954 2553c-67,43 -142,63 -216,63l0 1 -4008 0zm2419 3266c-771,-1243 -1966,-2366 -3694,-2921 969,602 1701,1385 2237,2226 983,1540 1303,3278 1219,4449l1391 362 0 -4c72,-1061 -255,-2662 -1154,-4111zm-2129 -267c-714,-1118 -1822,-2122 -3450,-2647 865,542 1518,1226 1999,1961 919,1402 1207,2995 1164,4141l1388 361c38,-1032 -262,-2500 -1102,-3815zm-2119 -249c-657,-1002 -1681,-1897 -3215,-2392 465,294 861,628 1196,988 1315,1413 1681,3212 1675,4542l1384 360c5,-994 -267,-2318 -1040,-3497zm-2603 -860c-585,-629 -1390,-1170 -2483,-1522 648,414 1139,905 1510,1434 797,1139 1021,2436 1054,3520l1378 358c-31,-1150 -377,-2626 -1459,-3790zm-1627 368c-538,-769 -1388,-1447 -2715,-1876 529,343 933,737 1244,1161 739,1009 929,2159 1000,3213l1372 356c-53,-910 -268,-1951 -901,-2854zm-2114 -244c-683,-933 -1939,-1699 -4258,-2014l-4516 0c-221,0 -400,-179 -400,-400l0 -19791c0,-221 179,-400 400,-400l4453 0c13,-9 26,-16 40,-23 722,-388 1176,-878 1460,-1471 294,-615 417,-1357 467,-2218 12,-220 200,-389 420,-377l3 0 1906 18c151,-4244 1947,-8072 4774,-10878 2956,-2933 7039,-4747 11548,-4747 4509,0 8592,1814 11548,4747 2828,2806 4623,6635 4774,10879l2054 -20c214,-2 390,165 401,377l1 0c50,861 173,1603 467,2218 285,595 740,1086 1465,1474 12,6 24,13 35,21l4456 0c221,0 400,179 400,400l0 19791c0,221 -179,400 -400,400l-4639 0c-2319,315 -3575,1082 -4258,2014 -682,931 -813,2063 -864,3072 -9,184 -141,333 -312,371l-15017 3903c-65,18 -136,20 -206,2l-15024 -3905c-172,-38 -304,-187 -312,-371 -51,-1010 -182,-2141 -864,-3072zm-3134 -21877c-65,46 -144,72 -229,72l-5011 0 0 18991 20439 0 4081 -2635 0 0c133,-85 310,-87 447,11l3678 2624 20826 0 0 -18991 -4071 0c-84,0 -163,-26 -227,-71l-16595 -26c-96,0 -184,-34 -253,-91l-3590 -2954 -3590 2954c-76,63 -168,92 -259,91l-15645 25zm23988 27244l1391 -362c-84,-1170 236,-2909 1219,-4449 536,-840 1268,-1623 2237,-2226 -1729,555 -2924,1678 -3694,2921 -898,1448 -1225,3049 -1154,4111l0 4zm2180 -567l1388 -361c-43,-1146 245,-2739 1164,-4141 482,-735 1134,-1419 1999,-1961 -1628,524 -2736,1529 -3450,2647 -840,1316 -1140,2783 -1102,3815zm2181 -567l1384 -360c-6,-1329 360,-3129 1675,-4542 335,-360 731,-694 1196,-988 -1533,495 -2558,1390 -3215,2392 -773,1180 -1045,2503 -1040,3497zm2184 -568l1378 -358c33,-1084 257,-2381 1054,-3520 370,-529 861,-1020 1510,-1434 -1093,353 -1898,893 -2483,1522 -1083,1164 -1428,2640 -1459,3790zm2185 -568l1372 -356c71,-1054 261,-2204 1000,-3213 310,-424 715,-817 1244,-1161 -1326,429 -2176,1107 -2715,1876 -632,903 -847,1944 -901,2854zm2535 -29768c-149,-4108 -1889,-7814 -4626,-10530 -2865,-2842 -6823,-4600 -11196,-4600 -4373,0 -8331,1758 -11196,4600 -2737,2715 -4476,6421 -4626,10529l1454 14c44,-3733 1646,-7109 4215,-9561 2600,-2482 6189,-4017 10152,-4017 3963,0 7553,1535 10152,4017 2569,2453 4172,5829 4215,9562l1454 -14zm-17730 -898l9 -9c-7,-4 -15,-8 -22,-13 5,7 9,15 13,22zm4431 1613l-2460 -2451 -2550 2540 0 0c-73,72 -173,117 -284,116l-15111 -144c-70,799 -217,1510 -518,2138 -191,399 -441,759 -768,1081l15244 -24 3728 -3067c144,-123 360,-129 512,-5l3733 3072 15244 24c-327,-322 -577,-682 -768,-1081 -300,-628 -447,-1339 -518,-2138l-15093 143c-80,4 -161,-16 -232,-59 -72,-21 -132,-74 -160,-145z"/></g><text x="0" y="60015" fill="#000000" font-size="5px" font-weight="bold" font-family="'Helvetica Neue', Helvetica, Arial-Unicode, Arial, Sans-serif">Created by Olena Panasovska</text><text x="0" y="60020" fill="#000000" font-size="5px" font-weight="bold" font-family="'Helvetica Neue', Helvetica, Arial-Unicode, Arial, Sans-serif">from the Noun Project</text></svg>