<?xml version="1.0" encoding="UTF-8" standalone="no"?>
<svg
   xmlns:svg="http://www.w3.org/2000/svg"
   xmlns="http://www.w3.org/2000/svg"
   xmlns:sodipodi="http://sodipodi.sourceforge.net/DTD/sodipodi-0.dtd"
   xmlns:inkscape="http://www.inkscape.org/namespaces/inkscape"
   width="364.27893mm"
   height="68.539246mm"
   viewBox="0 0 364.27893 68.539246"
   version="1.1"
   id="svg1737"
   sodipodi:docname="terrazo2.svg"
   inkscape:version="1.1-dev (a1a64ec, 2020-05-08)">
  <defs
     id="defs1733" />
  <sodipodi:namedview
     id="base"
     pagecolor="#ffffff"
     bordercolor="#666666"
     borderopacity="1.0"
     inkscape:pageopacity="0.0"
     inkscape:pageshadow="2"
     inkscape:zoom="0.76235552"
     inkscape:cx="533.63349"
     inkscape:cy="103.62718"
     inkscape:document-units="mm"
     inkscape:current-layer="layer1"
     showgrid="false"
     fit-margin-top="0"
     fit-margin-left="0"
     fit-margin-right="0"
     fit-margin-bottom="0"
     inkscape:window-width="1440"
     inkscape:window-height="829"
     inkscape:window-x="0"
     inkscape:window-y="23"
     inkscape:window-maximized="1" />
  <g
     inkscape:label="Layer 1"
     inkscape:groupmode="layer"
     id="layer1"
     transform="translate(91.440122,-98.625869)">
    <path
       id="path7013"
       d="m 252.4415,164.53868 c -0.0932,-0.0932 -0.1033,-0.21279 -0.0221,-0.26295 0.0315,-0.0195 0.0796,-0.0939 0.10673,-0.16528 0.0596,-0.15685 0.20533,-0.16732 0.49217,-0.0353 0.32463,0.14943 0.28925,0.22052 -0.21206,0.42606 -0.25106,0.10292 -0.29472,0.10741 -0.36471,0.0374 z"
       style="fill:#0000ff;fill-opacity:1;stroke-width:0.0540288" />
    <path
       id="path6955"
       d="m 240.39041,152.15256 c -0.23605,-0.31263 -0.24825,-0.50192 -0.0358,-0.55525 0.13262,-0.0333 0.41424,0.0588 0.47576,0.15555 0.10952,0.17223 0.002,0.6855 -0.14356,0.6855 -0.0443,0 -0.17773,-0.12862 -0.2964,-0.2858 z"
       style="fill:#0000ff;fill-opacity:1;stroke-width:0.0540288" />
    <path
       id="path6923"
       d="m 270.37163,135.90624 c -0.0179,-0.0179 -0.0645,-0.0199 -0.10356,-0.005 -0.0431,0.0172 -0.0303,0.03 0.0327,0.0326 0.0569,0.002 0.0889,-0.0103 0.0709,-0.0284 z"
       style="fill:#0000ff;fill-opacity:1;stroke-width:0.0540288" />
    <path
       id="path6869"
       d="m 94.208947,106.31218 c -0.14405,-0.0241 -0.27615,-0.0582 -0.29355,-0.0756 -0.0656,-0.0656 0.0874,-0.14211 0.37863,-0.18952 0.47615,-0.0775 0.66103,0.0225 0.42923,0.23236 -0.10716,0.0969 -0.12489,0.0981 -0.51431,0.0328 z"
       style="fill:#0000ff;fill-opacity:1;stroke-width:0.0540288" />
    <path
       id="path6855"
       d="m 169.16919,138.12141 c -0.0445,-0.0254 -0.19714,-0.0599 -0.33904,-0.0767 -0.14189,-0.0168 -0.331,-0.0825 -0.42027,-0.14612 -0.14496,-0.10321 -0.15858,-0.13666 -0.12769,-0.31337 0.0772,-0.44136 0.33917,-0.44172 0.85204,-0.002 0.48383,0.41554 0.51379,0.46375 0.33143,0.53306 -0.16835,0.064 -0.1911,0.0644 -0.29647,0.005 z"
       style="fill:#0000ff;fill-opacity:1;stroke-width:0.0540288" />
    <path
       id="path6811"
       d="m -42.5882,149.35457 c -0.19508,-0.20479 -0.286,-0.36697 -0.23411,-0.41775 0.0506,-0.0495 0.69655,0.008 0.75581,0.0669 0.0348,0.0348 -0.17054,0.35964 -0.27242,0.43103 -0.0884,0.062 -0.12504,0.0502 -0.24928,-0.0802 z"
       style="fill:#0000ff;fill-opacity:1;stroke-width:0.0540288" />
    <path
       id="path6805"
       d="m 41.882714,102.6074 c 0.004,-0.0935 0.1399,-0.28319 0.28341,-0.39572 0.12117,-0.0951 0.16561,-0.10509 0.22962,-0.052 0.0822,0.0682 0.11024,0.35269 0.0388,0.39378 -0.0864,0.0497 -0.55369,0.0953 -0.55189,0.0539 z"
       style="fill:#0000ff;fill-opacity:1;stroke-width:0.0540288" />
    <path
       id="path6803"
       d="m 61.6228,142.25029 c -0.15938,-0.0833 -0.21559,-0.1381 -0.17045,-0.16601 0.0705,-0.0436 0.26445,0.0365 0.48306,0.19934 0.11267,0.0839 0.11606,0.0957 0.027,0.0935 -0.056,-0.002 -0.20885,-0.0584 -0.33962,-0.12684 z"
       style="fill:#0000ff;fill-opacity:1;stroke-width:0.0540288" />
    <path
       id="path6789"
       d="m 224.45345,138.49884 c -0.0511,-0.0403 -0.092,-0.18462 -0.10646,-0.3761 -0.0204,-0.27023 -0.011,-0.31066 0.0723,-0.31066 0.0527,0 0.11187,0.026 0.13148,0.0577 0.0196,0.0317 0.069,0.0449 0.10968,0.0293 0.0876,-0.0336 0.23923,0.10321 0.23923,0.2159 0,0.10743 -0.15639,0.33858 -0.27034,0.39955 -0.0611,0.0327 -0.12138,0.0273 -0.17592,-0.0157 z"
       style="fill:#0000ff;fill-opacity:1;stroke-width:0.0540288" />
    <path
       id="path6787"
       d="m 126.28274,109.8544 c 0,-0.0297 0.0243,-0.0541 0.054,-0.0541 0.0297,0 0.054,0.0243 0.054,0.0541 0,0.0297 -0.0243,0.054 -0.054,0.054 -0.0297,0 -0.054,-0.0243 -0.054,-0.054 z"
       style="fill:#0000ff;fill-opacity:1;stroke-width:0.0540288" />
    <path
       id="path6775"
       d="m 13.63719,141.48499 c 0,-0.0139 -0.0547,-0.0516 -0.12158,-0.084 -0.11673,-0.0566 -0.11738,-0.0556 -0.0166,0.0251 0.11024,0.0883 0.13827,0.10025 0.13827,0.0589 z"
       style="fill:#0000ff;fill-opacity:1;stroke-width:0.0540288" />
    <path
       id="path6747"
       d="m -64.424989,110.79657 c -0.0974,-0.23264 -0.11879,-0.49925 -0.0451,-0.56046 0.16718,-0.13872 0.47912,-0.11615 0.82804,0.06 0.32991,0.16653 0.46315,0.19134 0.29986,0.0558 -0.0453,-0.0376 -0.0823,-0.114 -0.0823,-0.1698 0,-0.17855 0.305,-0.13016 0.57524,0.0913 0.12936,0.10601 0.23519,0.22497 0.23519,0.26436 0,0.0923 -0.15764,0.15329 -0.23647,0.0916 -0.0333,-0.0262 -0.12148,-0.0613 -0.19576,-0.078 -0.10903,-0.0246 -0.15673,0.003 -0.24749,0.14113 -0.0634,0.0968 -0.14585,0.16142 -0.18909,0.14821 -0.1564,-0.0477 -0.75217,-0.0471 -0.78179,0.002 -0.048,0.0778 -0.11711,0.0585 -0.16034,-0.0449 z"
       style="fill:#0000ff;fill-opacity:1;stroke-width:0.0540288" />
    <path
       id="path6729"
       d="m 269.05232,116.31159 c -0.19345,-0.17006 -0.19509,-0.175 -0.11871,-0.35467 0.0719,-0.16913 0.0912,-0.17998 0.26942,-0.15104 0.32378,0.0525 0.45067,0.16953 0.45067,0.41553 0,0.11819 -0.0183,0.2176 -0.0405,0.2209 -0.31513,0.0469 -0.37445,0.0331 -0.56087,-0.13072 z"
       style="fill:#0000ff;fill-opacity:1;stroke-width:0.0540288" />
    <path
       id="path6709"
       d="m 131.37489,118.31963 c -0.0565,-0.0565 0.0897,-0.48272 0.21037,-0.61329 0.0819,-0.0886 0.11089,-0.17034 0.09,-0.25364 -0.0228,-0.0908 -0.003,-0.13165 0.0747,-0.15639 0.058,-0.0185 0.14895,-0.0815 0.20204,-0.14016 0.0531,-0.0587 0.15239,-0.10668 0.22063,-0.10668 0.11234,0 0.12269,0.0218 0.10909,0.22963 -0.008,0.12629 -0.0314,0.27216 -0.0514,0.32417 -0.02,0.052 -0.0477,0.1306 -0.0614,0.17468 -0.0144,0.0464 -0.06,0.0667 -0.10805,0.0482 -0.0567,-0.0217 -0.0831,0 -0.0831,0.0699 0,0.14814 -0.14015,0.32472 -0.28209,0.35545 -0.0677,0.0148 -0.16088,0.0427 -0.207,0.0623 -0.0461,0.0196 -0.0973,0.0222 -0.11374,0.006 z"
       style="fill:#0000ff;fill-opacity:1;stroke-width:0.0540288" />
    <path
       id="path6681"
       d="m -51.939408,112.00938 c 0.0455,-0.21817 0.0498,-0.45026 0.0118,-0.64203 -0.0378,-0.19097 0.0249,-0.26798 0.27745,-0.34041 0.15834,-0.0454 0.16064,-0.0429 0.21792,0.23191 0.0318,0.15277 0.0503,0.37287 0.041,0.48905 -0.0142,0.17693 -0.0465,0.22707 -0.19918,0.30841 -0.27843,0.14835 -0.38668,0.13381 -0.34896,-0.0469 z"
       style="fill:#0000ff;fill-opacity:1;stroke-width:0.0540288" />
    <path
       id="path6617"
       d="m -3.0977588,145.25713 c -0.10143,-0.17192 -0.107,-0.21772 -0.0497,-0.40907 0.0497,-0.16593 0.11246,-0.23993 0.27281,-0.32173 l 0.20824,-0.10623 0.23737,0.17045 c 0.13055,0.0938 0.26539,0.23814 0.29964,0.32083 0.0536,0.12927 0.0462,0.16884 -0.0523,0.28214 -0.0744,0.0856 -0.17705,0.13414 -0.29279,0.13849 -0.098,0.004 -0.24447,0.0319 -0.32549,0.0627 -0.081,0.0308 -0.15546,0.056 -0.16545,0.056 -0.01,0 -0.0696,-0.0871 -0.13239,-0.19358 z"
       style="fill:#0000ff;fill-opacity:1;stroke-width:0.0540288" />
    <path
       id="path6521"
       d="m 263.62141,99.809404 c -0.50468,-0.30627 -0.56389,-0.58804 -0.0721,-0.34295 0.30692,0.15295 0.47854,0.31459 0.42536,0.40067 -0.0525,0.085 -0.14229,0.0703 -0.3533,-0.0577 z"
       style="fill:#0000ff;fill-opacity:1;stroke-width:0.0540288" />
    <path
       id="path6507"
       d="m 258.33262,163.7659 c -0.10442,-0.12581 -0.0299,-0.14951 0.0818,-0.026 0.0539,0.0596 0.073,0.10839 0.0423,0.10839 -0.0307,0 -0.0865,-0.037 -0.12413,-0.0823 z"
       style="fill:#0000ff;fill-opacity:1;stroke-width:0.0540288" />
    <path
       id="path6503"
       d="m 180.4603,146.51476 c -0.0891,-0.15649 -0.0892,-0.17225 -10e-4,-0.2884 0.0952,-0.12618 0.58078,-0.30179 0.83458,-0.30179 0.25416,0 0.47683,0.0666 0.47683,0.14255 0,0.0412 -0.10941,0.12814 -0.24313,0.1931 -0.13372,0.065 -0.24313,0.13757 -0.24313,0.16137 0,0.0238 -0.0319,0.0433 -0.0709,0.0433 -0.039,0 -0.17155,0.0486 -0.29456,0.10806 -0.29676,0.14338 -0.34709,0.13699 -0.45816,-0.0581 z"
       style="fill:#0000ff;fill-opacity:1;stroke-width:0.0540288" />
    <path
       id="path6461"
       d="m -72.217438,121.58074 c -0.13009,-0.16538 -0.13807,-0.23355 -0.0427,-0.36407 0.0656,-0.0897 0.077,-0.0888 0.21114,0.0168 0.0843,0.0663 0.22154,0.11152 0.33861,0.11152 h 0.19684 l -0.14423,0.18911 c -0.18174,0.23825 -0.39506,0.25609 -0.55972,0.0468 z"
       style="fill:#0000ff;fill-opacity:1;stroke-width:0.0540288" />
    <path
       id="path6385"
       d="m -27.768223,120.53197 c -0.0189,-0.0306 -0.042,-0.15824 -0.0512,-0.28379 -0.009,-0.12559 -0.0348,-0.3647 -0.0566,-0.53141 l -0.0397,-0.3031 0.18159,-0.0633 c 0.12182,-0.0425 0.18769,-0.045 0.20016,-0.008 0.0103,0.0307 0.0609,0.0558 0.11258,0.0558 0.0824,0 0.0935,0.0576 0.09,0.4636 -0.003,0.39796 -0.0193,0.47501 -0.11202,0.54425 -0.19997,0.14925 -0.28901,0.18366 -0.3249,0.12555 z"
       style="fill:#0000ff;fill-opacity:1;stroke-width:0.0540288" />
    <path
       id="path6377"
       d="m 204.58789,106.23958 c 0,-0.069 0.20738,-0.26065 0.24326,-0.22478 0.0146,0.0146 -0.0343,0.0835 -0.10841,0.15315 -0.0742,0.0697 -0.13485,0.10192 -0.13485,0.0716 z"
       style="fill:#0000ff;fill-opacity:1;stroke-width:0.0540288" />
    <path
       id="path6373"
       d="m 183.98866,110.30531 c 0,-0.0315 0.0243,-0.0422 0.054,-0.0238 0.0297,0.0184 0.054,0.0442 0.054,0.0572 0,0.013 -0.0243,0.0238 -0.054,0.0238 -0.0297,0 -0.054,-0.0258 -0.054,-0.0572 z"
       style="fill:#0000ff;fill-opacity:1;stroke-width:0.0540288" />
    <path
       id="path6343"
       d="m -8.746097,140.146 c -0.0977,-0.0521 -0.160514,-0.11184 -0.139581,-0.1328 0.116797,-0.11678 0.772366,0.0536 0.694009,0.18036 -0.05089,0.0823 -0.360679,0.0558 -0.554428,-0.0476 z"
       style="fill:#0000ff;fill-opacity:1;stroke-width:0.0540288" />
    <path
       id="path6269"
       d="m 241.4491,165.94929 c -0.11887,-0.0217 -0.30123,-0.061 -0.40523,-0.0872 l -0.18909,-0.0477 0.16207,-0.0416 c 0.0891,-0.0229 0.29257,-0.12326 0.45202,-0.22296 0.24232,-0.15149 0.30666,-0.17083 0.39172,-0.11771 0.056,0.035 0.10177,0.0809 0.10177,0.10221 0,0.0333 -0.25786,0.4381 -0.28674,0.45018 -0.006,0.003 -0.10767,-0.0133 -0.22652,-0.0352 z"
       style="fill:#0000ff;fill-opacity:1;stroke-width:0.0540288" />
    <path
       id="path6217"
       d="m 148.50536,124.36529 c -0.0777,-0.0777 -0.0824,-0.10597 -0.0246,-0.14742 0.0517,-0.037 0.0434,-0.0421 -0.0299,-0.0183 -0.15825,0.0515 -0.2498,-0.067 -0.2498,-0.32344 0,-0.45401 0.21831,-0.35334 0.35271,0.16261 0.097,0.37229 0.0841,0.459 -0.0484,0.32648 z"
       style="fill:#0000ff;fill-opacity:1;stroke-width:0.0540288" />
    <path
       id="path6169"
       d="m -87.387525,111.5808 c -0.0676,-0.0473 -0.12008,-0.14102 -0.12008,-0.21429 0,-0.14152 0.1589,-0.51203 0.21961,-0.51203 0.0738,0 0.42874,0.47941 0.42874,0.57909 0,0.22668 -0.29676,0.30938 -0.52827,0.14723 z"
       style="fill:#0000ff;fill-opacity:1;stroke-width:0.0540288" />
    <path
       id="path6151"
       d="m 19.612979,109.25363 c -0.0646,-0.0688 -0.11746,-0.15387 -0.11746,-0.18911 0,-0.0352 -0.0243,-0.064 -0.054,-0.064 -0.0896,0 -0.061,-0.0777 0.0553,-0.15033 0.18864,-0.1178 0.32293,0.002 0.32293,0.28731 0,0.27308 -0.0388,0.29489 -0.2067,0.11618 z"
       style="fill:#0000ff;fill-opacity:1;stroke-width:0.0540288" />
    <path
       id="path6045"
       d="m 272.39448,162.00794 c 0.0595,-0.34946 0.0944,-0.49979 0.11607,-0.49979 0.0891,0 0.25483,0.24666 0.28817,0.42895 l 0.0401,0.21941 h -0.23483 c -0.22628,0 -0.23389,-0.005 -0.20953,-0.14857 z"
       style="fill:#0000ff;fill-opacity:1;stroke-width:0.0540288" />
    <path
       id="path6015"
       d="m 177.08969,129.35382 -0.17078,-0.1526 0.12117,-0.17016 c 0.0666,-0.0936 0.15658,-0.17016 0.19987,-0.17016 0.16425,0 0.25669,0.55488 0.10231,0.61414 -0.0473,0.0181 -0.15376,-0.0329 -0.25257,-0.12122 z"
       style="fill:#0000ff;fill-opacity:1;stroke-width:0.0540288" />
    <path
       id="path5973"
       d="m 37.766386,142.25813 c -0.04,-0.10412 0.19505,-0.33518 0.30253,-0.29743 0.15283,0.0536 0.32542,0.23929 0.29534,0.31772 -0.0383,0.0997 -0.55859,0.0821 -0.59787,-0.0203 z"
       style="fill:#0000ff;fill-opacity:1;stroke-width:0.0540288" />
    <path
       id="path5885"
       d="m 108.65041,100.97546 c -0.0881,-0.1647 -0.0611,-0.3597 0.0724,-0.52166 0.0692,-0.084 0.14141,-0.19527 0.16038,-0.24727 0.0522,-0.14288 0.11994,-0.11594 0.30905,0.12283 0.20764,0.26218 0.19015,0.41152 -0.0663,0.56658 -0.28549,0.17263 -0.41418,0.19414 -0.47551,0.0795 z"
       style="fill:#0000ff;fill-opacity:1;stroke-width:0.0540288" />
    <path
       id="path5781"
       d="m 228.85924,162.67999 c -0.0594,-0.0252 -0.15048,-0.0592 -0.20229,-0.0756 -0.0793,-0.025 -0.0846,-0.0508 -0.0332,-0.16362 0.0786,-0.17258 0.15679,-0.19945 0.39159,-0.13463 0.25374,0.0701 0.28539,0.1383 0.1373,0.29592 -0.1349,0.14359 -0.13719,0.14421 -0.2934,0.0779 z"
       style="fill:#0000ff;fill-opacity:1;stroke-width:0.0540288" />
    <path
       id="path5749"
       d="m 167.01096,155.57898 c -0.0533,-0.0539 -0.11128,-0.19228 -0.12891,-0.30743 -0.0201,-0.13098 -0.0832,-0.25161 -0.16852,-0.32205 -0.14554,-0.12014 -0.12586,-0.23856 0.0396,-0.23856 0.0541,0 0.12853,-0.0365 0.16552,-0.0811 0.037,-0.0446 0.12393,-0.0811 0.19319,-0.0811 0.12282,0 0.40117,0.10087 0.45517,0.16494 0.0149,0.0176 0.0695,0.0478 0.12155,0.0669 0.15754,0.0581 0.1077,0.23522 -0.16207,0.57618 -0.27132,0.34289 -0.35896,0.38065 -0.51557,0.22207 z"
       style="fill:#0000ff;fill-opacity:1;stroke-width:0.0540288" />
    <path
       id="path5741"
       d="m 57.081005,165.34208 c -0.0447,-0.0524 -0.13281,-0.18166 -0.19592,-0.28717 -0.13905,-0.23255 -0.11151,-0.37729 0.11868,-0.62353 0.092,-0.0985 0.2123,-0.24266 0.26729,-0.32048 l 0.0999,-0.14149 0.12166,0.24032 c 0.22161,0.43774 0.22608,1.03378 0.008,1.11515 -0.2915,0.10893 -0.34015,0.11092 -0.41998,0.0172 z"
       style="fill:#0000ff;fill-opacity:1;stroke-width:0.0540288" />
    <path
       id="path5733"
       d="m 77.478622,158.43177 c -0.45025,-0.37069 -0.45704,-0.55649 -0.0204,-0.55649 0.22397,0 0.28333,0.0243 0.41817,0.17109 0.19116,0.20814 0.24043,0.36727 0.16015,0.51725 -0.0914,0.17081 -0.23013,0.13802 -0.55797,-0.13185 z"
       style="fill:#0000ff;fill-opacity:1;stroke-width:0.0540288" />
    <path
       id="path5697"
       d="m -32.384149,143.3856 c -0.0892,-0.0874 -0.18032,-0.15897 -0.20261,-0.159 -0.11572,0 -0.0132,-0.11879 0.18573,-0.21493 0.24232,-0.11708 0.56168,-0.15002 0.50088,-0.0517 -0.0196,0.0317 0.013,0.0704 0.0727,0.086 0.10973,0.0287 0.10656,0.10726 -0.0164,0.41015 -0.0623,0.1533 -0.35019,0.1157 -0.54014,-0.0706 z"
       style="fill:#0000ff;fill-opacity:1;stroke-width:0.0540288" />
    <path
       id="path5497"
       d="m 164.05436,148.39541 c 0.003,-0.29224 -0.0115,-0.65935 -0.0327,-0.81583 -0.0277,-0.20493 -0.0187,-0.30541 0.0322,-0.35922 0.0592,-0.0625 0.0968,-0.0231 0.23115,0.24314 0.0882,0.17481 0.19784,0.44395 0.2436,0.59811 0.0739,0.24907 0.0742,0.28778 0.002,0.34759 -0.0446,0.037 -0.12682,0.15695 -0.18274,0.26658 -0.0559,0.10958 -0.14616,0.21091 -0.20053,0.22513 -0.0911,0.0238 -0.0984,-0.0157 -0.0931,-0.5055 z"
       style="fill:#0000ff;fill-opacity:1;stroke-width:0.0540288" />
    <path
       id="path5449"
       d="m 27.016016,99.236095 c 0,-0.0669 0.036,-0.10807 0.0946,-0.10806 0.052,0 0.16833,-0.0879 0.25852,-0.19531 l 0.16396,-0.19529 -0.0128,0.23089 c -0.0192,0.34389 -0.0436,0.37582 -0.28633,0.37582 -0.18179,0 -0.2178,-0.0179 -0.2178,-0.10805 z"
       style="fill:#0000ff;fill-opacity:1;stroke-width:0.0540288" />
    <path
       id="path5417"
       d="m -37.936831,104.66016 c -0.29082,-0.14327 -0.33479,-0.18473 -0.33479,-0.3155 0,-0.0828 0.0216,-0.15055 0.048,-0.15055 0.0264,0 0.17515,0.0875 0.33057,0.19441 0.15544,0.10694 0.35179,0.22348 0.43635,0.25904 l 0.15371,0.0646 -0.14951,0.0564 c -0.12606,0.0476 -0.20204,0.0306 -0.4843,-0.10849 z"
       style="fill:#0000ff;fill-opacity:1;stroke-width:0.0540288" />
    <path
       id="path5391"
       d="m 110.59015,152.35325 c -0.0529,-0.14023 -0.0443,-0.17278 0.0749,-0.28365 0.0741,-0.0689 0.15609,-0.1806 0.1822,-0.24823 0.0688,-0.17823 0.20122,-0.20819 0.33385,-0.0755 0.10708,0.10706 0.10839,0.11948 0.0225,0.21435 -0.0501,0.0554 -0.0911,0.12733 -0.0911,0.15985 0,0.10138 -0.27507,0.3916 -0.37116,0.3916 -0.0515,0 -0.11752,-0.0692 -0.15118,-0.15838 z"
       style="fill:#0000ff;fill-opacity:1;stroke-width:0.0540288" />
    <path
       id="path5361"
       d="m 19.2682,157.74014 c -0.0132,-0.0223 -0.0247,-0.17848 -0.0257,-0.34711 -0.002,-0.21981 0.0204,-0.31514 0.0767,-0.33678 0.11265,-0.0433 0.16509,0.1749 0.13845,0.57584 -0.009,0.13816 -0.13088,0.20757 -0.18945,0.10805 z"
       style="fill:#0000ff;fill-opacity:1;stroke-width:0.0540288" />
    <path
       id="path5329"
       d="m 26.850522,134.04461 c -0.0403,-0.1052 0.0961,-0.23075 0.25074,-0.23075 0.12359,0 0.12486,0.068 0.003,0.17252 -0.16473,0.14147 -0.21734,0.15353 -0.25392,0.0582 z"
       style="fill:#0000ff;fill-opacity:1;stroke-width:0.0540288" />
    <path
       id="path5307"
       d="m 88.611018,120.62603 c 0.009,-0.0638 0.0592,-0.14231 0.11036,-0.17441 0.0733,-0.046 0.10967,-0.0357 0.17113,0.0484 0.0972,0.133 0.0222,0.24209 -0.16654,0.24209 -0.10459,0 -0.12862,-0.0243 -0.11495,-0.11605 z"
       style="fill:#0000ff;fill-opacity:1;stroke-width:0.0540288" />
    <path
       id="path5283"
       d="m 130.6922,127.38354 c -0.17772,-0.1606 -0.34136,-0.29277 -0.36364,-0.29371 -0.0223,-0.002 -0.0405,-0.0365 -0.0405,-0.0791 0,-0.0425 -0.0486,-0.0928 -0.10805,-0.11169 -0.1293,-0.0411 -0.13341,-0.0748 -0.0275,-0.22616 0.085,-0.12136 0.21897,-0.11748 0.43265,0.0125 0.0594,0.0361 0.17202,0.0805 0.25023,0.0986 0.13357,0.0309 0.1445,0.0577 0.18058,0.44269 0.0211,0.22539 0.0296,0.4186 0.0188,0.42936 -0.0108,0.0108 -0.16497,-0.11186 -0.34267,-0.27248 z"
       style="fill:#0000ff;fill-opacity:1;stroke-width:0.0540288" />
    <path
       id="path5243"
       d="m 221.50281,151.30669 c 0,-0.17958 0.10529,-0.24822 0.44001,-0.28695 l 0.28937,-0.0335 -0.2161,0.22438 c -0.25731,0.26716 -0.51328,0.31507 -0.51328,0.096 z"
       style="fill:#0000ff;fill-opacity:1;stroke-width:0.0540288" />
    <path
       id="path5151"
       d="m -88.139323,162.3402 c -0.0307,-0.16087 -0.007,-0.19035 0.15385,-0.19035 0.1801,0 0.20945,0.0961 0.0658,0.21581 -0.16444,0.13705 -0.18919,0.13417 -0.2197,-0.0254 z"
       style="fill:#0000ff;fill-opacity:1;stroke-width:0.0540288" />
    <path
       id="path5141"
       d="m 141.81888,153.30758 c -0.0522,-0.0629 -0.0428,-0.10249 0.0474,-0.19928 0.0619,-0.0665 0.11253,-0.14054 0.11253,-0.16465 0,-0.10015 0.22028,-0.0337 0.30206,0.0911 0.0844,0.12874 0.0825,0.13985 -0.0393,0.24132 -0.15202,0.12665 -0.33261,0.14012 -0.42274,0.0315 z"
       style="fill:#0000ff;fill-opacity:1;stroke-width:0.0540288" />
    <path
       id="path5105"
       d="m 117.73602,101.84032 c -0.22567,-0.23667 -0.33764,-0.39793 -0.33764,-0.48626 0,-0.0763 0.0315,-0.13219 0.0744,-0.13219 0.16578,0 0.46012,0.167 0.49653,0.28171 0.0212,0.0668 0.0862,0.18585 0.14437,0.26457 0.083,0.11224 0.0934,0.16635 0.0484,0.25059 -0.0317,0.0591 -0.0421,0.12279 -0.0234,0.14156 0.0188,0.0188 0.0118,0.0341 -0.0154,0.0341 -0.0273,0 -0.20151,-0.15936 -0.38721,-0.3541 z"
       style="fill:#0000ff;fill-opacity:1;stroke-width:0.0540288" />
    <path
       id="path5097"
       d="m -25.621506,148.10949 c -0.017,-0.0444 -0.009,-0.0807 0.0182,-0.0807 0.0732,0 0.11872,0.096 0.0621,0.13104 -0.0271,0.0168 -0.0632,-0.006 -0.0802,-0.0503 z"
       style="fill:#0000ff;fill-opacity:1;stroke-width:0.0540288" />
    <path
       id="path5063"
       d="m 269.05766,137.59624 c -0.0213,-0.57455 -0.0262,-0.55838 0.17359,-0.57401 0.15104,-0.0118 0.22632,0.0249 0.41685,0.20309 0.12786,0.11966 0.21859,0.24004 0.20159,0.26754 -0.017,0.0275 -0.16325,0.0885 -0.32504,0.13549 -0.16178,0.047 -0.33153,0.0999 -0.3772,0.1174 -0.0639,0.0245 -0.0846,-0.0101 -0.0898,-0.14951 z"
       style="fill:#0000ff;fill-opacity:1;stroke-width:0.0540288" />
    <path
       id="path4985"
       d="m 70.105328,101.60741 c 0,-0.0297 -0.0108,-0.054 -0.0238,-0.054 -0.0132,0 -0.0388,0.0243 -0.0572,0.054 -0.0184,0.0297 -0.008,0.054 0.0238,0.054 0.0315,0 0.0572,-0.0243 0.0572,-0.054 z"
       style="fill:#0000ff;fill-opacity:1;stroke-width:0.0540288" />
    <path
       id="path4955"
       d="m 72.822962,111.42643 c -0.22019,-0.13653 -0.18265,-0.17902 0.14859,-0.16819 0.32105,0.0104 0.35038,0.0362 0.19836,0.17376 -0.12228,0.11067 -0.16047,0.11005 -0.34695,-0.006 z"
       style="fill:#0000ff;fill-opacity:1;stroke-width:0.0540288" />
    <path
       id="path4951"
       d="m 64.152436,166.35829 c -0.0658,-0.0658 -0.0372,-0.1801 0.045,-0.1801 0.0451,0 0.081,0.048 0.081,0.10806 0,0.10764 -0.0576,0.14055 -0.12607,0.072 z"
       style="fill:#0000ff;fill-opacity:1;stroke-width:0.0540288" />
    <path
       id="path4931"
       d="m 191.63626,128.2836 c 0.12393,-0.0908 0.43623,-0.24235 0.43623,-0.21165 0,0.0413 -0.31773,0.24045 -0.43328,0.27157 l -0.13403,0.0361 z"
       style="fill:#0000ff;fill-opacity:1;stroke-width:0.0540288" />
    <path
       id="path4905"
       d="m -22.440832,159.06636 c 0,-0.0297 0.0379,-0.054 0.0842,-0.054 0.0464,0 0.0692,0.0243 0.0508,0.054 -0.0184,0.0297 -0.0563,0.054 -0.0842,0.054 -0.028,0 -0.0508,-0.0243 -0.0508,-0.054 z"
       style="fill:#0000ff;fill-opacity:1;stroke-width:0.0540288" />
    <path
       id="path4667"
       d="m 28.695249,115.08483 c -0.0232,-0.0377 -0.0277,-0.0831 -0.01,-0.1009 0.0484,-0.0484 0.10107,0.0228 0.075,0.10113 -0.0183,0.0549 -0.031,0.0548 -0.0651,0 z"
       style="fill:#0000ff;fill-opacity:1;stroke-width:0.0540288" />
    <path
       id="path4477"
       d="m 162.61445,136.04382 c -0.0863,-0.0788 -0.18836,-0.15435 -0.22688,-0.16794 -0.0921,-0.0325 0.0707,-0.35164 0.28321,-0.55526 l 0.15149,-0.14515 0.13934,0.44105 c 0.0766,0.24259 0.13933,0.47018 0.13933,0.5058 0,0.12248 -0.32364,0.0703 -0.48649,-0.0785 z"
       style="fill:#0000ff;fill-opacity:1;stroke-width:0.0540288" />
    <path
       id="path4357"
       d="m 16.693846,165.27679 -0.20447,-0.26813 0.13935,-0.18269 c 0.0766,-0.1005 0.13936,-0.22153 0.13936,-0.26897 0,-0.26059 0.33386,-0.0421 0.54496,0.35658 l 0.10913,0.20609 -0.21263,0.21264 c -0.11695,0.11694 -0.23482,0.21263 -0.26191,0.21263 -0.0271,0 -0.14132,-0.12067 -0.25379,-0.26815 z"
       style="fill:#0000ff;fill-opacity:1;stroke-width:0.0540288" />
    <path
       id="path4335"
       d="m -72.919124,128.45855 c 0,-0.0202 0.0234,-0.13244 0.0506,-0.24934 0.0399,-0.17186 0.0308,-0.23918 -0.0471,-0.3512 -0.14618,-0.21026 -0.21176,-0.44803 -0.16123,-0.5846 0.0466,-0.12608 0.20293,-0.16122 0.2973,-0.0668 0.0299,0.03 0.16231,0.0857 0.29416,0.12386 0.28709,0.0831 0.31675,0.17173 0.16346,0.48836 -0.0617,0.12755 -0.11226,0.26821 -0.11226,0.31258 0,0.13445 -0.1253,0.26103 -0.31067,0.31388 -0.0966,0.0275 -0.17501,0.0335 -0.17431,0.0133 z"
       style="fill:#0000ff;fill-opacity:1;stroke-width:0.0540288" />
    <path
       id="path4201"
       d="m 43.649556,136.03012 c -0.0198,-0.0198 -0.036,-0.0806 -0.036,-0.13508 0,-0.11932 0.24282,-0.14012 0.28716,-0.0246 0.0495,0.12899 -0.15305,0.25777 -0.25114,0.15968 z"
       style="fill:#0000ff;fill-opacity:1;stroke-width:0.0540288" />
    <path
       id="path4173"
       d="m -89.36173,148.29272 c -0.0337,-0.0939 0.0632,-0.26675 0.12732,-0.22712 0.0289,0.0179 0.046,0.005 0.0378,-0.0298 -0.008,-0.0343 0.0398,-0.0999 0.10671,-0.14568 0.11286,-0.0773 0.12156,-0.0758 0.12156,0.021 0,0.10544 -0.25062,0.44924 -0.32749,0.44924 -0.0229,0 -0.0526,-0.0304 -0.0659,-0.0675 z"
       style="fill:#0000ff;fill-opacity:1;stroke-width:0.0540288" />
    <path
       id="path4125"
       d="m -31.723336,105.53524 -0.15694,-0.12515 0.118,-0.10103 c 0.0649,-0.0556 0.11798,-0.13472 0.11798,-0.1759 0,-0.0515 0.0394,-0.065 0.12615,-0.0433 0.0694,0.0174 0.19908,0.0108 0.2882,-0.0147 0.25828,-0.0741 0.34234,0.009 0.34042,0.33522 -0.002,0.21719 -0.0142,0.2595 -0.0567,0.18642 -0.0561,-0.0963 -0.2961,-0.13195 -0.32886,-0.0489 -0.0459,0.11647 -0.29515,0.10943 -0.44825,-0.0127 z"
       style="fill:#0000ff;fill-opacity:1;stroke-width:0.0540288" />
    <path
       id="path4085"
       d="m 89.842311,115.31284 c -0.0437,-0.0276 -0.063,-0.0667 -0.0429,-0.0869 0.0495,-0.0495 0.20338,0.0135 0.20338,0.0831 0,0.0686 -0.0559,0.0699 -0.16052,0.004 z"
       style="fill:#0000ff;fill-opacity:1;stroke-width:0.0540288" />
    <path
       id="path4065"
       d="m -91.405002,125.09952 c 0.03755,-0.0453 0.07947,-0.0712 0.09306,-0.0576 0.03749,0.0375 -0.03865,0.13996 -0.103951,0.13996 -0.03581,0 -0.03173,-0.031 0.01094,-0.0823 z"
       style="fill:#0000ff;fill-opacity:1;stroke-width:0.0540288" />
    <path
       id="path4047"
       d="m 39.03308,149.56802 c -0.003,-0.0948 0.0183,-0.18639 0.0459,-0.20348 0.089,-0.055 0.10334,0.0472 0.0299,0.21379 l -0.0714,0.1621 -0.005,-0.17241 z"
       style="fill:#0000ff;fill-opacity:1;stroke-width:0.0540288" />
    <path
       id="path3987"
       d="m -10.963863,127.99331 c -0.23388,-0.45192 -0.072,-0.5877 0.29355,-0.24622 l 0.17037,0.15913 -0.15829,0.1294 c -0.0871,0.0712 -0.17098,0.13026 -0.18652,0.13132 -0.0156,0.002 -0.0691,-0.0771 -0.11911,-0.17363 z"
       style="fill:#0000ff;fill-opacity:1;stroke-width:0.0540288" />
    <path
       id="path3963"
       d="m 97.433654,113.98702 c 0.048,-0.22814 0.12245,-0.30764 0.18913,-0.20217 0.0733,0.11588 0.0644,0.19616 -0.0323,0.29286 -0.13724,0.13722 -0.19751,0.10237 -0.15683,-0.0907 z"
       style="fill:#0000ff;fill-opacity:1;stroke-width:0.0540288" />
    <path
       id="path3961"
       d="m 164.10857,105.71515 c -0.0209,-0.0209 -0.0379,-0.0842 -0.0379,-0.1407 0,-0.0757 0.032,-0.0983 0.12155,-0.0856 0.0795,0.0113 0.12156,0.0545 0.12156,0.12458 0,0.10717 -0.13356,0.17333 -0.20522,0.10168 z"
       style="fill:#0000ff;fill-opacity:1;stroke-width:0.0540288" />
    <path
       id="path3935"
       d="m -65.15937,161.7429 c -0.0767,-0.071 -0.20845,-0.15776 -0.29294,-0.19276 -0.13802,-0.0572 -0.27567,-0.24804 -0.27567,-0.38226 0,-0.0884 0.61242,-0.35414 0.7699,-0.33412 0.11829,0.0151 0.15,0.0484 0.15548,0.16389 0.0106,0.22253 0.0317,0.35211 0.074,0.45565 0.0266,0.0649 0.0137,0.0945 -0.0414,0.0945 -0.0457,0 -0.094,0.0695 -0.11248,0.16209 -0.0392,0.19586 -0.0941,0.2024 -0.27694,0.033 z"
       style="fill:#0000ff;fill-opacity:1;stroke-width:0.0540288" />
    <path
       id="path3865"
       d="m 256.61233,114.87252 c -0.0786,-0.012 -0.18356,-0.0668 -0.23318,-0.12162 -0.086,-0.0951 -0.0798,-0.10142 0.13368,-0.1375 0.18866,-0.0319 0.24418,-0.0187 0.35305,0.0836 0.19985,0.18774 0.13189,0.2348 -0.25355,0.17557 z"
       style="fill:#0000ff;fill-opacity:1;stroke-width:0.0540288" />
    <path
       id="path3845"
       d="m 72.808245,166.69577 c -0.0606,-0.0383 -0.078,-0.14239 -0.0699,-0.41789 0.0192,-0.651 0.051,-0.77009 0.15949,-0.59647 0.0533,0.0855 0.0743,0.18048 0.0927,0.4222 0.008,0.1059 0.0335,0.22285 0.0563,0.25989 0.0419,0.0678 -0.0607,0.3857 -0.12393,0.38414 -0.0187,0 -0.0703,-0.0238 -0.11472,-0.0519 z"
       style="fill:#0000ff;fill-opacity:1;stroke-width:0.0540288" />
    <path
       id="path3773"
       d="m 66.685785,157.87332 c 0.0184,-0.0297 0.0563,-0.054 0.0842,-0.054 0.028,0 0.0508,0.0243 0.0508,0.054 0,0.0297 -0.0379,0.054 -0.0842,0.054 -0.0463,0 -0.0692,-0.0243 -0.0508,-0.054 z"
       style="fill:#0000ff;fill-opacity:1;stroke-width:0.0540288" />
    <path
       id="path3709"
       d="m 137.76901,123.36022 c -0.0183,-0.0681 -0.0335,-0.20279 -0.0339,-0.29936 -0.002,-0.1413 0.0209,-0.17559 0.11016,-0.17559 0.0996,0 0.10923,0.0283 0.0945,0.27938 -0.0172,0.29406 -0.11456,0.40555 -0.1708,0.19557 z"
       style="fill:#0000ff;fill-opacity:1;stroke-width:0.0540288" />
    <path
       id="path3689"
       d="m 28.33696,161.29299 c -0.0431,-0.0273 -0.0962,-0.0387 -0.11783,-0.0253 -0.0216,0.0133 -0.0547,0 -0.0733,-0.0306 -0.0511,-0.0827 0.0993,-0.0659 0.21874,0.0244 0.11577,0.0876 0.0962,0.10985 -0.0276,0.0315 z"
       style="fill:#0000ff;fill-opacity:1;stroke-width:0.0540288" />
    <path
       id="path3681"
       d="m 159.55402,134.56249 c -0.1179,-0.13025 -0.23841,-0.43162 -0.33049,-0.82635 l -0.0773,-0.33109 0.22365,0.0357 c 0.27314,0.0436 0.34738,0.10128 0.41306,0.32051 0.028,0.0934 0.0751,0.24788 0.10465,0.34337 0.0472,0.15236 0.0353,0.19685 -0.0969,0.36324 -0.14224,0.17899 -0.15552,0.1843 -0.23672,0.0945 z"
       style="fill:#0000ff;fill-opacity:1;stroke-width:0.0540288" />
    <path
       id="path3665"
       d="m 204.77113,131.23602 c -0.0492,-0.0543 -0.0894,-0.12295 -0.0894,-0.15245 0,-0.0295 -0.046,-0.14808 -0.10209,-0.26352 -0.14583,-0.29981 -0.0933,-0.38062 0.1344,-0.20693 0.16891,0.12884 0.18381,0.16375 0.18381,0.43095 0,0.15989 -0.008,0.29074 -0.0186,0.29074 -0.0103,0 -0.0589,-0.0445 -0.10806,-0.0988 z"
       style="fill:#0000ff;fill-opacity:1;stroke-width:0.0540288" />
    <path
       id="path3637"
       d="m -6.4461073,163.98921 c 0.052,-0.0137 0.13711,-0.0137 0.18911,0 0.052,0.0135 0.009,0.0247 -0.0946,0.0247 -0.10401,0 -0.14654,-0.0111 -0.0945,-0.0247 z"
       style="fill:#0000ff;fill-opacity:1;stroke-width:0.0540288" />
    <path
       id="path3633"
       d="m 206.38086,119.52119 c -0.0398,-0.0749 -0.0624,-0.1946 -0.0502,-0.2659 0.0218,-0.12756 0.0232,-0.12711 0.0883,0.0289 0.0364,0.0872 0.0589,0.20685 0.0502,0.2659 -0.0146,0.0976 -0.0225,0.0949 -0.0883,-0.0289 z"
       style="fill:#0000ff;fill-opacity:1;stroke-width:0.0540288" />
    <path
       id="path3631"
       d="m 127.71804,130.10298 c -0.0734,-0.11205 -0.076,-0.16442 -0.0181,-0.3647 0.0372,-0.12862 0.11173,-0.29182 0.16554,-0.36272 0.0538,-0.0709 0.0982,-0.18028 0.0986,-0.24311 0,-0.0629 0.0161,-0.17196 0.035,-0.24247 0.0306,-0.1142 0.0454,-0.0994 0.13595,0.13507 0.0917,0.23754 0.11829,0.70261 0.0444,0.77653 -0.0149,0.0149 -0.0734,0.11819 -0.13007,0.22962 -0.11961,0.23514 -0.21132,0.255 -0.33137,0.0718 z"
       style="fill:#0000ff;fill-opacity:1;stroke-width:0.0540288" />
    <path
       id="path3621"
       d="m -15.928983,162.71849 c 0.0184,-0.0297 0.0577,-0.054 0.0874,-0.054 0.0297,0 0.039,0.0243 0.0207,0.054 -0.0184,0.0297 -0.0577,0.054 -0.0874,0.054 -0.0297,0 -0.039,-0.0243 -0.0207,-0.054 z"
       style="fill:#0000ff;fill-opacity:1;stroke-width:0.0540288" />
    <path
       id="path3571"
       d="m 158.60509,102.64687 c 0,-0.14659 0.0188,-0.16838 0.14476,-0.16838 0.16485,0 0.5036,0.11156 0.5036,0.16586 0,0.0199 -0.079,0.0513 -0.17559,0.0698 -0.0966,0.0185 -0.24246,0.0489 -0.32419,0.0674 -0.13749,0.0311 -0.14858,0.0211 -0.14858,-0.1347 z"
       style="fill:#0000ff;fill-opacity:1;stroke-width:0.0540288" />
    <path
       id="path3559"
       d="m 189.8611,165.44931 c -0.0383,-0.0243 -0.14694,-0.0445 -0.24139,-0.045 -0.0945,-0.002 -0.21306,-0.0422 -0.26358,-0.0927 -0.0864,-0.0864 -0.0819,-0.0966 0.0775,-0.17208 0.16163,-0.0765 0.1797,-0.073 0.39437,0.0783 0.12374,0.0872 0.23367,0.18489 0.24427,0.2171 0.0227,0.0688 -0.11108,0.0778 -0.21122,0.0144 z"
       style="fill:#0000ff;fill-opacity:1;stroke-width:0.0540288" />
    <path
       id="path3479"
       d="m -88.427519,120.87373 c -0.0959,-0.25109 -0.0929,-0.52708 0.006,-0.55953 0.0552,-0.0181 0.0759,0.0589 0.16644,0.61921 0.0412,0.25512 -0.0665,0.21784 -0.17244,-0.0597 z"
       style="fill:#0000ff;fill-opacity:1;stroke-width:0.0540288" />
    <path
       id="path3419"
       d="m 62.98836,153.15428 c -0.0978,-0.0166 -0.17678,-0.0483 -0.1756,-0.0706 0.002,-0.0223 0.002,-0.0648 0.002,-0.0946 0,-0.10202 0.31761,-0.0592 0.37646,0.0508 0.069,0.12892 0.026,0.15313 -0.20299,0.11438 z"
       style="fill:#0000ff;fill-opacity:1;stroke-width:0.0540288" />
    <path
       id="path3383"
       d="m 89.469595,111.65742 c -0.0595,-0.16461 -0.0551,-0.19699 0.0395,-0.29164 0.135,-0.13498 0.17859,-0.0464 0.11533,0.23413 -0.0604,0.26793 -0.0766,0.27392 -0.15483,0.0575 z"
       style="fill:#0000ff;fill-opacity:1;stroke-width:0.0540288" />
    <path
       id="path3273"
       d="m 119.58355,110.14191 c 0.0221,-0.12125 0.0682,-0.24835 0.10229,-0.28244 0.0975,-0.0974 0.24547,0.028 0.26504,0.22475 0.014,0.14154 -0.007,0.17925 -0.1251,0.22416 -0.25504,0.097 -0.28647,0.0754 -0.24223,-0.16647 z"
       style="fill:#0000ff;fill-opacity:1;stroke-width:0.0540288" />
    <path
       id="path3223"
       d="m -90.765513,127.88908 c 0.0184,-0.0297 0.0441,-0.054 0.0572,-0.054 0.0132,0 0.0238,0.0243 0.0238,0.054 0,0.0297 -0.0258,0.054 -0.0572,0.054 -0.0315,0 -0.0422,-0.0243 -0.0238,-0.054 z"
       style="fill:#0000ff;fill-opacity:1;stroke-width:0.0540288" />
    <path
       id="path2895"
       d="m 148.57231,143.08947 c 0,-0.0297 0.0243,-0.054 0.054,-0.054 0.0297,0 0.0541,0.0243 0.0541,0.054 0,0.0297 -0.0243,0.054 -0.0541,0.054 -0.0297,0 -0.054,-0.0243 -0.054,-0.054 z"
       style="fill:#0000ff;fill-opacity:1;stroke-width:0.0540288" />
    <path
       id="path2893"
       d="m 122.76871,161.71351 c 0.003,-0.0629 0.0154,-0.0757 0.0326,-0.0326 0.0156,0.039 0.0137,0.0856 -0.005,0.10357 -0.0179,0.0179 -0.0307,-0.0139 -0.0284,-0.0709 z"
       style="fill:#0000ff;fill-opacity:1;stroke-width:0.0540288" />
    <path
       id="path2835"
       d="m -38.147159,138.92377 c -0.0156,-0.0156 -0.11661,-0.0317 -0.22449,-0.0357 -0.14249,-0.005 -0.18185,-0.0246 -0.14395,-0.0702 0.0805,-0.097 0.40249,-0.0635 0.42329,0.044 0.0176,0.0912 -0.003,0.11413 -0.0548,0.062 z"
       style="fill:#0000ff;fill-opacity:1;stroke-width:0.0540288" />
    <path
       id="path2829"
       d="m 109.52589,153.71206 c -0.0207,-0.0207 -0.1631,-0.0546 -0.2682,-0.0639 -0.0259,-0.002 -0.0188,-0.0382 0.0158,-0.0799 0.0539,-0.0649 0.0856,-0.0644 0.22166,0.003 0.18619,0.0929 0.2425,0.16241 0.13151,0.16241 -0.0433,0 -0.0886,-0.01 -0.10073,-0.0221 z"
       style="fill:#0000ff;fill-opacity:1;stroke-width:0.0540288" />
    <path
       id="path2811"
       d="m 21.133852,161.07693 c -0.18795,-0.0878 -0.43977,-0.33837 -0.43977,-0.4376 0,-0.11552 0.0308,-0.10958 0.23358,0.0451 0.0948,0.0723 0.23845,0.16574 0.31922,0.20766 0.12254,0.0636 0.1359,0.0901 0.0807,0.16031 -0.0528,0.0671 -0.092,0.0721 -0.19372,0.0245 z"
       style="fill:#0000ff;fill-opacity:1;stroke-width:0.0540288" />
    <path
       id="path2591"
       d="m -72.268645,144.71856 c -0.10683,-0.11467 -0.1421,-0.20593 -0.0796,-0.20593 0.0787,0 0.24278,0.12117 0.29426,0.21736 0.0813,0.15188 -0.07,0.14383 -0.21467,-0.0113 z"
       style="fill:#0000ff;fill-opacity:1;stroke-width:0.0540288" />
    <path
       id="path2581"
       d="m 27.564885,158.20393 c -0.0345,-0.0345 -0.0627,-0.10511 -0.0627,-0.1569 0,-0.15276 0.21885,-0.47854 0.32146,-0.47854 0.0782,0 0.0937,0.0464 0.0892,0.26603 -0.005,0.22582 -0.0266,0.2786 -0.14534,0.3491 -0.10619,0.0631 -0.15497,0.0679 -0.20261,0.0203 z"
       style="fill:#0000ff;fill-opacity:1;stroke-width:0.0540288" />
    <path
       id="path2565"
       d="m 259.5229,115.94073 c -0.019,-0.019 -0.0223,-0.0544 -0.007,-0.0787 0.0337,-0.0545 0.18591,-0.002 0.18591,0.065 0,0.0554 -0.12715,0.0652 -0.17865,0.0137 z"
       style="fill:#0000ff;fill-opacity:1;stroke-width:0.0540288" />
    <path
       id="path2487"
       d="m -21.441379,105.6656 c -0.56674,-0.28343 -0.6077,-0.32849 -0.66805,-0.7349 -0.0287,-0.19295 -0.017,-0.22933 0.0919,-0.28762 0.11011,-0.0589 0.18253,-0.0373 0.62059,0.18526 0.27274,0.13858 0.4959,0.27034 0.4959,0.29282 0,0.0225 -0.0851,0.1285 -0.18911,0.23558 -0.104,0.10711 -0.18909,0.2188 -0.18909,0.24823 0,0.0799 -0.0707,0.10633 -0.16209,0.0606 z"
       style="fill:#0000ff;fill-opacity:1;stroke-width:0.0540288" />
    <path
       id="path2483"
       d="m 234.66229,143.03849 c 0,-0.10057 0.21835,-0.42248 0.32545,-0.4798 0.15354,-0.0822 0.29048,-0.0636 0.3607,0.0488 0.082,0.13131 0.0118,0.22642 -0.28013,0.37935 -0.23754,0.12449 -0.40602,0.14592 -0.40602,0.0517 z"
       style="fill:#0000ff;fill-opacity:1;stroke-width:0.0540288" />
    <path
       id="path2481"
       d="m -29.325627,136.48562 c -0.0184,-0.0297 -0.008,-0.054 0.0238,-0.054 0.0315,0 0.0572,0.0243 0.0572,0.054 0,0.0297 -0.0106,0.054 -0.0238,0.054 -0.0132,0 -0.0388,-0.0243 -0.0572,-0.054 z"
       style="fill:#0000ff;fill-opacity:1;stroke-width:0.0540288" />
    <path
       id="path2455"
       d="m 185.9886,156.69729 c 0,-0.0467 -0.10496,-0.1927 -0.33768,-0.46975 -0.0817,-0.0973 -0.14859,-0.1951 -0.14859,-0.21741 0,-0.0622 0.22392,-0.24233 0.30129,-0.24233 0.0378,0 0.1389,-0.0591 0.22476,-0.13136 l 0.15611,-0.13138 0.26419,0.26906 0.26421,0.26904 -0.13252,0.24507 c -0.0905,0.16737 -0.19997,0.2779 -0.34528,0.34859 -0.24225,0.11784 -0.24649,0.11889 -0.24649,0.0605 z"
       style="fill:#0000ff;fill-opacity:1;stroke-width:0.0540288" />
    <path
       id="path2439"
       d="m -41.519899,131.41623 c -0.10111,-0.0588 -0.13035,-0.21179 -0.0405,-0.21179 0.0297,0 0.0541,-0.0359 0.0541,-0.0798 0,-0.0439 0.0618,-0.12029 0.13735,-0.1698 0.13062,-0.0856 0.14257,-0.0844 0.24314,0.0235 0.14138,0.15176 0.1345,0.19231 -0.0605,0.35637 -0.18535,0.15594 -0.19972,0.15945 -0.33355,0.0815 z"
       style="fill:#0000ff;fill-opacity:1;stroke-width:0.0540288" />
    <path
       id="path2433"
       d="m 1.8055005,158.99943 c -0.35703,-0.0939 -0.39885,-0.26281 -0.13609,-0.54966 0.24938,-0.27227 0.4299,-0.25536 0.60279,0.0564 l 0.12386,0.22342 -0.11968,0.13327 c -0.15488,0.17244 -0.24024,0.19719 -0.47088,0.13655 z"
       style="fill:#0000ff;fill-opacity:1;stroke-width:0.0540288" />
    <path
       id="path2417"
       d="m 39.0845,116.36666 c 0,-0.0297 0.0257,-0.054 0.0572,-0.054 0.0315,0 0.0422,0.0243 0.0238,0.054 -0.0184,0.0297 -0.0441,0.054 -0.0572,0.054 -0.0132,0 -0.0238,-0.0243 -0.0238,-0.054 z"
       style="fill:#0000ff;fill-opacity:1;stroke-width:0.0540288" />
    <path
       id="path2411"
       d="m 223.90361,107.15954 c 0,-0.0752 -0.0365,-0.15076 -0.0811,-0.16787 -0.0446,-0.0172 -0.0811,-0.0622 -0.0811,-0.10023 0,-0.0805 0.37713,-0.67571 0.42817,-0.67571 0.0189,0 0.17842,0.14549 0.35438,0.32331 l 0.31993,0.32327 -0.15953,0.16686 c -0.12188,0.12749 -0.19248,0.1603 -0.29919,0.13909 -0.0768,-0.0152 -0.20723,0.007 -0.28982,0.0501 -0.19408,0.10069 -0.19185,0.10136 -0.19185,-0.0589 z"
       style="fill:#0000ff;fill-opacity:1;stroke-width:0.0540288" />
    <path
       id="path2377"
       d="m 116.61593,124.56589 c -0.0576,-0.0422 -0.0819,-0.0763 -0.0539,-0.0758 0.0747,0.002 0.214,0.0972 0.18427,0.1269 -0.014,0.014 -0.0727,-0.009 -0.13033,-0.0511 z"
       style="fill:#0000ff;fill-opacity:1;stroke-width:0.0540288" />
    <path
       id="path2353"
       d="m 102.59821,166.30474 c -0.13227,-0.14077 -0.1518,-0.31835 -0.0468,-0.42466 0.0388,-0.0393 0.0855,-0.11093 0.10379,-0.1592 0.0454,-0.11992 0.30186,-0.113 0.36764,0.01 0.0429,0.0801 0.008,0.1338 -0.19149,0.29747 -0.22298,0.18272 -0.23565,0.20569 -0.14863,0.26931 0.0523,0.0383 0.0811,0.0836 0.0639,0.1008 -0.0172,0.0172 -0.084,-0.025 -0.14849,-0.0936 z"
       style="fill:#0000ff;fill-opacity:1;stroke-width:0.0540288" />
    <path
       id="path2311"
       d="m 270.99314,124.38535 c -0.049,-0.0793 0.1261,-0.19507 0.1933,-0.12784 0.0407,0.0407 0.0252,0.0749 -0.053,0.11672 -0.0622,0.0332 -0.12358,0.0381 -0.14027,0.0111 z"
       style="fill:#0000ff;fill-opacity:1;stroke-width:0.0540288" />
    <path
       id="path2239"
       d="m 48.909017,98.942517 c -0.0608,-0.0608 -0.0403,-0.16816 0.0494,-0.25779 0.11304,-0.11303 0.18473,-0.0607 0.18473,0.13491 0,0.11806 -0.0254,0.15889 -0.099,0.15889 -0.0545,0 -0.11525,-0.0161 -0.13507,-0.036 z"
       style="fill:#0000ff;fill-opacity:1;stroke-width:0.0540288" />
    <path
       id="path2211"
       d="m 69.011232,139.49908 c -0.13981,-0.0536 -0.16042,-0.0844 -0.1327,-0.19821 0.0428,-0.17571 0.16231,-0.19407 0.3422,-0.0526 0.11841,0.0931 0.13465,0.13294 0.089,0.21818 -0.0634,0.11839 -0.0721,0.11933 -0.29855,0.0326 z"
       style="fill:#0000ff;fill-opacity:1;stroke-width:0.0540288" />
    <path
       id="path2201"
       d="m 187.95859,127.32255 c -0.0179,-0.0468 -0.0326,-0.13 -0.0326,-0.18489 0,-0.0549 -0.0324,-0.13213 -0.0719,-0.17171 -0.0396,-0.0396 -0.0877,-0.18717 -0.10701,-0.32802 -0.0313,-0.2283 -0.0239,-0.2561 0.0681,-0.2561 0.0567,0 0.13529,0.0317 0.17456,0.0705 0.0392,0.0388 0.11256,0.0862 0.16292,0.1052 0.10247,0.0388 0.23669,0.42177 0.19022,0.54286 -0.0166,0.0431 -0.10239,0.12987 -0.19079,0.19281 -0.14027,0.0999 -0.16487,0.10362 -0.19338,0.0293 z"
       style="fill:#0000ff;fill-opacity:1;stroke-width:0.0540288" />
    <path
       id="path2199"
       d="m 226.46992,130.72713 c -0.11868,-0.11986 -0.20603,-0.24717 -0.19414,-0.28288 0.0293,-0.088 0.68857,-0.30826 0.8236,-0.27523 0.0911,0.0223 0.32989,0.12048 0.39794,0.16365 0.0387,0.0246 -0.31043,0.41148 -0.46084,0.51068 -0.22403,0.14768 -0.32599,0.12678 -0.56656,-0.11622 z"
       style="fill:#0000ff;fill-opacity:1;stroke-width:0.0540288" />
    <path
       id="path2163"
       d="m -13.454547,117.95158 c -0.0156,-0.0594 -0.04973,-0.10807 -0.07599,-0.10807 -0.08524,0 -0.476323,-0.42593 -0.508392,-0.55367 -0.01716,-0.0683 -0.0087,-0.18444 0.01878,-0.25801 l 0.04992,-0.13381 0.186303,0.20261 c 0.138882,0.15101 0.22923,0.2026 0.354903,0.2026 0.09269,0 0.183571,0.0243 0.201953,0.054 0.01839,0.0297 0.141368,0.054 0.273329,0.054 0.214616,0 0.239952,0.0132 0.239952,0.12477 0,0.16005 -0.08507,0.26162 -0.340789,0.40681 -0.255951,0.14532 -0.363638,0.14768 -0.399974,0.009 z"
       style="fill:#0000ff;fill-opacity:1;stroke-width:0.0540288" />
    <path
       id="path2155"
       d="m 30.019131,131.05124 c -0.0449,-0.0719 -0.0506,-0.13967 -0.017,-0.20263 0.0278,-0.052 0.0648,-0.13101 0.0821,-0.17557 0.0624,-0.16012 0.22214,-0.39242 0.2743,-0.39876 0.0653,-0.008 0.18109,0.31768 0.18524,0.52111 0.003,0.11224 -0.0406,0.17598 -0.17254,0.25643 -0.22005,0.13417 -0.26805,0.13408 -0.35216,-0.002 z"
       style="fill:#0000ff;fill-opacity:1;stroke-width:0.0540288" />
    <path
       id="path2153"
       d="m 8.3205582,149.29727 c -0.11838,-0.42626 0.004,-0.46426 0.16565,-0.0516 0.0981,0.24977 0.098,0.25419 -0.005,0.25419 -0.0749,0 -0.12061,-0.0576 -0.16089,-0.2026 z"
       style="fill:#0000ff;fill-opacity:1;stroke-width:0.0540288" />
    <path
       id="path2151"
       d="m 195.28011,114.45777 c -0.13404,-0.21465 0.0951,-0.60258 0.47639,-0.80666 0.1015,-0.0543 0.14448,-0.0476 0.26315,0.041 0.17049,0.1273 0.17833,0.19558 0.0522,0.45383 -0.19057,0.39019 -0.63379,0.56479 -0.79174,0.31187 z"
       style="fill:#0000ff;fill-opacity:1;stroke-width:0.0540288" />
    <path
       id="path2127"
       d="m -0.16790004,162.88765 c 0,-0.0709 0.0422,-0.12735 0.10806,-0.14457 0.0593999965,-0.0156 0.10805,-0.0469 0.10805,-0.0697 0,-0.0228 0.0486,-0.0541 0.10806,-0.0697 0.13799,-0.0361 0.13595,-0.0146 -0.0117,0.12295 -0.0658,0.0613 -0.14967,0.1 -0.18635,0.0859 -0.039,-0.0149 -0.0551,0.005 -0.0387,0.0473 0.0154,0.04 0.002,0.0889 -0.0298,0.10849 -0.0341,0.0211 -0.0577,-0.012 -0.0577,-0.0806 z"
       style="fill:#0000ff;fill-opacity:1;stroke-width:0.0540288" />
    <path
       id="path2119"
       d="m 151.91631,118.59929 c -0.13564,-0.13373 -0.26964,-0.24313 -0.29779,-0.24313 -0.0282,0 -0.0364,-0.024 -0.0182,-0.0534 0.0193,-0.0313 0.1905,0.026 0.41375,0.13843 0.37003,0.18635 0.3781,0.19469 0.28602,0.29645 -0.0521,0.0576 -0.10429,0.10469 -0.11593,0.10469 -0.0116,0 -0.13218,-0.1094 -0.26783,-0.24312 z"
       style="fill:#0000ff;fill-opacity:1;stroke-width:0.0540288" />
    <path
       id="path2107"
       d="m 255.82276,140.71004 c -0.11533,-0.16467 -0.10839,-0.18877 0.0829,-0.28769 0.15461,-0.0799 0.17465,-0.0794 0.27014,0.007 0.13799,0.12487 0.12994,0.2087 -0.03,0.31353 -0.17569,0.1151 -0.22276,0.11032 -0.32303,-0.0328 z"
       style="fill:#0000ff;fill-opacity:1;stroke-width:0.0540288" />
    <path
       id="path2085"
       d="m 63.01503,105.38952 c 0,-0.0563 0.0369,-0.14945 0.082,-0.20713 0.0774,-0.099 0.0812,-0.0945 0.0675,0.0801 -0.0151,0.19285 -0.14952,0.30708 -0.14952,0.12707 z"
       style="fill:#0000ff;fill-opacity:1;stroke-width:0.0540288" />
    <path
       id="path2067"
       d="m -52.29922,153.45645 c -0.0355,-0.1356 -0.0115,-0.15527 0.15119,-0.12416 0.086,0.0164 0.1338,0.062 0.1338,0.12734 0,0.14261 -0.24757,0.13985 -0.28499,-0.003 z"
       style="fill:#0000ff;fill-opacity:1;stroke-width:0.0540288" />
    <path
       id="path2065"
       d="m 192.81825,134.73173 c -0.0183,-0.0183 0.0293,-0.15301 0.10586,-0.29936 0.13248,-0.25335 0.14392,-0.26176 0.2391,-0.17563 0.10344,0.0936 0.0999,0.11129 -0.0721,0.35969 -0.0986,0.14246 -0.20202,0.18614 -0.27286,0.1153 z"
       style="fill:#0000ff;fill-opacity:1;stroke-width:0.0540288" />
    <path
       id="path2033"
       d="m -1.3595224,150.95087 c 0.0172,-0.0446 0.0558,-0.081 0.086,-0.081 0.0316,0 0.0263,0.0343 -0.0123,0.081 -0.037,0.0446 -0.0757,0.081 -0.086,0.081 -0.0103,0 -0.005,-0.0365 0.0123,-0.081 z"
       style="fill:#0000ff;fill-opacity:1;stroke-width:0.0540288" />
    <path
       id="path1981"
       d="m -27.051818,103.21801 c 0,-0.0297 0.0258,-0.054 0.0572,-0.054 0.0315,0 0.0422,0.0243 0.0238,0.054 -0.0184,0.0297 -0.0441,0.054 -0.0572,0.054 -0.013,0 -0.0238,-0.0243 -0.0238,-0.054 z"
       style="fill:#0000ff;fill-opacity:1;stroke-width:0.0540288" />
    <path
       id="path1953"
       d="m 233.83141,128.94614 c -0.0683,-0.19591 0.014,-0.28244 0.12473,-0.13107 0.0552,0.0755 0.0581,0.11953 0.0117,0.18101 -0.0337,0.0447 -0.0654,0.0885 -0.0703,0.0975 -0.005,0.009 -0.0347,-0.0574 -0.0661,-0.14741 z"
       style="fill:#0000ff;fill-opacity:1;stroke-width:0.0540288" />
    <path
       id="path1915"
       d="m 255.78547,121.06537 c 0,-0.11986 0.16372,-0.23894 0.3285,-0.23894 0.13893,0 0.15117,0.0122 0.0983,0.0967 -0.0787,0.12596 -0.4268,0.24199 -0.4268,0.14225 z"
       style="fill:#0000ff;fill-opacity:1;stroke-width:0.0540288" />
    <path
       id="path1873"
       d="m 261.08094,104.58692 c 0,-0.0877 0.0219,-0.21539 0.0486,-0.28366 0.0267,-0.0683 0.076,-0.22633 0.10948,-0.35128 0.11349,-0.4234 0.45103,-0.68194 0.64154,-0.49141 0.13652,0.13652 0.0761,0.21943 -0.13157,0.18048 -0.1789,-0.0335 -0.19383,-0.027 -0.16766,0.0731 0.0158,0.0605 -0.002,0.13496 -0.0384,0.16559 -0.0601,0.0499 -0.16288,0.26154 -0.27663,0.5696 -0.0219,0.0594 -0.0346,0.15062 -0.0282,0.20261 0.007,0.0547 -0.0239,0.0945 -0.0727,0.0945 -0.0575,0 -0.0844,-0.0509 -0.0844,-0.15954 z"
       style="fill:#0000ff;fill-opacity:1;stroke-width:0.0540288" />
    <path
       id="path1837"
       d="m -11.305533,159.1241 c 0,-0.104 0.007,-0.18911 0.0156,-0.18911 0.009,0 0.10568,0.0459 0.21578,0.10207 l 0.20021,0.10205 -0.13285,0.087 c -0.21544,0.14119 -0.29871,0.11272 -0.29871,-0.10205 z"
       style="fill:#0000ff;fill-opacity:1;stroke-width:0.0540288" />
    <path
       id="path1835"
       d="m 210.00319,141.52422 c 0,-0.0297 0.0243,-0.0691 0.0541,-0.0874 0.0297,-0.0184 0.054,-0.009 0.054,0.0206 0,0.0297 -0.0243,0.0691 -0.054,0.0874 -0.0297,0.0184 -0.0541,0.009 -0.0541,-0.0206 z"
       style="fill:#0000ff;fill-opacity:1;stroke-width:0.0540288" />
    <path
       id="path1831"
       d="m -53.790433,130.60508 c 0,-0.0816 -0.27015,-0.34113 -0.49976,-0.48004 -0.2303,-0.13936 -0.23235,-0.14564 -0.12025,-0.37035 0.11332,-0.22716 0.24389,-0.26696 0.36556,-0.11142 0.0537,0.0687 0.19045,0.2221 0.30382,0.34097 0.18372,0.19262 0.32883,0.4039 0.32883,0.47876 0,0.0242 -0.31528,0.19661 -0.3595,0.19661 -0.0103,0 -0.0187,-0.0245 -0.0187,-0.0545 z"
       style="fill:#0000ff;fill-opacity:1;stroke-width:0.0540288" />
    <path
       id="path1817"
       d="m 101.8962,138.2908 c -0.28467,-0.14773 -0.44621,-0.33725 -0.41712,-0.48942 0.0384,-0.201 0.34285,-0.27353 0.58699,-0.13988 0.0991,0.0543 0.11472,0.10784 0.10806,0.37073 -0.004,0.16904 -0.0321,0.31528 -0.0618,0.32499 -0.0297,0.01 -0.12697,-0.0201 -0.21612,-0.0664 z"
       style="fill:#0000ff;fill-opacity:1;stroke-width:0.0540288" />
    <path
       id="path1809"
       d="m -40.384694,129.75658 c -0.18978,-0.13416 -0.28576,-0.30179 -0.28576,-0.49912 0,-0.1731 0.0536,-0.19637 0.28698,-0.12473 0.2285,0.0701 0.38717,0.22659 0.43486,0.42884 0.0266,0.11294 0.006,0.16075 -0.0991,0.22962 -0.16324,0.10696 -0.13225,0.11015 -0.33701,-0.0346 z"
       style="fill:#0000ff;fill-opacity:1;stroke-width:0.0540288" />
    <path
       id="path1797"
       d="m 112.03822,139.10587 c -0.0188,-0.075 -0.0543,-0.13626 -0.0787,-0.13626 -0.09,0 -0.10916,-0.21508 -0.0324,-0.36352 0.0886,-0.17131 0.48472,-0.39288 0.70237,-0.39288 0.16406,0 0.16307,-0.004 0.0797,0.29088 -0.0607,0.21465 -0.35142,0.58209 -0.54358,0.68711 -0.0748,0.0409 -0.1,0.0241 -0.12742,-0.0853 z"
       style="fill:#0000ff;fill-opacity:1;stroke-width:0.0540288" />
    <path
       id="path1793"
       d="m 152.72093,151.09352 c -0.0297,-0.008 -0.14539,-0.0305 -0.25703,-0.0491 -0.24437,-0.0409 -0.38586,-0.22135 -0.33438,-0.42647 0.0592,-0.23603 0.23745,-0.24127 0.43499,-0.0128 0.0944,0.10924 0.18434,0.26448 0.19981,0.34498 0.0315,0.1641 0.0314,0.16445 -0.0434,0.14342 z"
       style="fill:#0000ff;fill-opacity:1;stroke-width:0.0540288" />
    <path
       id="path1699"
       d="m -23.211803,109.67821 c -0.0549,-0.0549 -0.10024,0.0278 -0.0552,0.10068 0.0341,0.0551 0.0468,0.0551 0.0651,0 0.0125,-0.0376 0.008,-0.083 -0.01,-0.10088 z"
       style="fill:#0000ff;fill-opacity:1;stroke-width:0.0540288" />
    <path
       id="path1651"
       d="m -13.77136,101.53941 c -0.0531,-0.0328 -0.0287,-0.0744 0.0958,-0.16305 0.12384,-0.0882 0.16708,-0.0992 0.16708,-0.0426 0,0.11615 -0.17993,0.25692 -0.26287,0.20568 z"
       style="fill:#0000ff;fill-opacity:1;stroke-width:0.0540288" />
    <path
       id="path1613"
       d="m 173.11484,100.4619 c -0.0133,-0.0132 -0.10501,-0.0384 -0.20381,-0.0558 -0.20404,-0.0359 -0.43418,-0.18499 -0.4367,-0.28283 -0.004,-0.137406 0.18871,-0.175736 0.35975,-0.0717 0.16978,0.10325 0.43936,0.43453 0.3536,0.43453 -0.0268,0 -0.0596,-0.0109 -0.0728,-0.0241 z"
       style="fill:#0000ff;fill-opacity:1;stroke-width:0.0540288" />
    <path
       id="path1601"
       d="m 84.966676,134.00565 c 0.0375,-0.0453 0.0795,-0.0712 0.0931,-0.0576 0.0375,0.0375 -0.0387,0.13998 -0.10397,0.13998 -0.0358,0 -0.0317,-0.031 0.0108,-0.0823 z"
       style="fill:#0000ff;fill-opacity:1;stroke-width:0.0540288" />
    <path
       id="path1553"
       d="m 180.64762,114.76545 c -0.003,-0.22208 0.0161,-0.27769 0.10102,-0.30464 0.1672,-0.0531 0.22362,0.0515 0.16871,0.31285 -0.036,0.17142 -0.0773,0.23631 -0.15783,0.24784 -0.0966,0.0138 -0.10935,-0.0153 -0.1119,-0.25605 z"
       style="fill:#0000ff;fill-opacity:1;stroke-width:0.0540288" />
    <path
       id="path1543"
       d="m -86.000205,167.13703 c -0.29633,-0.0781 -0.31271,-0.10769 -0.24554,-0.44411 0.0867,-0.43408 0.19924,-0.52343 0.67441,-0.53539 0.23553,-0.006 0.40773,0.0144 0.43874,0.0517 0.028,0.0339 0.0498,0.15621 0.0484,0.27198 -0.006,0.49722 -0.0233,0.57587 -0.13256,0.61534 -0.19582,0.0707 -0.59108,0.0911 -0.78341,0.0405 z"
       style="fill:#0000ff;fill-opacity:1;stroke-width:0.0540288" />
    <path
       id="path1537"
       d="m 242.47869,116.90365 -0.12345,-0.0864 0.1535,-0.10121 c 0.0952,-0.0628 0.25042,-0.10133 0.4089,-0.10155 0.14049,0 0.41832,-0.0617 0.61757,-0.13667 0.5665,-0.21323 0.53042,-0.12557 -0.074,0.17987 -0.64108,0.32395 -0.81064,0.3664 -0.98251,0.246 z"
       style="fill:#0000ff;fill-opacity:1;stroke-width:0.0540288" />
    <path
       id="path1373"
       d="m 113.97611,116.72162 c 0,-0.0302 0.079,-0.10291 0.17559,-0.16168 0.21179,-0.12886 0.28358,-0.0351 0.0882,0.11513 -0.14246,0.10955 -0.26377,0.13097 -0.26377,0.0466 z"
       style="fill:#0000ff;fill-opacity:1;stroke-width:0.0540288" />
    <path
       id="path1307"
       d="m 2.8918502,153.81836 c -0.1753,-0.46956 -0.17484,-0.52679 0.005,-0.52679 0.0554,0 0.11474,-0.0365 0.13184,-0.0811 0.0463,-0.12062 0.14452,-0.0988 0.30316,0.0676 l 0.14176,0.14857 -0.16829,0.25664 c -0.184,0.28061 -0.33952,0.33149 -0.41286,0.13508 z"
       style="fill:#0000ff;fill-opacity:1;stroke-width:0.0540288" />
    <path
       id="path1289"
       d="m -25.827869,109.18138 c -0.13355,-0.0658 -0.1671,-0.25953 -0.0449,-0.25953 0.0421,0 0.11195,-0.0135 0.15512,-0.0301 0.0432,-0.0166 0.11633,0.008 0.16256,0.0539 0.0761,0.0761 0.0865,0.0751 0.10931,-0.0103 0.0212,-0.0796 0.0314,-0.0752 0.0645,0.0282 0.0289,0.09 0.0572,0.10789 0.10644,0.067 0.0501,-0.0416 0.0655,-0.026 0.0609,0.062 -0.005,0.1 -0.0426,0.11997 -0.24929,0.13323 -0.13373,0.009 -0.29785,-0.0113 -0.36471,-0.0444 z"
       style="fill:#0000ff;fill-opacity:1;stroke-width:0.0540288" />
    <path
       id="path1237"
       d="m 130.74573,125.20832 c 0,-0.0297 -0.0486,-0.054 -0.10806,-0.054 -0.15096,0 -0.13553,-0.15311 0.0194,-0.19198 0.14546,-0.0365 0.52095,0.10218 0.52095,0.19241 0,0.033 -0.0227,0.046 -0.0503,0.0289 -0.0277,-0.0172 -0.0656,-0.006 -0.0842,0.0238 -0.0438,0.071 -0.2977,0.0717 -0.2977,0.002 z"
       style="fill:#0000ff;fill-opacity:1;stroke-width:0.0540288" />
    <path
       id="path1225"
       d="m -88.435465,137.23619 c -0.0166,-0.0166 -0.0602,-2e-5 -0.0969,0.0369 -0.053,0.0533 -0.0467,0.0596 0.0302,0.0302 0.0533,-0.0203 0.0833,-0.0505 0.0666,-0.0672 z"
       style="fill:#0000ff;fill-opacity:1;stroke-width:0.0540288" />
    <path
       id="path1205"
       d="m 140.0683,119.80487 c -0.15267,-0.0234 -0.68846,-0.56371 -0.87616,-0.88363 l -0.10218,-0.17415 0.12919,0.0304 c 0.1674,0.0394 0.47462,0.15917 0.62897,0.24528 0.08,0.0447 0.12156,0.11847 0.12156,0.21599 0,0.097 0.056,0.19727 0.1621,0.29039 0.14557,0.12774 0.22456,0.32655 0.12156,0.30596 -0.0223,-0.005 -0.10557,-0.0181 -0.18504,-0.0302 z"
       style="fill:#0000ff;fill-opacity:1;stroke-width:0.0540288" />
    <path
       id="path1193"
       d="m 49.909747,108.82132 -0.31495,-0.40166 0.0897,-0.27 c 0.0826,-0.24871 0.1032,-0.26995 0.26094,-0.2692 0.24712,0.002 0.3022,0.0552 0.38996,0.38219 0.0894,0.33317 0.0403,0.97544 -0.0738,0.96405 -0.0203,-0.002 -0.17861,-0.18447 -0.35185,-0.40538 z"
       style="fill:#0000ff;fill-opacity:1;stroke-width:0.0540288" />
    <path
       id="path1151"
       d="m 91.254427,112.78413 c 0,-0.11522 0.23169,-0.31362 0.36627,-0.31362 0.1369,0 0.26661,0.19915 0.18371,0.28205 -0.0299,0.0299 -0.16586,0.0669 -0.30215,0.0823 -0.19372,0.0218 -0.24783,0.0108 -0.24783,-0.0507 z"
       style="fill:#0000ff;fill-opacity:1;stroke-width:0.0540288" />
    <path
       id="path1137"
       d="m -86.177047,124.04426 c 0,-0.0445 0.0357,-0.081 0.0794,-0.081 0.0483,0 0.0672,0.0317 0.0482,0.081 -0.0172,0.0446 -0.0528,0.081 -0.0794,0.081 -0.0265,0 -0.0482,-0.0365 -0.0482,-0.081 z"
       style="fill:#0000ff;fill-opacity:1;stroke-width:0.0540288" />
    <path
       id="path1131"
       d="m 24.544362,121.20359 c 0,-0.041 -0.0194,-0.0867 -0.0432,-0.10135 -0.0238,-0.0148 -0.0432,0.0309 -0.0432,0.10135 0,0.0705 0.0194,0.1161 0.0432,0.1014 0.0238,-0.0148 0.0432,-0.0603 0.0432,-0.1014 z"
       style="fill:#0000ff;fill-opacity:1;stroke-width:0.0540288" />
    <path
       id="path1097"
       d="m 244.491,160.56445 c -0.13453,-0.10175 -0.26464,-0.35978 -0.20932,-0.4151 0.0243,-0.0243 0.1588,-0.06 0.29874,-0.0792 0.20638,-0.0283 0.25446,-0.0195 0.25446,0.0468 0,0.0449 0.0146,0.15416 0.0322,0.24282 0.0252,0.12597 0.0104,0.16873 -0.0675,0.19587 -0.0549,0.0191 -0.12408,0.046 -0.1538,0.0599 -0.0297,0.0139 -0.0994,-0.009 -0.15478,-0.0511 z"
       style="fill:#0000ff;fill-opacity:1;stroke-width:0.0540288" />
    <path
       id="path1093"
       d="m 26.379477,112.71874 c -0.102,-0.33577 -0.0422,-0.44343 0.14947,-0.26904 0.0647,0.0588 0.17295,0.13552 0.24065,0.17044 0.0677,0.0349 0.1088,0.0866 0.0914,0.11482 -0.0475,0.0768 -0.45743,0.063 -0.48148,-0.0163 z"
       style="fill:#0000ff;fill-opacity:1;stroke-width:0.0540288" />
    <path
       id="path1079"
       d="m -69.606146,100.31556 c -0.0172,-0.0444 -0.009,-0.0807 0.0182,-0.0807 0.0732,0 0.11872,0.096 0.0621,0.13104 -0.0271,0.0168 -0.0632,-0.006 -0.0802,-0.0503 z"
       style="fill:#0000ff;fill-opacity:1;stroke-width:0.0540288" />
    <path
       id="path1003"
       d="m 271.04544,160.80807 c -0.25004,-0.29867 -0.26092,-0.34994 -0.11976,-0.56404 l 0.10071,-0.15276 0.11916,0.20679 c 0.20568,0.35692 0.21899,0.39055 0.21899,0.55405 0,0.25162 -0.0809,0.24045 -0.3191,-0.044 z"
       style="fill:#0000ff;fill-opacity:1;stroke-width:0.0540288" />
    <path
       id="path981"
       d="m 210.73593,122.56434 c 0,-0.0315 -0.0284,-0.0396 -0.0632,-0.0181 -0.0441,0.0273 -0.0513,0.008 -0.0238,-0.0644 0.03,-0.0789 0.0244,-0.0885 -0.024,-0.0406 -0.0348,0.0346 -0.047,0.0893 -0.027,0.12157 0.0465,0.0752 0.13797,0.0762 0.13797,0.002 z"
       style="fill:#0000ff;fill-opacity:1;stroke-width:0.0540288" />
    <path
       id="path979"
       d="m 149.1503,112.24349 c -0.0534,-0.053 -0.0596,-0.0468 -0.0302,0.0302 0.0203,0.0533 0.0505,0.0833 0.0671,0.0666 0.0166,-0.0166 3e-5,-0.0602 -0.0369,-0.0969 z"
       style="fill:#0000ff;fill-opacity:1;stroke-width:0.0540288" />
    <path
       id="path967"
       d="m -14.219833,137.86733 c -0.104,-0.0569 -0.16276,-0.10454 -0.13056,-0.10579 0.0322,-0.002 0.0608,-0.0326 0.0636,-0.0698 0.003,-0.0371 0.041,-0.16458 0.0849,-0.28318 0.0849,-0.22934 0.18291,-0.28388 0.52241,-0.29061 0.15223,-0.003 0.17081,0.007 0.0954,0.0508 -0.0515,0.03 -0.13348,0.19341 -0.18212,0.36306 -0.0863,0.30091 -0.16202,0.44585 -0.23058,0.44128 -0.0186,-0.002 -0.11901,-0.0488 -0.22303,-0.1058 z"
       style="fill:#0000ff;fill-opacity:1;stroke-width:0.0540288" />
    <path
       id="path931"
       d="m 157.9382,114.47445 c 0.0113,-0.14757 0.027,-0.16137 0.14915,-0.13075 0.33674,0.0846 0.37621,0.29575 0.0553,0.29575 -0.20867,0 -0.2165,-0.006 -0.2044,-0.165 z"
       style="fill:#0000ff;fill-opacity:1;stroke-width:0.0540288" />
    <path
       id="path927"
       d="m 246.52954,118.14475 c -0.0594,-0.024 -0.18167,-0.0452 -0.27163,-0.0473 -0.17466,-0.004 -0.40373,-0.1344 -0.40373,-0.22975 0,-0.0344 0.0613,-0.0455 0.15199,-0.0273 0.23424,0.0468 0.74249,0.28256 0.68373,0.31706 -0.0287,0.017 -0.10094,0.0111 -0.16036,-0.0128 z"
       style="fill:#0000ff;fill-opacity:1;stroke-width:0.0540288" />
  </g>
</svg>
