<?xml version="1.0" encoding="UTF-8" standalone="no"?>
<svg
   xmlns:svg="http://www.w3.org/2000/svg"
   xmlns="http://www.w3.org/2000/svg"
   xmlns:sodipodi="http://sodipodi.sourceforge.net/DTD/sodipodi-0.dtd"
   xmlns:inkscape="http://www.inkscape.org/namespaces/inkscape"
   inkscape:version="1.1-dev (a1a64ec, 2020-05-08)"
   sodipodi:docname="terrazo2.svg"
   id="svg1737"
   version="1.1"
   viewBox="0 0 369.27612 166.50679"
   height="166.50679mm"
   width="369.27612mm">
  <defs
     id="defs1733" />
  <sodipodi:namedview
     inkscape:window-maximized="0"
     inkscape:window-y="23"
     inkscape:window-x="0"
     inkscape:window-height="829"
     inkscape:window-width="1252"
     fit-margin-bottom="0"
     fit-margin-right="0"
     fit-margin-left="0"
     fit-margin-top="0"
     showgrid="false"
     inkscape:current-layer="layer1"
     inkscape:document-units="mm"
     inkscape:cy="287.04958"
     inkscape:cx="1037.5446"
     inkscape:zoom="0.76235552"
     inkscape:pageshadow="2"
     inkscape:pageopacity="0.0"
     borderopacity="1.0"
     bordercolor="#666666"
     pagecolor="#ffffff"
     id="base" />
  <g
     transform="translate(95.435685,-95.907317)"
     id="layer1"
     inkscape:groupmode="layer"
     inkscape:label="Layer 1">
    <path
       style="fill:#93a7ac;fill-opacity:1;stroke-width:0.0834461"
       d="m 195.80474,193.5256 c -0.14401,-0.14401 -0.15954,-0.32864 -0.0342,-0.40611 0.0487,-0.0301 0.1229,-0.14496 0.16484,-0.25527 0.0921,-0.24225 0.31712,-0.25842 0.76014,-0.0545 0.50139,0.2308 0.44675,0.3406 -0.32752,0.65805 -0.38775,0.15896 -0.45519,0.16589 -0.56328,0.0578 z"
       id="path7013" />
    <path
       style="fill:#93a7ac;fill-opacity:1;stroke-width:0.0834461"
       d="m -8.6733989,199.70744 c -0.36457,-0.48284 -0.383408,-0.7752 -0.0553,-0.85756 0.20484,-0.0514 0.639789,0.0908 0.734801,0.24024 0.169148,0.26601 0.0032,1.05873 -0.221721,1.05873 -0.0685,0 -0.274505,-0.19865 -0.457782,-0.44141 z"
       id="path6955" />
    <path
       style="fill:#93a7ac;fill-opacity:1;stroke-width:0.0834461"
       d="m -8.9005918,130.45354 c -0.02773,-0.0277 -0.09969,-0.0307 -0.159941,-0.007 -0.06657,0.0266 -0.04678,0.0464 0.05043,0.0504 0.08795,0.003 0.137239,-0.0159 0.109511,-0.0438 z"
       id="path6923" />
    <path
       style="fill:#93a7ac;fill-opacity:1;stroke-width:0.0834461"
       d="m -72.617852,183.7785 c -0.222488,-0.0373 -0.426508,-0.0899 -0.45339,-0.11674 -0.101283,-0.10128 0.134937,-0.21949 0.584782,-0.29271 0.735409,-0.11969 1.020948,0.0348 0.66294,0.35886 -0.165497,0.14975 -0.192881,0.1515 -0.794332,0.0506 z"
       id="path6869" />
    <path
       style="fill:#453748;fill-opacity:1;stroke-width:0.0834461"
       d="m 218.44171,230.80076 c -0.0688,-0.0392 -0.30448,-0.0925 -0.52364,-0.11845 -0.21915,-0.0259 -0.51123,-0.12748 -0.6491,-0.22567 -0.22389,-0.15941 -0.24492,-0.21108 -0.19722,-0.484 0.11917,-0.68167 0.52385,-0.68223 1.31596,-0.003 0.74726,0.6418 0.79354,0.71625 0.51189,0.8233 -0.26001,0.0988 -0.29515,0.0994 -0.45789,0.007 z"
       id="path6855" />
    <path
       style="fill:#453748;fill-opacity:1;stroke-width:0.0834461"
       d="m 143.71641,203.39784 c -0.3013,-0.31631 -0.44172,-0.56679 -0.36158,-0.64522 0.0782,-0.0765 1.0758,0.0116 1.16732,0.10338 0.0537,0.0537 -0.26339,0.55547 -0.42074,0.66572 -0.13653,0.0957 -0.19312,0.0775 -0.385,-0.12388 z"
       id="path6811" />
    <path
       style="fill:#93a7ac;fill-opacity:1;stroke-width:0.0834461"
       d="m 235.16885,128.92892 c 0.006,-0.14447 0.21608,-0.43739 0.43772,-0.61119 0.18714,-0.14679 0.25578,-0.1623 0.35465,-0.0803 0.1269,0.1053 0.17026,0.54472 0.06,0.60817 -0.13348,0.0768 -0.85516,0.14727 -0.85238,0.0833 z"
       id="path6805" />
    <path
       style="fill:#eeffaa;fill-opacity:1;stroke-width:0.0834461"
       d="m 190.22354,96.828577 c -0.24617,-0.12874 -0.33298,-0.2133 -0.26326,-0.2564 0.10885,-0.0673 0.40844,0.0564 0.74607,0.30787 0.17402,0.12959 0.17926,0.14774 0.0417,0.14443 -0.0865,-0.003 -0.32256,-0.0902 -0.52454,-0.1959 z"
       id="path6803" />
    <path
       style="fill:#93a7ac;fill-opacity:1;stroke-width:0.0834461"
       d="m 91.801024,186.56511 c -0.079,-0.0623 -0.142082,-0.28514 -0.164412,-0.58089 -0.03154,-0.41736 -0.01693,-0.4798 0.111707,-0.4798 0.08139,0 0.172773,0.0401 0.203067,0.0891 0.03027,0.049 0.106522,0.0694 0.169387,0.0453 0.135281,-0.0519 0.36949,0.15941 0.36949,0.33345 0,0.16592 -0.241538,0.52293 -0.417539,0.61709 -0.09435,0.0505 -0.187457,0.0422 -0.2717,-0.0243 z"
       id="path6789" />
    <path
       style="fill:#93a7ac;fill-opacity:1;stroke-width:0.0834461"
       d="m 54.578018,137.1229 c 0,-0.0459 0.0375,-0.0835 0.0834,-0.0835 0.0459,0 0.0834,0.0376 0.0834,0.0835 0,0.0459 -0.0375,0.0834 -0.0834,0.0834 -0.0459,0 -0.0834,-0.0376 -0.0834,-0.0834 z"
       id="path6787" />
    <path
       style="fill:#93a7ac;fill-opacity:1;stroke-width:0.0834461"
       d="m 165.33442,111.30714 c 0,-0.0214 -0.0845,-0.0797 -0.18777,-0.12978 -0.18029,-0.0874 -0.18129,-0.0858 -0.0257,0.0388 0.17026,0.1364 0.21355,0.15484 0.21355,0.091 z"
       id="path6775" />
    <path
       style="fill:#eeffaa;fill-opacity:1;stroke-width:0.0834461"
       d="m 39.139001,252.84743 c -0.15039,-0.35931 -0.18346,-0.77108 -0.0696,-0.86561 0.25821,-0.21426 0.73999,-0.17939 1.27889,0.0927 0.50954,0.2572 0.71533,0.29551 0.46313,0.0862 -0.07,-0.0581 -0.12719,-0.17608 -0.12719,-0.26226 0,-0.27577 0.47107,-0.20103 0.88845,0.141 0.19978,0.16372 0.36324,0.34745 0.36324,0.4083 0,0.14248 -0.24347,0.23675 -0.36523,0.14145 -0.0515,-0.0404 -0.18761,-0.0946 -0.30234,-0.12046 -0.1684,-0.038 -0.24206,0.004 -0.38224,0.21796 -0.0979,0.14949 -0.22527,0.24932 -0.29205,0.22892 -0.24156,-0.0737 -1.1617,-0.0728 -1.20745,0.003 -0.0742,0.12014 -0.18087,0.0903 -0.24765,-0.0694 z"
       id="path6747" />
    <path
       style="fill:#93a7ac;fill-opacity:1;stroke-width:0.0834461"
       d="m 113.95726,185.49354 c -0.29877,-0.26265 -0.30131,-0.27027 -0.18333,-0.54777 0.11102,-0.26122 0.14086,-0.27797 0.41611,-0.23328 0.50006,0.0811 0.69604,0.26183 0.69604,0.64177 0,0.18254 -0.0282,0.33608 -0.0626,0.34118 -0.4867,0.0725 -0.57833,0.0512 -0.86625,-0.2019 z"
       id="path6729" />
    <path
       style="fill:#93a7ac;fill-opacity:1;stroke-width:0.0834461"
       d="m 205.16001,169.816 c -0.0873,-0.0873 0.13851,-0.74555 0.32491,-0.94721 0.1265,-0.13687 0.17126,-0.2631 0.13896,-0.39174 -0.0352,-0.14026 -0.005,-0.20334 0.11533,-0.24154 0.0896,-0.0285 0.23006,-0.12586 0.31205,-0.21648 0.082,-0.0906 0.23537,-0.16476 0.34076,-0.16476 0.17351,0 0.18949,0.0336 0.16848,0.35465 -0.0127,0.19505 -0.0485,0.42034 -0.0794,0.50067 -0.0309,0.0803 -0.0736,0.20172 -0.0948,0.26979 -0.0222,0.0716 -0.0927,0.10298 -0.16688,0.0745 -0.0875,-0.0336 -0.12832,0 -0.12832,0.108 0,0.22879 -0.21646,0.50152 -0.43569,0.54899 -0.10459,0.0228 -0.24847,0.066 -0.3197,0.0962 -0.0712,0.0303 -0.15028,0.0343 -0.17568,0.009 z"
       id="path6709" />
    <path
       style="fill:#93a7ac;fill-opacity:1;stroke-width:0.0834461"
       d="m -68.801696,119.18418 c 0.0703,-0.33697 0.0769,-0.69543 0.0183,-0.9916 -0.0584,-0.29496 0.0385,-0.41389 0.42852,-0.52576 0.24455,-0.0701 0.2481,-0.0663 0.33657,0.35817 0.0492,0.23595 0.0777,0.57589 0.0633,0.75533 -0.022,0.27326 -0.0719,0.35071 -0.30763,0.47633 -0.43003,0.22913 -0.59722,0.20667 -0.53896,-0.0725 z"
       id="path6681" />
    <path
       style="fill:#93a7ac;fill-opacity:1;stroke-width:0.0834461"
       d="m -32.122519,126.55838 c -0.156659,-0.26553 -0.165258,-0.33626 -0.0767,-0.6318 0.07678,-0.25627 0.173699,-0.37057 0.421349,-0.49691 l 0.321627,-0.16407 0.366607,0.26326 c 0.201639,0.14481 0.409892,0.3678 0.462783,0.49551 0.08273,0.19966 0.07141,0.26078 -0.08075,0.43577 -0.114962,0.13219 -0.273447,0.20717 -0.4522,0.21389 -0.151368,0.006 -0.377587,0.0493 -0.502708,0.0968 -0.125121,0.0476 -0.240109,0.0865 -0.255535,0.0865 -0.01534,0 -0.107447,-0.13456 -0.20447,-0.29898 z"
       id="path6617" />
    <path
       style="fill:#eeffaa;fill-opacity:1;stroke-width:0.0834461"
       d="m 131.10585,237.60843 c -0.77947,-0.47302 -0.87091,-0.90821 -0.11129,-0.52967 0.47403,0.23622 0.73909,0.48588 0.65696,0.61883 -0.0811,0.13126 -0.21976,0.10862 -0.54567,-0.0892 z"
       id="path6521" />
    <path
       style="fill:#453748;fill-opacity:1;stroke-width:0.0834461"
       d="m -81.950163,113.33145 c -0.16127,-0.19431 -0.0462,-0.23092 0.12636,-0.0402 0.0833,0.0921 0.11274,0.1674 0.0653,0.1674 -0.0474,0 -0.13366,-0.0572 -0.19171,-0.12719 z"
       id="path6507" />
    <path
       style="fill:#93a7ac;fill-opacity:1;stroke-width:0.0834461"
       d="m -48.634126,210.95792 c -0.13756,-0.2417 -0.1377,-0.26604 -0.002,-0.44543 0.14701,-0.19489 0.89699,-0.46611 1.28898,-0.46611 0.39255,0 0.73645,0.10279 0.73645,0.22016 0,0.0637 -0.16898,0.19791 -0.37551,0.29824 -0.20653,0.10033 -0.37551,0.21248 -0.37551,0.24923 0,0.0368 -0.0493,0.0668 -0.10948,0.0668 -0.0602,0 -0.26495,0.0751 -0.45494,0.1669 -0.45834,0.22145 -0.53607,0.21158 -0.70761,-0.0898 z"
       id="path6503" />
    <path
       style="fill:#93a7ac;fill-opacity:1;stroke-width:0.0834461"
       d="m 104.53793,187.73067 c -0.20092,-0.25543 -0.21325,-0.36071 -0.0659,-0.5623 0.10133,-0.13856 0.11896,-0.13713 0.3261,0.0259 0.13023,0.10242 0.34216,0.17225 0.52297,0.17225 h 0.30401 l -0.22275,0.29207 c -0.2807,0.36798 -0.61016,0.39553 -0.86448,0.0722 z"
       id="path6461" />
    <path
       style="fill:#eeffaa;fill-opacity:1;stroke-width:0.0834461"
       d="m 18.029189,248.30981 c -0.0292,-0.0472 -0.0648,-0.2444 -0.0791,-0.43831 -0.0143,-0.19397 -0.0537,-0.56327 -0.0874,-0.82074 l -0.0613,-0.46813 0.28046,-0.0978 c 0.18814,-0.0656 0.28988,-0.0695 0.30914,-0.0116 0.0159,0.0474 0.094,0.0861 0.17388,0.0861 0.12719,0 0.14444,0.0889 0.13907,0.71602 -0.005,0.61465 -0.0298,0.73364 -0.17301,0.84058 -0.30885,0.23051 -0.44638,0.28366 -0.50181,0.19391 z"
       id="path6385" />
    <path
       style="fill:#eeffaa;fill-opacity:1;stroke-width:0.0834461"
       d="m 89.787176,131.80199 c 0,-0.1066 0.3203,-0.40257 0.37571,-0.34716 0.0225,0.0225 -0.0529,0.1289 -0.16743,0.23654 -0.11454,0.1076 -0.20828,0.1574 -0.20828,0.11062 z"
       id="path6377" />
    <path
       style="fill:#93a7ac;fill-opacity:1;stroke-width:0.0834461"
       d="m -23.745058,245.21254 c 0,-0.0486 0.03754,-0.0652 0.08345,-0.0368 0.0459,0.0284 0.08345,0.0682 0.08345,0.0884 0,0.0201 -0.03754,0.0368 -0.08345,0.0368 -0.04591,0 -0.08345,-0.0398 -0.08345,-0.0884 z"
       id="path6373" />
    <path
       style="fill:#93a7ac;fill-opacity:1;stroke-width:0.0834461"
       d="m 100.51745,188.40167 c -0.15089,-0.0805 -0.24791,-0.17274 -0.21558,-0.2051 0.18039,-0.18037 1.1929,0.0827 1.07188,0.27855 -0.0786,0.12719 -0.55706,0.0862 -0.8563,-0.0735 z"
       id="path6343" />
    <path
       style="fill:#453748;fill-opacity:1;stroke-width:0.0834461"
       d="m 31.998075,203.43638 c -0.1836,-0.0336 -0.46525,-0.0942 -0.62588,-0.1347 l -0.29204,-0.0736 0.25032,-0.0643 c 0.13769,-0.0354 0.45186,-0.19037 0.69813,-0.34436 0.37425,-0.23397 0.47363,-0.26384 0.605,-0.18179 0.0865,0.054 0.15718,0.12501 0.15718,0.15785 0,0.0514 -0.39825,0.67664 -0.44286,0.6953 -0.009,0.004 -0.16629,-0.0206 -0.34985,-0.0544 z"
       id="path6269" />
    <path
       style="fill:#93a7ac;fill-opacity:1;stroke-width:0.0834461"
       d="m 100.66274,210.06689 c -0.12006,-0.12007 -0.12734,-0.16367 -0.038,-0.22768 0.0798,-0.0572 0.067,-0.065 -0.0461,-0.0282 -0.24442,0.0796 -0.38581,-0.10343 -0.38581,-0.49954 0,-0.7012 0.33718,-0.54573 0.54475,0.25115 0.14978,0.57499 0.12988,0.70892 -0.0748,0.50424 z"
       id="path6217" />
    <path
       style="fill:#93a7ac;fill-opacity:1;stroke-width:0.0834461"
       d="m 63.791114,232.98519 c -0.1044,-0.0731 -0.18547,-0.21781 -0.18547,-0.33097 0,-0.21857 0.24542,-0.79081 0.33919,-0.79081 0.11399,0 0.66218,0.74043 0.66218,0.89439 0,0.3501 -0.45834,0.47782 -0.8159,0.22739 z"
       id="path6169" />
    <path
       style="fill:#93a7ac;fill-opacity:1;stroke-width:0.0834461"
       d="m 9.2466046,169.20568 c -0.0998,-0.10623 -0.18142,-0.23765 -0.18142,-0.29208 0,-0.0544 -0.0376,-0.0989 -0.0834,-0.0989 -0.13833,0 -0.0942,-0.12004 0.0854,-0.23218 0.29136,-0.18195 0.49877,0.003 0.49877,0.44374 0,0.42177 -0.0599,0.45545 -0.31925,0.17944 z"
       id="path6151" />
    <path
       style="fill:#93a7ac;fill-opacity:1;stroke-width:0.0834461"
       d="m 195.42998,100.56079 c 0.0919,-0.53973 0.14576,-0.771905 0.17926,-0.771905 0.13766,0 0.39359,0.380955 0.44508,0.662495 l 0.062,0.33888 h -0.36269 c -0.34949,0 -0.36124,-0.008 -0.32361,-0.22947 z"
       id="path6045" />
    <path
       style="fill:#93a7ac;fill-opacity:1;stroke-width:0.0834461"
       d="m -57.37995,179.40668 -0.263764,-0.23569 0.187144,-0.26281 c 0.10292,-0.14454 0.24183,-0.26281 0.30869,-0.26281 0.25368,0 0.39645,0.85701 0.15801,0.94853 -0.0731,0.028 -0.23747,-0.0509 -0.39008,-0.18722 z"
       id="path6015" />
    <path
       style="fill:#93a7ac;fill-opacity:1;stroke-width:0.0834461"
       d="m -92.332077,235.13414 c -0.06173,-0.16081 0.301255,-0.51768 0.467254,-0.45937 0.236035,0.0828 0.502603,0.36957 0.456142,0.4907 -0.05911,0.15404 -0.862727,0.12679 -0.923396,-0.0313 z"
       id="path5973" />
    <path
       style="fill:#453748;fill-opacity:1;stroke-width:0.0834461"
       d="m 269.6398,128.5967 c -0.13615,-0.25437 -0.0944,-0.55555 0.11179,-0.80569 0.10692,-0.12972 0.21839,-0.30159 0.2477,-0.3819 0.0806,-0.22068 0.18524,-0.17907 0.47731,0.18971 0.3207,0.40492 0.29369,0.63558 -0.10239,0.87506 -0.44093,0.26662 -0.63969,0.29985 -0.73441,0.12282 z"
       id="path5885" />
    <path
       style="fill:#93a7ac;fill-opacity:1;stroke-width:0.0834461"
       d="m 3.6027209,128.96316 c -0.0918,-0.0389 -0.23241,-0.0915 -0.31244,-0.11671 -0.12253,-0.0386 -0.13063,-0.0785 -0.0513,-0.2527 0.12144,-0.26654 0.24217,-0.30805 0.60481,-0.20794 0.3919,0.10822 0.44077,0.2136 0.21206,0.45704 -0.20835,0.22178 -0.2119,0.22273 -0.45315,0.12031 z"
       id="path5781" />
    <path
       style="fill:#453748;fill-opacity:1;stroke-width:0.0834461"
       d="m 152.72762,261.55378 c -0.0823,-0.0833 -0.17187,-0.29697 -0.1991,-0.47482 -0.031,-0.2023 -0.12845,-0.3886 -0.26027,-0.49739 -0.22479,-0.18556 -0.19439,-0.36846 0.0612,-0.36846 0.0835,0 0.19851,-0.0563 0.25564,-0.12518 0.0572,-0.0688 0.1914,-0.12517 0.29837,-0.12517 0.1897,0 0.6196,0.15579 0.703,0.25474 0.023,0.0272 0.10741,0.0738 0.18774,0.1034 0.24331,0.0898 0.16634,0.3633 -0.25032,0.8899 -0.41905,0.52959 -0.55441,0.5879 -0.79629,0.34298 z"
       id="path5749" />
    <path
       style="fill:#eeffaa;fill-opacity:1;stroke-width:0.0834461"
       d="m 232.2687,259.70785 c -0.069,-0.081 -0.20513,-0.28056 -0.3026,-0.44352 -0.21476,-0.35917 -0.17222,-0.58272 0.1833,-0.96303 0.14214,-0.15205 0.3279,-0.37478 0.41283,-0.49498 l 0.15436,-0.21852 0.18791,0.37116 c 0.34226,0.67608 0.34917,1.59665 0.013,1.72233 -0.45021,0.16824 -0.52536,0.17131 -0.64865,0.0266 z"
       id="path5741" />
    <path
       style="fill:#93a7ac;fill-opacity:1;stroke-width:0.0834461"
       d="m -36.484955,108.53365 c -0.695404,-0.57251 -0.705882,-0.85948 -0.03143,-0.85948 0.345916,0 0.437594,0.0375 0.645848,0.26424 0.295248,0.32147 0.371342,0.56724 0.247359,0.79889 -0.141208,0.26381 -0.355442,0.21317 -0.861775,-0.20365 z"
       id="path5733" />
    <path
       style="fill:#93a7ac;fill-opacity:1;stroke-width:0.0834461"
       d="m 266.00136,112.33001 c -0.13769,-0.13504 -0.2785,-0.24553 -0.31292,-0.24558 -0.17873,0 -0.0204,-0.18347 0.28686,-0.33195 0.37425,-0.18082 0.86749,-0.2317 0.77359,-0.0798 -0.0303,0.049 0.0201,0.10877 0.11223,0.13279 0.16947,0.0443 0.16457,0.16566 -0.0254,0.63347 -0.0962,0.23677 -0.54086,0.1787 -0.83423,-0.10896 z"
       id="path5697" />
    <path
       style="fill:#93a7ac;fill-opacity:1;stroke-width:0.0834461"
       d="m -68.914324,145.65541 c 0.005,-0.45135 -0.01773,-1.01835 -0.05056,-1.26002 -0.04286,-0.31652 -0.02895,-0.4717 0.04971,-0.55481 0.09149,-0.0966 0.149463,-0.0357 0.357002,0.37552 0.136261,0.26999 0.305568,0.68567 0.376238,0.92377 0.114194,0.38468 0.114564,0.44447 0.0032,0.53684 -0.06887,0.0572 -0.195871,0.24241 -0.282231,0.41172 -0.08636,0.16925 -0.225743,0.32575 -0.309722,0.34771 -0.140731,0.0368 -0.151976,-0.0243 -0.143748,-0.78073 z"
       id="path5497" />
    <path
       style="fill:#453748;fill-opacity:1;stroke-width:0.0834461"
       d="m -8.5426007,206.24103 c 0,-0.10332 0.0556,-0.16692 0.14605,-0.1669 0.0803,0 0.25998,-0.13573 0.39928,-0.30165 l 0.25323,-0.30162 -0.0198,0.3566 c -0.0297,0.53113 -0.0673,0.58045 -0.44222,0.58045 -0.28078,0 -0.3364,-0.0276 -0.3364,-0.16688 z"
       id="path5449" />
    <path
       style="fill:#93a7ac;fill-opacity:1;stroke-width:0.0834461"
       d="m 271.39117,140.09868 c -0.44916,-0.22127 -0.51707,-0.2853 -0.51707,-0.48728 0,-0.12788 0.0333,-0.23252 0.0741,-0.23252 0.0408,0 0.27051,0.13512 0.51056,0.30027 0.24006,0.16516 0.54332,0.34515 0.67392,0.40008 l 0.23741,0.0998 -0.23092,0.0871 c -0.19469,0.0735 -0.31205,0.0472 -0.74798,-0.16756 z"
       id="path5417" />
    <path
       style="fill:#93a7ac;fill-opacity:1;stroke-width:0.0834461"
       d="m -72.019625,126.16771 c -0.08176,-0.21659 -0.06847,-0.26686 0.115702,-0.4381 0.114459,-0.10642 0.241089,-0.27893 0.281411,-0.38338 0.106336,-0.27528 0.31078,-0.32155 0.51562,-0.11668 0.165391,0.16536 0.167402,0.18454 0.03479,0.33107 -0.07742,0.0856 -0.140785,0.19666 -0.140785,0.24688 0,0.15658 -0.424841,0.60481 -0.573246,0.60481 -0.07948,0 -0.181504,-0.10686 -0.233495,-0.2446 z"
       id="path5391" />
    <path
       style="fill:#eeffaa;fill-opacity:1;stroke-width:0.0834461"
       d="m 254.98467,164.55183 c -0.0204,-0.0344 -0.0381,-0.27565 -0.0397,-0.5361 -0.003,-0.33949 0.0315,-0.48673 0.11851,-0.52015 0.17399,-0.0668 0.25498,0.27014 0.21383,0.88937 -0.0143,0.21339 -0.20214,0.3206 -0.2926,0.16688 z"
       id="path5361" />
    <path
       style="fill:#eeffaa;fill-opacity:1;stroke-width:0.0834461"
       d="m -43.342122,195.85288 c -0.0623,-0.16248 0.14836,-0.35639 0.38725,-0.35639 0.19089,0 0.19285,0.10509 0.005,0.26646 -0.25442,0.21849 -0.33567,0.23712 -0.39216,0.0899 z"
       id="path5329" />
    <path
       style="fill:#93a7ac;fill-opacity:1;stroke-width:0.0834461"
       d="m 78.784251,177.50178 c 0.0146,-0.0986 0.0914,-0.21979 0.17045,-0.26937 0.11326,-0.071 0.16938,-0.0551 0.26431,0.0747 0.15018,0.20542 0.0343,0.37391 -0.25722,0.37391 -0.16153,0 -0.19865,-0.0375 -0.17754,-0.17923 z"
       id="path5307" />
    <path
       style="fill:#eeffaa;fill-opacity:1;stroke-width:0.0834461"
       d="m 236.81822,168.96326 c -0.27448,-0.24805 -0.52721,-0.45218 -0.56163,-0.45363 -0.0344,-0.003 -0.0626,-0.0564 -0.0626,-0.12216 0,-0.0657 -0.0751,-0.14338 -0.16688,-0.17251 -0.1997,-0.0634 -0.20605,-0.11559 -0.0424,-0.3493 0.13129,-0.18743 0.33819,-0.18145 0.66821,0.0193 0.0918,0.0558 0.26569,0.12435 0.38648,0.15227 0.20629,0.0477 0.22317,0.0891 0.27889,0.68371 0.0326,0.34811 0.0457,0.64653 0.0291,0.66315 -0.0167,0.0167 -0.25479,-0.17277 -0.52924,-0.42085 z"
       id="path5283" />
    <path
       style="fill:#453748;fill-opacity:1;stroke-width:0.0834461"
       d="m 107.91401,119.79542 c 0,-0.27736 0.16261,-0.38338 0.67958,-0.4432 l 0.44693,-0.0517 -0.33377,0.34655 c -0.3974,0.41262 -0.79274,0.48662 -0.79274,0.14835 z"
       id="path5243" />
    <path
       style="fill:#93a7ac;fill-opacity:1;stroke-width:0.0834461"
       d="m 213.83925,147.14604 c -0.0475,-0.24847 -0.0106,-0.294 0.23762,-0.294 0.27815,0 0.32348,0.14851 0.1017,0.33332 -0.25397,0.21167 -0.2922,0.20722 -0.33932,-0.0393 z"
       id="path5151" />
    <path
       style="fill:#453748;fill-opacity:1;stroke-width:0.0834461"
       d="m 28.789565,229.74104 c -0.0806,-0.0971 -0.0661,-0.1583 0.0732,-0.30779 0.0956,-0.10263 0.1738,-0.21706 0.1738,-0.25429 0,-0.15468 0.34021,-0.0521 0.46652,0.14071 0.1303,0.19883 0.12747,0.216 -0.0607,0.37271 -0.23479,0.19561 -0.51371,0.21641 -0.65291,0.0487 z"
       id="path5141" />
    <path
       style="fill:#93a7ac;fill-opacity:1;stroke-width:0.0834461"
       d="m 81.072939,224.91806 c -0.34854,-0.36553 -0.52147,-0.6146 -0.52147,-0.75102 0,-0.1178 0.0486,-0.20416 0.11496,-0.20416 0.25604,0 0.71064,0.25792 0.76687,0.43509 0.0327,0.10313 0.13308,0.28704 0.22299,0.40862 0.12816,0.17335 0.14428,0.25693 0.0747,0.38703 -0.0489,0.0913 -0.0651,0.18965 -0.0361,0.21863 0.029,0.029 0.0182,0.0527 -0.0238,0.0527 -0.0421,0 -0.31123,-0.24612 -0.59804,-0.5469 z"
       id="path5105" />
    <path
       style="fill:#93a7ac;fill-opacity:1;stroke-width:0.0834461"
       d="m 187.01242,133.57895 c -0.0262,-0.0686 -0.0138,-0.1247 0.0281,-0.1247 0.11311,0 0.18336,0.14828 0.0959,0.20238 -0.0419,0.0259 -0.0976,-0.009 -0.12393,-0.0777 z"
       id="path5097" />
    <path
       style="fill:#93a7ac;fill-opacity:1;stroke-width:0.0834461"
       d="m 95.42103,206.4503 c -0.03294,-0.88738 -0.04051,-0.86241 0.268102,-0.88654 0.233283,-0.0182 0.349541,0.0384 0.643811,0.31367 0.197485,0.18481 0.337608,0.37073 0.311362,0.4132 -0.02619,0.0425 -0.252148,0.13663 -0.502021,0.20926 -0.249872,0.0726 -0.512048,0.15422 -0.582586,0.18132 -0.09866,0.0378 -0.130678,-0.0156 -0.138668,-0.23091 z"
       id="path5063" />
    <path
       style="fill:#93a7ac;fill-opacity:1;stroke-width:0.0834461"
       d="m 36.101248,243.50718 c 0,-0.0459 -0.0167,-0.0834 -0.0368,-0.0834 -0.0204,0 -0.06,0.0375 -0.0884,0.0834 -0.0284,0.0459 -0.0119,0.0834 0.0368,0.0834 0.0486,0 0.0884,-0.0375 0.0884,-0.0834 z"
       id="path4985" />
    <path
       style="fill:#93a7ac;fill-opacity:1;stroke-width:0.0834461"
       d="m 118.45867,170.99916 c -0.34007,-0.21087 -0.2821,-0.27649 0.2295,-0.25977 0.49585,0.0161 0.54115,0.0559 0.30636,0.26837 -0.18886,0.17092 -0.24784,0.16997 -0.53586,-0.009 z"
       id="path4955" />
    <path
       style="fill:#eeffaa;fill-opacity:1;stroke-width:0.0834461"
       d="m 184.63458,137.69835 c -0.10163,-0.10165 -0.0575,-0.27815 0.0695,-0.27815 0.0696,0 0.12517,0.0742 0.12517,0.16689 0,0.16624 -0.0889,0.21707 -0.1947,0.11126 z"
       id="path4951" />
    <path
       style="fill:#453748;fill-opacity:1;stroke-width:0.0834461"
       d="m -26.417087,221.69059 c 0.1914,-0.14025 0.67374,-0.3743 0.67374,-0.32689 0,0.0638 -0.49072,0.37137 -0.66919,0.41944 l -0.20701,0.0558 z"
       id="path4931" />
    <path
       style="fill:#93a7ac;fill-opacity:1;stroke-width:0.0834461"
       d="m -74.801045,194.18516 c 0,-0.0459 0.0585,-0.0834 0.13007,-0.0834 0.0716,0 0.10692,0.0375 0.0785,0.0834 -0.0284,0.0459 -0.0869,0.0834 -0.1301,0.0834 -0.0432,0 -0.0785,-0.0375 -0.0785,-0.0834 z"
       id="path4905" />
    <path
       style="fill:#453748;fill-opacity:1;stroke-width:0.0834461"
       d="m 129.43897,166.58366 c -0.0359,-0.0582 -0.0428,-0.12829 -0.0153,-0.15584 0.0747,-0.0747 0.15611,0.0352 0.11576,0.15619 -0.0283,0.0848 -0.0479,0.0847 -0.10049,0 z"
       id="path4667" />
    <path
       style="fill:#eeffaa;fill-opacity:1;stroke-width:0.0834461"
       d="m -86.581693,240.42563 c -0.13324,-0.12165 -0.29091,-0.23839 -0.35041,-0.25937 -0.14229,-0.0502 0.10917,-0.54311 0.43741,-0.85759 l 0.23397,-0.22418 0.21521,0.68119 c 0.11835,0.37468 0.21519,0.72618 0.21519,0.78119 0,0.18917 -0.49985,0.10853 -0.75137,-0.12124 z"
       id="path4477" />
    <path
       style="fill:#eeffaa;fill-opacity:1;stroke-width:0.0834461"
       d="m 99.723651,143.04382 -0.3158,-0.41413 0.21521,-0.28215 c 0.11837,-0.15523 0.21524,-0.34216 0.21524,-0.41542 0,-0.40248 0.515639,-0.0651 0.841689,0.55073 l 0.16854,0.31829 -0.3284,0.32843 c -0.18063,0.18061 -0.36267,0.3284 -0.40452,0.3284 -0.0419,0 -0.218259,-0.18637 -0.391959,-0.41415 z"
       id="path4357" />
    <path
       style="fill:#453748;fill-opacity:1;stroke-width:0.0834461"
       d="m 66.362085,260.08461 c 0,-0.0312 0.0362,-0.20455 0.0781,-0.3851 0.0616,-0.26543 0.0476,-0.36941 -0.0727,-0.54242 -0.22577,-0.32473 -0.32705,-0.69197 -0.24902,-0.9029 0.072,-0.19473 0.31342,-0.24899 0.45918,-0.10324 0.0462,0.0463 0.25069,0.13235 0.45432,0.1913 0.44341,0.12837 0.48921,0.26522 0.25246,0.75425 -0.0953,0.197 -0.17338,0.41425 -0.17338,0.48278 0,0.20765 -0.19352,0.40315 -0.47982,0.48477 -0.14917,0.0425 -0.2703,0.0517 -0.26922,0.0206 z"
       id="path4335" />
    <path
       style="fill:#93a7ac;fill-opacity:1;stroke-width:0.0834461"
       d="m 240.91738,252.25806 c -0.0306,-0.0306 -0.0556,-0.12449 -0.0556,-0.20863 0,-0.18428 0.37504,-0.2164 0.44352,-0.038 0.0764,0.19921 -0.23638,0.39812 -0.38788,0.24662 z"
       id="path4201" />
    <path
       style="fill:#eeffaa;fill-opacity:1;stroke-width:0.0834461"
       d="m 165.25248,98.420374 c -0.052,-0.14508 0.0976,-0.41199 0.19664,-0.35079 0.0447,0.0276 0.071,0.007 0.0584,-0.0461 -0.0124,-0.053 0.0615,-0.15422 0.1648,-0.225 0.17431,-0.11938 0.18775,-0.11705 0.18775,0.0324 0,0.16285 -0.38708,0.69384 -0.5058,0.69384 -0.0354,0 -0.0812,-0.0469 -0.10181,-0.1043 z"
       id="path4173" />
    <path
       style="fill:#93a7ac;fill-opacity:1;stroke-width:0.0834461"
       d="m 112.67684,252.55889 -0.24238,-0.19328 0.18224,-0.15605 c 0.10023,-0.0858 0.18222,-0.20807 0.18222,-0.27167 0,-0.0795 0.0609,-0.10039 0.19484,-0.0668 0.10716,0.0269 0.30747,0.0167 0.44511,-0.0227 0.39891,-0.11443 0.52874,0.0135 0.52578,0.51774 -0.003,0.33544 -0.022,0.40079 -0.0876,0.28792 -0.0866,-0.1487 -0.45733,-0.20379 -0.50792,-0.0755 -0.0709,0.17989 -0.45585,0.16902 -0.69231,-0.0196 z"
       id="path4125" />
    <path
       style="fill:#93a7ac;fill-opacity:1;stroke-width:0.0834461"
       d="m 166.4187,209.8122 c -0.0675,-0.0427 -0.0973,-0.10305 -0.0662,-0.13417 0.0764,-0.0764 0.31411,0.0209 0.31411,0.12832 0,0.106 -0.0864,0.10803 -0.24791,0.006 z"
       id="path4085" />
    <path
       style="fill:#453748;fill-opacity:1;stroke-width:0.0834461"
       d="m 132.47998,220.3468 c 0.058,-0.07 0.12274,-0.10999 0.14373,-0.089 0.0579,0.0579 -0.0597,0.21616 -0.16055,0.21616 -0.0553,0 -0.049,-0.0479 0.0169,-0.12718 z"
       id="path4065" />
    <path
       style="fill:#eeffaa;fill-opacity:1;stroke-width:0.0834461"
       d="m 4.4918587,129.24649 c -0.004,-0.14645 0.0282,-0.28787 0.0709,-0.31427 0.13751,-0.085 0.1596,0.0729 0.0462,0.3302 l -0.11031,0.25035 -0.007,-0.26628 z"
       id="path4047" />
    <path
       style="fill:#93a7ac;fill-opacity:1;stroke-width:0.0834461"
       d="m 30.555703,185.84321 c -0.36121,-0.69797 -0.11118,-0.90768 0.45339,-0.38028 l 0.26313,0.24577 -0.24447,0.19986 c -0.13447,0.10991 -0.26408,0.20119 -0.28808,0.20283 -0.0241,0.003 -0.10679,-0.11901 -0.18397,-0.26818 z"
       id="path3987" />
    <path
       style="fill:#93a7ac;fill-opacity:1;stroke-width:0.0834461"
       d="m 121.21486,234.39826 c 0.0742,-0.35235 0.18912,-0.47514 0.2921,-0.31224 0.11316,0.17897 0.0995,0.30295 -0.0499,0.45231 -0.21196,0.21193 -0.30504,0.15811 -0.24222,-0.14007 z"
       id="path3963" />
    <path
       style="fill:#93a7ac;fill-opacity:1;stroke-width:0.0834461"
       d="m 225.54662,193.44104 c -0.0322,-0.0322 -0.0585,-0.12999 -0.0585,-0.2173 0,-0.11698 0.0495,-0.1518 0.18774,-0.13214 0.12274,0.0175 0.18775,0.0841 0.18775,0.19241 0,0.16552 -0.20629,0.2677 -0.31697,0.15703 z"
       id="path3961" />
    <path
       style="fill:#453748;fill-opacity:1;stroke-width:0.0834461"
       d="m -60.879455,158.03503 c -0.11838,-0.1097 -0.32195,-0.24365 -0.45244,-0.29771 -0.21317,-0.0883 -0.42577,-0.38309 -0.42577,-0.59039 0,-0.1365 0.94586,-0.54697 1.18909,-0.51604 0.1827,0.0233 0.23167,0.0748 0.24014,0.25312 0.0164,0.3437 0.0489,0.54383 0.11433,0.70374 0.041,0.10028 0.0212,0.14603 -0.0639,0.14603 -0.0706,0 -0.14512,0.10731 -0.17373,0.25035 -0.0605,0.30249 -0.14536,0.3126 -0.42772,0.0509 z"
       id="path3935" />
    <path
       style="fill:#93a7ac;fill-opacity:1;stroke-width:0.0834461"
       d="m 118.95241,163.74992 c -0.12145,-0.0185 -0.2835,-0.10321 -0.36013,-0.18785 -0.13284,-0.14682 -0.12327,-0.15664 0.20646,-0.21236 0.29138,-0.0492 0.37713,-0.0289 0.54528,0.12904 0.30866,0.28996 0.2037,0.36264 -0.39161,0.27117 z"
       id="path3865" />
    <path
       style="fill:#93a7ac;fill-opacity:1;stroke-width:0.0834461"
       d="m -42.797825,241.49563 c -0.0936,-0.0592 -0.12055,-0.21992 -0.108,-0.64542 0.0296,-1.00545 0.0788,-1.18938 0.24632,-0.92123 0.0824,0.13198 0.11467,0.27874 0.14325,0.65207 0.0124,0.16356 0.0517,0.34419 0.087,0.4014 0.0647,0.10467 -0.0937,0.59571 -0.1914,0.5933 -0.0289,0 -0.10859,-0.0367 -0.17719,-0.0801 z"
       id="path3845" />
    <path
       style="fill:#93a7ac;fill-opacity:1;stroke-width:0.0834461"
       d="m 28.791803,120.55866 c 0.0284,-0.0459 0.0869,-0.0834 0.13009,-0.0834 0.0432,0 0.0785,0.0375 0.0785,0.0834 0,0.0459 -0.0585,0.0834 -0.1301,0.0834 -0.0715,0 -0.10689,-0.0375 -0.0785,-0.0834 z"
       id="path3773" />
    <path
       style="fill:#eeffaa;fill-opacity:1;stroke-width:0.0834461"
       d="m -64.827662,225.11467 c -0.0282,-0.10514 -0.0517,-0.31321 -0.0524,-0.46236 -0.003,-0.21823 0.0323,-0.2712 0.17013,-0.2712 0.15388,0 0.1687,0.0438 0.14603,0.43151 -0.0265,0.45416 -0.17693,0.62635 -0.26379,0.30205 z"
       id="path3709" />
    <path
       style="fill:#453748;fill-opacity:1;stroke-width:0.0834461"
       d="m 32.296467,192.95222 c -0.0666,-0.0422 -0.14853,-0.0598 -0.18198,-0.0391 -0.0334,0.0206 -0.0844,0 -0.11321,-0.0472 -0.079,-0.12772 0.1534,-0.10181 0.33784,0.0377 0.17881,0.13526 0.14865,0.16965 -0.0427,0.0486 z"
       id="path3689" />
    <path
       style="fill:#93a7ac;fill-opacity:1;stroke-width:0.0834461"
       d="m 258.53786,116.39871 c -0.18209,-0.20116 -0.36822,-0.66662 -0.51044,-1.27627 l -0.1193,-0.51136 0.34542,0.0552 c 0.42185,0.0674 0.53652,0.15642 0.63796,0.49501 0.0432,0.1442 0.11594,0.38285 0.16163,0.53033 0.0729,0.23532 0.0546,0.30403 -0.14967,0.56102 -0.21968,0.27644 -0.24019,0.28464 -0.3656,0.14603 z"
       id="path3681" />
    <path
       style="fill:#93a7ac;fill-opacity:1;stroke-width:0.0834461"
       d="m 190.80664,261.46556 c -0.076,-0.0839 -0.13811,-0.18989 -0.13811,-0.23546 0,-0.0456 -0.071,-0.2287 -0.15767,-0.407 -0.22524,-0.46305 -0.14417,-0.58785 0.20757,-0.31959 0.26088,0.19899 0.28389,0.25291 0.28389,0.66558 0,0.24696 -0.013,0.44905 -0.0288,0.44905 -0.0159,0 -0.091,-0.0687 -0.16689,-0.15258 z"
       id="path3665" />
    <path
       style="fill:#93a7ac;fill-opacity:1;stroke-width:0.0834461"
       d="m 101.12487,236.22981 c 0.0803,-0.0212 0.21177,-0.0212 0.29207,0 0.0803,0.0209 0.0145,0.0382 -0.14605,0.0382 -0.16063,0 -0.22632,-0.0172 -0.14602,-0.0382 z"
       id="path3637" />
    <path
       style="fill:#eeffaa;fill-opacity:1;stroke-width:0.0834461"
       d="m -86.229002,130.26498 c -0.0615,-0.11575 -0.0963,-0.30056 -0.0775,-0.41068 0.0337,-0.19701 0.0359,-0.19632 0.13639,0.0447 0.0562,0.13467 0.091,0.31948 0.0775,0.41068 -0.0225,0.15068 -0.0348,0.14661 -0.13639,-0.0447 z"
       id="path3633" />
    <path
       style="fill:#93a7ac;fill-opacity:1;stroke-width:0.0834461"
       d="m 127.67413,107.06763 c -0.11337,-0.17307 -0.11739,-0.25395 -0.0279,-0.56327 0.0575,-0.19865 0.17256,-0.45072 0.25567,-0.56021 0.0831,-0.10945 0.15161,-0.27844 0.15224,-0.37549 0,-0.0971 0.0249,-0.26559 0.0541,-0.37449 0.0472,-0.17638 0.0701,-0.15359 0.20997,0.20862 0.14163,0.36687 0.1827,1.08516 0.0686,1.19933 -0.023,0.023 -0.11334,0.18254 -0.20089,0.35465 -0.18474,0.36316 -0.32637,0.39383 -0.51179,0.11086 z"
       id="path3631" />
    <path
       style="fill:#93a7ac;fill-opacity:1;stroke-width:0.0834461"
       d="m 260.85612,192.25411 c 0.0284,-0.0459 0.0891,-0.0834 0.13501,-0.0834 0.0459,0 0.0602,0.0375 0.0319,0.0834 -0.0284,0.0459 -0.0891,0.0834 -0.13501,0.0834 -0.0459,0 -0.0602,-0.0375 -0.0319,-0.0834 z"
       id="path3621" />
    <path
       style="fill:#453748;fill-opacity:1;stroke-width:0.0834461"
       d="m 63.470497,169.37529 c 0,-0.2264 0.029,-0.26006 0.22358,-0.26006 0.2546,0 0.77779,0.1723 0.77779,0.25617 0,0.0307 -0.12205,0.0792 -0.2712,0.10785 -0.14917,0.0286 -0.37446,0.0755 -0.50069,0.10409 -0.21236,0.0481 -0.22948,0.0326 -0.22948,-0.20805 z"
       id="path3571" />
    <path
       style="fill:#93a7ac;fill-opacity:1;stroke-width:0.0834461"
       d="m -89.103662,194.76004 c -0.05916,-0.0375 -0.226933,-0.0688 -0.372824,-0.0695 -0.145892,-0.003 -0.329063,-0.0651 -0.407088,-0.14311 -0.133483,-0.13351 -0.126445,-0.14917 0.119777,-0.26578 0.249634,-0.11821 0.277548,-0.11268 0.609097,0.121 0.191108,0.13467 0.360892,0.28556 0.377269,0.3353 0.035,0.10623 -0.171556,0.12023 -0.326231,0.0222 z"
       id="path3559" />
    <path
       style="fill:#93a7ac;fill-opacity:1;stroke-width:0.0834461"
       d="m -27.03339,256.17306 c -0.148114,-0.3878 -0.143537,-0.81407 0.0093,-0.86418 0.0853,-0.0279 0.11729,0.091 0.257069,0.95636 0.06363,0.39402 -0.102631,0.33645 -0.266329,-0.0922 z"
       id="path3479" />
    <path
       style="fill:#93a7ac;fill-opacity:1;stroke-width:0.0834461"
       d="m 68.059943,197.16864 c -0.15097,-0.0257 -0.27303,-0.0746 -0.2712,-0.10901 0.003,-0.0344 0.003,-0.10015 0.003,-0.14605 0,-0.15756 0.49054,-0.0914 0.58143,0.0784 0.10657,0.19912 0.0402,0.23651 -0.31351,0.17666 z"
       id="path3419" />
    <path
       style="fill:#93a7ac;fill-opacity:1;stroke-width:0.0834461"
       d="m -92.571164,257.46364 c -0.0919,-0.25424 -0.0851,-0.30425 0.061,-0.45043 0.2085,-0.20847 0.27583,-0.0717 0.17812,0.3616 -0.0933,0.41381 -0.11824,0.42307 -0.23913,0.0888 z"
       id="path3383" />
    <path
       style="fill:#453748;fill-opacity:1;stroke-width:0.0834461"
       d="m 193.99315,155.99197 c 0.0342,-0.18727 0.10533,-0.38357 0.15798,-0.43622 0.15052,-0.15049 0.37912,0.0433 0.40936,0.34711 0.0217,0.21862 -0.0109,0.27686 -0.19322,0.34621 -0.39391,0.1498 -0.44244,0.11644 -0.37412,-0.2571 z"
       id="path3273" />
    <path
       style="fill:#93a7ac;fill-opacity:1;stroke-width:0.0834461"
       d="m 204.86781,220.05402 c 0.0284,-0.0459 0.0681,-0.0834 0.0884,-0.0834 0.0204,0 0.0368,0.0376 0.0368,0.0834 0,0.0459 -0.0398,0.0834 -0.0884,0.0834 -0.0486,0 -0.0652,-0.0375 -0.0368,-0.0834 z"
       id="path3223" />
    <path
       style="fill:#eeffaa;fill-opacity:1;stroke-width:0.0834461"
       d="m 241.34944,204.86156 c 0,-0.0459 0.0376,-0.0834 0.0834,-0.0834 0.0459,0 0.0835,0.0375 0.0835,0.0834 0,0.0459 -0.0375,0.0834 -0.0835,0.0834 -0.0459,0 -0.0834,-0.0375 -0.0834,-0.0834 z"
       id="path2895" />
    <path
       style="fill:#93a7ac;fill-opacity:1;stroke-width:0.0834461"
       d="m 19.124658,172.89124 c 0.004,-0.0972 0.0238,-0.11697 0.0504,-0.0504 0.0241,0.0602 0.0212,0.13222 -0.007,0.15995 -0.0277,0.0277 -0.0475,-0.0214 -0.0438,-0.10954 z"
       id="path2893" />
    <path
       style="fill:#eeffaa;fill-opacity:1;stroke-width:0.0834461"
       d="m 79.594089,149.81661 c -0.0241,-0.0241 -0.1801,-0.049 -0.34671,-0.0552 -0.22008,-0.008 -0.28086,-0.038 -0.22233,-0.10847 0.12433,-0.14984 0.62164,-0.0981 0.65376,0.068 0.0272,0.14081 -0.004,0.17626 -0.0847,0.0957 z"
       id="path2835" />
    <path
       style="fill:#93a7ac;fill-opacity:1;stroke-width:0.0834461"
       d="m -49.303481,223.78278 c -0.03201,-0.032 -0.25191,-0.0844 -0.414232,-0.0986 -0.04003,-0.003 -0.02908,-0.059 0.02434,-0.12343 0.08321,-0.10028 0.132265,-0.0995 0.342345,0.005 0.287575,0.14346 0.374544,0.25083 0.20312,0.25083 -0.06681,0 -0.136816,-0.0154 -0.155575,-0.0341 z"
       id="path2829" />
    <path
       style="fill:#93a7ac;fill-opacity:1;stroke-width:0.0834461"
       d="m 37.364535,141.10559 c -0.290274,-0.1356 -0.679212,-0.5226 -0.679212,-0.67587 0,-0.17841 0.04762,-0.16923 0.36076,0.0696 0.14642,0.11168 0.368273,0.25598 0.493024,0.32072 0.189257,0.0982 0.209894,0.1392 0.124619,0.2476 -0.08152,0.10364 -0.142108,0.11131 -0.299191,0.0379 z"
       id="path2811" />
    <path
       style="fill:#93a7ac;fill-opacity:1;stroke-width:0.0834461"
       d="m 95.565827,181.35187 c -0.164994,-0.17711 -0.219472,-0.31806 -0.122925,-0.31806 0.121629,0 0.374967,0.18714 0.454475,0.33571 0.125544,0.23458 -0.108162,0.22214 -0.33155,-0.0175 z"
       id="path2591" />
    <path
       style="fill:#93a7ac;fill-opacity:1;stroke-width:0.0834461"
       d="m -57.502747,188.13445 c -0.0533,-0.0533 -0.0969,-0.16235 -0.0969,-0.24234 0,-0.23592 0.33801,-0.73908 0.49649,-0.73908 0.12071,0 0.14476,0.0717 0.1378,0.41087 -0.007,0.34877 -0.0411,0.43029 -0.22447,0.53917 -0.16402,0.0974 -0.23935,0.10493 -0.31293,0.0314 z"
       id="path2581" />
    <path
       style="fill:#93a7ac;fill-opacity:1;stroke-width:0.0834461"
       d="m 13.962266,252.874 c -0.0294,-0.0294 -0.0344,-0.084 -0.0114,-0.12152 0.052,-0.0842 0.28713,-0.003 0.28713,0.10038 0,0.0856 -0.19638,0.10065 -0.27591,0.0212 z"
       id="path2565" />
    <path
       style="fill:#453748;fill-opacity:1;stroke-width:0.0834461"
       d="m 126.62338,253.61479 c -0.87532,-0.43775 -0.93858,-0.50734 -1.03179,-1.13504 -0.0443,-0.298 -0.0262,-0.35419 0.14187,-0.44421 0.17007,-0.091 0.28191,-0.0576 0.95848,0.28613 0.42124,0.21402 0.76591,0.41753 0.76591,0.45225 0,0.0347 -0.13144,0.19846 -0.29207,0.36385 -0.16063,0.16542 -0.29205,0.33793 -0.29205,0.38338 0,0.12338 -0.10922,0.16423 -0.25035,0.0936 z"
       id="path2487" />
    <path
       style="fill:#eeffaa;fill-opacity:1;stroke-width:0.0834461"
       d="m 181.44452,172.26523 c 0,-0.15533 0.33724,-0.65251 0.50266,-0.74104 0.23714,-0.12692 0.44863,-0.0983 0.55708,0.0754 0.12663,0.2028 0.0182,0.3497 -0.43265,0.58589 -0.36687,0.19227 -0.62709,0.22537 -0.62709,0.0798 z"
       id="path2483" />
    <path
       style="fill:#eeffaa;fill-opacity:1;stroke-width:0.0834461"
       d="m -60.365124,152.54129 c -0.0284,-0.0459 -0.0119,-0.0834 0.0368,-0.0834 0.0486,0 0.0884,0.0375 0.0884,0.0834 0,0.0459 -0.0164,0.0834 -0.0368,0.0834 -0.0204,0 -0.06,-0.0375 -0.0884,-0.0834 z"
       id="path2481" />
    <path
       style="fill:#93a7ac;fill-opacity:1;stroke-width:0.0834461"
       d="m 37.87419,135.40582 c 0,-0.0721 -0.16211,-0.29762 -0.52154,-0.72551 -0.12621,-0.1502 -0.22948,-0.30133 -0.22948,-0.33578 0,-0.0961 0.34584,-0.37428 0.46533,-0.37428 0.0583,0 0.21452,-0.0913 0.34713,-0.20288 l 0.24111,-0.20291 0.40804,0.41555 0.40807,0.41553 -0.20468,0.37851 c -0.13981,0.2585 -0.30885,0.42921 -0.53327,0.53838 -0.37415,0.182 -0.38071,0.18362 -0.38071,0.0934 z"
       id="path2455" />
    <path
       style="fill:#453748;fill-opacity:1;stroke-width:0.0834461"
       d="m 50.047142,250.91732 c -0.15616,-0.0909 -0.20132,-0.32711 -0.0626,-0.32711 0.0459,0 0.0835,-0.0555 0.0835,-0.12324 0,-0.0678 0.0955,-0.18579 0.21214,-0.26225 0.20174,-0.13219 0.22019,-0.13042 0.37552,0.0363 0.21836,0.23439 0.20773,0.29702 -0.0934,0.55041 -0.28626,0.24085 -0.30846,0.24627 -0.51515,0.12589 z"
       id="path2439" />
    <path
       style="fill:#453748;fill-opacity:1;stroke-width:0.0834461"
       d="m 84.44109,198.66789 c -0.55142,-0.14499 -0.61601,-0.4059 -0.21019,-0.84894 0.38516,-0.42051 0.66397,-0.39439 0.93099,0.0871 l 0.1913,0.34507 -0.18484,0.20582 c -0.23921,0.26633 -0.37105,0.30456 -0.72726,0.2109 z"
       id="path2433" />
    <path
       style="fill:#93a7ac;fill-opacity:1;stroke-width:0.0834461"
       d="m 53.994216,151.77967 c 0,-0.0459 0.03977,-0.0834 0.08837,-0.0834 0.0486,0 0.06517,0.0375 0.0368,0.0834 -0.02836,0.0459 -0.06813,0.0834 -0.08837,0.0834 -0.02037,0 -0.0368,-0.0375 -0.0368,-0.0834 z"
       id="path2417" />
    <path
       style="fill:#93a7ac;fill-opacity:1;stroke-width:0.0834461"
       d="m 83.504576,196.83707 c 0,-0.11618 -0.05633,-0.23284 -0.125174,-0.25927 -0.06884,-0.0265 -0.125175,-0.0961 -0.125175,-0.15481 0,-0.12438 0.58248,-1.04362 0.6613,-1.04362 0.02926,0 0.275563,0.22471 0.547343,0.49935 l 0.49411,0.49929 -0.24638,0.25771 c -0.188251,0.1969 -0.297286,0.24757 -0.462095,0.21481 -0.118639,-0.0235 -0.320067,0.0111 -0.447622,0.0774 -0.299747,0.15552 -0.296307,0.15655 -0.296307,-0.0909 z"
       id="path2411" />
    <path
       style="fill:#93a7ac;fill-opacity:1;stroke-width:0.0834461"
       d="m 270.03146,133.43054 c -0.089,-0.0651 -0.1265,-0.11777 -0.0833,-0.11708 0.11536,0.003 0.33052,0.15007 0.28461,0.196 -0.0217,0.0217 -0.11229,-0.0138 -0.20129,-0.0789 z"
       id="path2377" />
    <path
       style="fill:#93a7ac;fill-opacity:1;stroke-width:0.0834461"
       d="m 48.947029,249.70027 c -0.20429,-0.21741 -0.23445,-0.49168 -0.0722,-0.65588 0.06,-0.0607 0.13208,-0.17132 0.16029,-0.24588 0.0701,-0.18521 0.46622,-0.17452 0.56782,0.0153 0.0662,0.12367 0.0127,0.20664 -0.29575,0.45943 -0.34439,0.2822 -0.36396,0.31768 -0.22956,0.41595 0.0808,0.0591 0.12523,0.12917 0.0987,0.15568 -0.0265,0.0265 -0.12973,-0.0386 -0.22934,-0.1446 z"
       id="path2353" />
    <path
       style="fill:#93a7ac;fill-opacity:1;stroke-width:0.0834461"
       d="m 115.95431,128.08599 c -0.0757,-0.12244 0.19476,-0.30128 0.29855,-0.19745 0.0629,0.0629 0.0389,0.11562 -0.0819,0.18028 -0.096,0.0513 -0.19087,0.0589 -0.21664,0.0172 z"
       id="path2311" />
    <path
       style="fill:#eeffaa;fill-opacity:1;stroke-width:0.0834461"
       d="m 257.72532,133.8243 c -0.0939,-0.0939 -0.0622,-0.25972 0.0763,-0.39815 0.17459,-0.17457 0.28532,-0.0937 0.28532,0.20836 0,0.18235 -0.0393,0.2454 -0.15298,0.2454 -0.0841,0 -0.17801,-0.0249 -0.20862,-0.0556 z"
       id="path2239" />
    <path
       style="fill:#eeffaa;fill-opacity:1;stroke-width:0.0834461"
       d="m 164.6494,175.71133 c -0.21593,-0.0827 -0.24776,-0.13031 -0.20495,-0.30612 0.0661,-0.27138 0.25069,-0.29975 0.52853,-0.0812 0.18288,0.14385 0.20796,0.20532 0.13753,0.33697 -0.0979,0.18286 -0.11144,0.18431 -0.46111,0.0503 z"
       id="path2211" />
    <path
       style="fill:#453748;fill-opacity:1;stroke-width:0.0834461"
       d="m 45.26097,208.80112 c -0.0277,-0.0723 -0.0504,-0.20079 -0.0504,-0.28557 0,-0.0848 -0.05,-0.20407 -0.1111,-0.26519 -0.0611,-0.0611 -0.13546,-0.28908 -0.16528,-0.50662 -0.0483,-0.35261 -0.0369,-0.39555 0.10512,-0.39555 0.0876,0 0.20896,0.049 0.26961,0.10895 0.0606,0.06 0.17385,0.13309 0.25162,0.16248 0.15827,0.0599 0.36557,0.65141 0.29379,0.83844 -0.0257,0.0666 -0.15814,0.20058 -0.29467,0.29779 -0.21664,0.15425 -0.25463,0.16004 -0.29866,0.0453 z"
       id="path2201" />
    <path
       style="fill:#93a7ac;fill-opacity:1;stroke-width:0.0834461"
       d="m 48.741968,165.34292 c -0.183304,-0.18513 -0.318215,-0.38175 -0.299853,-0.43691 0.0453,-0.13584 1.063493,-0.47609 1.272038,-0.42508 0.140679,0.0344 0.509508,0.18608 0.6146,0.25276 0.05982,0.038 -0.479451,0.63552 -0.711755,0.78872 -0.345996,0.2281 -0.503476,0.19582 -0.87503,-0.17949 z"
       id="path2199" />
    <path
       style="fill:#eeffaa;fill-opacity:1;stroke-width:0.0834461"
       d="m -25.466999,254.94677 c -0.0241,-0.0918 -0.0768,-0.1669 -0.11737,-0.1669 -0.13165,0 -0.73567,-0.65784 -0.7852,-0.85514 -0.0265,-0.10554 -0.0135,-0.28485 0.029,-0.39849 l 0.0771,-0.20666 0.28774,0.31292 c 0.2145,0.23323 0.35404,0.31292 0.54814,0.31292 0.14316,0 0.28352,0.0375 0.31191,0.0834 0.0284,0.0459 0.21834,0.0834 0.42215,0.0834 0.33147,0 0.3706,0.0204 0.3706,0.1927 0,0.2472 -0.13139,0.40407 -0.52634,0.62831 -0.39531,0.22444 -0.56163,0.22809 -0.61775,0.0135 z"
       id="path2163" />
    <path
       style="fill:#93a7ac;fill-opacity:1;stroke-width:0.0834461"
       d="m 188.86727,177.98773 c -0.0694,-0.11107 -0.0781,-0.21571 -0.0262,-0.31295 0.0429,-0.0803 0.1,-0.20235 0.12679,-0.27117 0.0963,-0.2473 0.34308,-0.60608 0.42365,-0.61587 0.10091,-0.0122 0.27969,0.49065 0.28609,0.80484 0.004,0.17335 -0.0627,0.2718 -0.26648,0.39605 -0.33986,0.20722 -0.414,0.20709 -0.54391,-0.003 z"
       id="path2155" />
    <path
       style="fill:#93a7ac;fill-opacity:1;stroke-width:0.0834461"
       d="m 189.30254,198.97567 c -0.18283,-0.65834 0.006,-0.71703 0.25585,-0.0797 0.15153,0.38576 0.1514,0.39259 -0.007,0.39259 -0.11565,0 -0.18629,-0.089 -0.24849,-0.31292 z"
       id="path2153" />
    <path
       style="fill:#93a7ac;fill-opacity:1;stroke-width:0.0834461"
       d="m 125.70462,229.68228 c -0.20701,-0.33152 0.14684,-0.93067 0.73578,-1.24587 0.15677,-0.0839 0.22315,-0.0735 0.40643,0.0633 0.26331,0.19661 0.27543,0.30207 0.0806,0.70093 -0.29433,0.60264 -0.97888,0.8723 -1.22283,0.48167 z"
       id="path2151" />
    <path
       style="fill:#93a7ac;fill-opacity:1;stroke-width:0.0834461"
       d="m 61.814134,110.83934 c 0,-0.10946 0.06519,-0.19669 0.166899,-0.22328 0.09178,-0.0241 0.166873,-0.0724 0.166873,-0.10763 0,-0.0352 0.07511,-0.0836 0.166899,-0.10763 0.213122,-0.0557 0.209973,-0.0225 -0.01799,0.18989 -0.101653,0.0947 -0.231166,0.15441 -0.287814,0.13266 -0.0603,-0.023 -0.08509,0.007 -0.05982,0.073 0.02381,0.0618 0.0029,0.13724 -0.04598,0.16756 -0.05265,0.0326 -0.08914,-0.0185 -0.08914,-0.12454 z"
       id="path2127" />
    <path
       style="fill:#453748;fill-opacity:1;stroke-width:0.0834461"
       d="m -1.0113183,177.67159 c -0.20949,-0.20654 -0.41645,-0.3755 -0.45992,-0.3755 -0.0435,0 -0.0562,-0.0371 -0.0281,-0.0824 0.0298,-0.0483 0.29421,0.0402 0.63901997,0.21381 0.5715,0.28781 0.58396,0.30069 0.44175,0.45786 -0.0805,0.0889 -0.16108,0.16168 -0.17905,0.16168 -0.018,0 -0.20415,-0.16896 -0.41364997,-0.37549 z"
       id="path2119" />
    <path
       style="fill:#93a7ac;fill-opacity:1;stroke-width:0.0834461"
       d="m 260.67068,108.09454 c -0.17812,-0.25432 -0.1674,-0.29155 0.12803,-0.44432 0.23879,-0.12348 0.26974,-0.12268 0.41722,0.0106 0.21312,0.19286 0.20069,0.32234 -0.0464,0.48424 -0.27135,0.17778 -0.34404,0.17039 -0.4989,-0.0507 z"
       id="path2107" />
    <path
       style="fill:#eeffaa;fill-opacity:1;stroke-width:0.0834461"
       d="m 18.99079,138.02447 c 0,-0.0869 0.057,-0.23083 0.12663,-0.31991 0.11954,-0.15285 0.12539,-0.14589 0.1043,0.12366 -0.0233,0.29785 -0.23093,0.47427 -0.23093,0.19625 z"
       id="path2085" />
    <path
       style="fill:#93a7ac;fill-opacity:1;stroke-width:0.0834461"
       d="m 170.85189,165.55958 c -0.0548,-0.20944 -0.0177,-0.23982 0.2335,-0.19177 0.13279,0.0254 0.20666,0.0957 0.20666,0.19667 0,0.22026 -0.38237,0.216 -0.44016,-0.005 z"
       id="path2067" />
    <path
       style="fill:#eeffaa;fill-opacity:1;stroke-width:0.0834461"
       d="m 65.683516,210.62266 c -0.0283,-0.0283 0.0453,-0.23632 0.16351,-0.46236 0.20461,-0.39129 0.22228,-0.40428 0.36928,-0.27125 0.15976,0.14457 0.15428,0.17188 -0.11136,0.55552 -0.15235,0.22003 -0.31202,0.2875 -0.42143,0.17809 z"
       id="path2065" />
    <path
       style="fill:#eeffaa;fill-opacity:1;stroke-width:0.0834461"
       d="m -15.885569,196.77292 c 0.0265,-0.0688 0.0862,-0.12515 0.13277,-0.12515 0.0488,0 0.0407,0.053 -0.019,0.12515 -0.0571,0.0689 -0.11687,0.12517 -0.13277,0.12517 -0.0159,0 -0.007,-0.0563 0.019,-0.12517 z"
       id="path2033" />
    <path
       style="fill:#453748;fill-opacity:1;stroke-width:0.0834461"
       d="m 119.21762,254.74847 c 0,-0.0459 0.0398,-0.0834 0.0884,-0.0834 0.0486,0 0.0652,0.0375 0.0368,0.0834 -0.0284,0.0459 -0.0681,0.0834 -0.0884,0.0834 -0.0201,0 -0.0368,-0.0375 -0.0368,-0.0834 z"
       id="path1981" />
    <path
       style="fill:#93a7ac;fill-opacity:1;stroke-width:0.0834461"
       d="m 103.99716,166.37079 c -0.10549,-0.30258 0.0217,-0.43622 0.19264,-0.20243 0.0853,0.11668 0.0897,0.18462 0.018,0.27956 -0.0521,0.069 -0.10094,0.13671 -0.10864,0.15054 -0.008,0.0138 -0.0536,-0.0887 -0.10207,-0.22767 z"
       id="path1953" />
    <path
       style="fill:#eeffaa;fill-opacity:1;stroke-width:0.0834461"
       d="m -29.2484,127.05257 c 0,-0.18513 0.25286,-0.36904 0.50737,-0.36904 0.21457,0 0.23347,0.0188 0.15182,0.14933 -0.1215,0.19455 -0.65919,0.37375 -0.65919,0.21971 z"
       id="path1915" />
    <path
       style="fill:#93a7ac;fill-opacity:1;stroke-width:0.0834461"
       d="m 32.557018,201.73994 c 0,-0.13552 0.03376,-0.33266 0.07506,-0.4381 0.04127,-0.10541 0.117369,-0.34957 0.169095,-0.54255 0.175287,-0.65392 0.696595,-1.05323 0.990838,-0.75896 0.210847,0.21085 0.117475,0.3389 -0.2032,0.27874 -0.276304,-0.0518 -0.299376,-0.0417 -0.258948,0.11284 0.02434,0.0934 -0.0026,0.20844 -0.05929,0.25575 -0.09279,0.077 -0.251565,0.40394 -0.427249,0.87974 -0.03389,0.0918 -0.0535,0.23262 -0.04355,0.31292 0.01032,0.0845 -0.03688,0.14603 -0.112342,0.14603 -0.08882,0 -0.130413,-0.0786 -0.130414,-0.24641 z"
       id="path1873" />
    <path
       style="fill:#93a7ac;fill-opacity:1;stroke-width:0.0834461"
       d="m -86.372042,177.89393 c 0,-0.16063 0.01085,-0.29208 0.02408,-0.29208 0.01323,0 0.163222,0.0709 0.33327,0.15764 l 0.309218,0.15761 -0.205184,0.13444 c -0.33274,0.21807 -0.461354,0.17409 -0.461354,-0.15761 z"
       id="path1837" />
    <path
       style="fill:#93a7ac;fill-opacity:1;stroke-width:0.0834461"
       d="m 261.79602,211.19884 c 0,-0.0459 0.0376,-0.10666 0.0835,-0.13502 0.0459,-0.0284 0.0834,-0.014 0.0834,0.0318 0,0.0459 -0.0375,0.10666 -0.0834,0.13502 -0.0459,0.0284 -0.0835,0.014 -0.0835,-0.0318 z"
       id="path1835" />
    <path
       style="fill:#eeffaa;fill-opacity:1;stroke-width:0.0834461"
       d="m 267.53603,177.93449 c 0,-0.1261 -0.41723,-0.52687 -0.77187,-0.74142 -0.35568,-0.21523 -0.35886,-0.22494 -0.18571,-0.572 0.17502,-0.35084 0.37668,-0.4123 0.56459,-0.17208 0.083,0.10607 0.29414,0.34303 0.46924,0.52662 0.28376,0.2975 0.50787,0.62381 0.50787,0.73943 0,0.0373 -0.48694,0.30367 -0.55523,0.30367 -0.0159,0 -0.0289,-0.0379 -0.0289,-0.0842 z"
       id="path1831" />
    <path
       style="fill:#93a7ac;fill-opacity:1;stroke-width:0.0834461"
       d="m -75.391513,122.1587 c -0.439658,-0.22817 -0.68916,-0.52088 -0.644234,-0.75591 0.05935,-0.31044 0.529537,-0.42246 0.906595,-0.21603 0.153088,0.0838 0.177191,0.16655 0.166899,0.57258 -0.0066,0.26107 -0.04958,0.48694 -0.09546,0.50194 -0.0459,0.0151 -0.196109,-0.0311 -0.333798,-0.10258 z"
       id="path1817" />
    <path
       style="fill:#453748;fill-opacity:1;stroke-width:0.0834461"
       d="m 146.36052,207.49658 c -0.29311,-0.20722 -0.44135,-0.46612 -0.44135,-0.77089 0,-0.26734 0.0827,-0.30329 0.44323,-0.19264 0.35292,0.10832 0.59798,0.34996 0.67164,0.66233 0.0411,0.17444 0.009,0.24828 -0.15301,0.35465 -0.25212,0.1652 -0.20426,0.17012 -0.52051,-0.0534 z"
       id="path1809" />
    <path
       style="fill:#93a7ac;fill-opacity:1;stroke-width:0.0834461"
       d="m 47.744844,197.9215 c -0.029,-0.11575 -0.0838,-0.21045 -0.1216,-0.21045 -0.13899,0 -0.1686,-0.33218 -0.05,-0.56144 0.13679,-0.26459 0.74864,-0.6068 1.08479,-0.6068 0.25339,0 0.25186,-0.006 0.12316,0.44926 -0.0938,0.33153 -0.54276,0.89903 -0.83955,1.06122 -0.11559,0.0632 -0.15438,0.0372 -0.19679,-0.13179 z"
       id="path1797" />
    <path
       style="fill:#93a7ac;fill-opacity:1;stroke-width:0.0834461"
       d="m 265.31075,170.58211 c -0.0459,-0.013 -0.22455,-0.0471 -0.39698,-0.0759 -0.37741,-0.0631 -0.59595,-0.34187 -0.51644,-0.65868 0.0915,-0.36454 0.36674,-0.37264 0.67183,-0.0198 0.14583,0.16872 0.28471,0.40849 0.30861,0.53281 0.0487,0.25345 0.0485,0.254 -0.067,0.22151 z"
       id="path1793" />
    <path
       style="fill:#453748;fill-opacity:1;stroke-width:0.0834461"
       d="m 137.26211,131.82987 c -0.0848,-0.0848 -0.15481,0.0429 -0.0852,0.1555 0.0526,0.0851 0.0722,0.0851 0.10052,0 0.0193,-0.058 0.0124,-0.12811 -0.0154,-0.15581 z"
       id="path1699" />
    <path
       style="fill:#453748;fill-opacity:1;stroke-width:0.0834461"
       d="m -63.028471,202.98652 c -0.082,-0.0507 -0.0443,-0.11493 0.14795,-0.25183 0.19127,-0.13618 0.25805,-0.15322 0.25805,-0.0658 0,0.17939 -0.27789,0.3968 -0.406,0.31766 z"
       id="path1651" />
    <path
       style="fill:#453748;fill-opacity:1;stroke-width:0.0834461"
       d="m 118.74967,169.86121 c -0.0206,-0.0204 -0.16219,-0.0593 -0.31478,-0.0862 -0.31514,-0.0555 -0.67058,-0.28572 -0.67447,-0.43683 -0.006,-0.21222 0.29146,-0.27143 0.55562,-0.11078 0.26223,0.15947 0.67858,0.67112 0.54613,0.67112 -0.0414,0 -0.092,-0.0169 -0.1125,-0.0373 z"
       id="path1613" />
    <path
       style="fill:#93a7ac;fill-opacity:1;stroke-width:0.0834461"
       d="m -69.629589,178.0349 c 0.058,-0.07 0.12274,-0.11001 0.14375,-0.089 0.0579,0.0579 -0.0597,0.21619 -0.16058,0.21619 -0.0553,0 -0.049,-0.0479 0.0167,-0.12716 z"
       id="path1601" />
    <path
       style="fill:#93a7ac;fill-opacity:1;stroke-width:0.0834461"
       d="m 58.501341,238.48864 c -0.004,-0.343 0.0249,-0.42889 0.15603,-0.47051 0.25823,-0.082 0.34538,0.0796 0.26056,0.48319 -0.0556,0.26474 -0.11944,0.36496 -0.24376,0.38277 -0.14925,0.0214 -0.16889,-0.0236 -0.17283,-0.39545 z"
       id="path1553" />
    <path
       style="fill:#453748;fill-opacity:1;stroke-width:0.0834461"
       d="m -17.096963,133.29428 c -0.45767,-0.12057 -0.48297,-0.16632 -0.37923,-0.68591 0.13388,-0.67043 0.30772,-0.80843 1.04162,-0.8269 0.36377,-0.009 0.62973,0.0222 0.67762,0.0799 0.0433,0.0523 0.0769,0.24125 0.0747,0.42006 -0.01,0.76795 -0.036,0.88942 -0.20473,0.95038 -0.30245,0.10917 -0.91292,0.14068 -1.20997,0.0625 z"
       id="path1543" />
    <path
       style="fill:#93a7ac;fill-opacity:1;stroke-width:0.0834461"
       d="m 49.585146,108.63686 -0.190659,-0.13351 0.237067,-0.15631 c 0.147081,-0.097 0.386767,-0.1565 0.631534,-0.15685 0.216984,0 0.646086,-0.0953 0.953822,-0.21108 0.874951,-0.32933 0.81923,-0.19394 -0.1143,0.27781 -0.990123,0.50033 -1.252008,0.56589 -1.517464,0.37994 z"
       id="path1537" />
    <path
       style="fill:#93a7ac;fill-opacity:1;stroke-width:0.0834461"
       d="m -23.00116,145.43356 c 0,-0.0466 0.122052,-0.15894 0.271198,-0.24971 0.327104,-0.19902 0.437991,-0.0542 0.136181,0.17782 -0.220027,0.1692 -0.407379,0.20228 -0.407379,0.0719 z"
       id="path1373" />
    <path
       style="fill:#93a7ac;fill-opacity:1;stroke-width:0.0834461"
       d="m 147.22603,127.27366 c -0.27075,-0.72523 -0.27004,-0.81362 0.007,-0.81362 0.0856,0 0.17721,-0.0563 0.20362,-0.12518 0.0715,-0.18629 0.2232,-0.15253 0.46823,0.10433 l 0.21894,0.22947 -0.25992,0.39637 c -0.28419,0.43339 -0.52438,0.51197 -0.63765,0.20863 z"
       id="path1307" />
    <path
       style="fill:#453748;fill-opacity:1;stroke-width:0.0834461"
       d="m 10.978886,126.46323 c -0.20626,-0.10168 -0.25807,-0.40085 -0.0694,-0.40085 0.0651,0 0.17291,-0.0209 0.23958,-0.0465 0.0667,-0.0257 0.17968,0.0119 0.25107,0.0833 0.1175,0.11747 0.13356,0.11594 0.16883,-0.0159 0.0328,-0.12295 0.0485,-0.11607 0.0997,0.0436 0.0446,0.13907 0.0883,0.16664 0.16439,0.10351 0.0774,-0.0642 0.10122,-0.0401 0.0941,0.0957 -0.008,0.15441 -0.0658,0.18529 -0.38502,0.20577 -0.20654,0.0132 -0.46001,-0.0175 -0.56328,-0.0685 z"
       id="path1289" />
    <path
       style="fill:#453748;fill-opacity:1;stroke-width:0.0834461"
       d="m 239.79423,211.1504 c 0,-0.0459 -0.0751,-0.0834 -0.1669,-0.0834 -0.23315,0 -0.20932,-0.23648 0.0299,-0.29651 0.22466,-0.0564 0.8046,0.15782 0.8046,0.29718 0,0.051 -0.035,0.071 -0.0777,0.0446 -0.0427,-0.0265 -0.10125,-0.01 -0.13009,0.0368 -0.0677,0.10961 -0.45979,0.1108 -0.45979,0.003 z"
       id="path1237" />
    <path
       style="fill:#453748;fill-opacity:1;stroke-width:0.0834461"
       d="m 159.6428,148.82033 c -0.0257,-0.0257 -0.093,-3e-5 -0.14962,0.057 -0.0818,0.0824 -0.0722,0.092 0.0467,0.0467 0.0823,-0.0314 0.12862,-0.078 0.1029,-0.10372 z"
       id="path1225" />
    <path
       style="fill:#93a7ac;fill-opacity:1;stroke-width:0.0834461"
       d="m 205.18636,97.933368 c -0.2358,-0.0361 -1.06331,-0.87064 -1.35321,-1.36474 l -0.15782,-0.26898 0.19954,0.0469 c 0.25855,0.0608 0.73303,0.24583 0.97142,0.37883 0.12361,0.069 0.18775,0.18296 0.18775,0.33359 0,0.1498 0.0865,0.30467 0.25035,0.44849 0.22484,0.1973 0.34684,0.50435 0.18775,0.47255 -0.0344,-0.007 -0.16304,-0.0279 -0.28578,-0.0466 z"
       id="path1205" />
    <path
       style="fill:#453748;fill-opacity:1;stroke-width:0.0834461"
       d="m 35.96151,188.23526 -0.48644,-0.62036 0.13851,-0.41701 c 0.12756,-0.38413 0.15939,-0.41693 0.40302,-0.41577 0.38168,0.003 0.46675,0.0852 0.60229,0.59028 0.13809,0.51457 0.0622,1.50654 -0.11395,1.48895 -0.0313,-0.003 -0.27586,-0.28491 -0.54343,-0.62609 z"
       id="path1193" />
    <path
       style="fill:#93a7ac;fill-opacity:1;stroke-width:0.0834461"
       d="m -7.5453089,186.32757 c 0,-0.17796 0.35784,-0.48438 0.5657,-0.48438 0.21143,0 0.41177,0.30758 0.28374,0.43561 -0.0462,0.0461 -0.25617,0.10335 -0.46667,0.12708 -0.29919,0.0337 -0.38277,0.0167 -0.38277,-0.0783 z"
       id="path1151" />
    <path
       style="fill:#93a7ac;fill-opacity:1;stroke-width:0.0834461"
       d="m 163.22877,181.50828 c 0,-0.0688 0.0552,-0.12515 0.12258,-0.12515 0.0746,0 0.10374,0.0489 0.0745,0.12515 -0.0265,0.0689 -0.0816,0.12517 -0.12256,0.12517 -0.041,0 -0.0745,-0.0563 -0.0745,-0.12517 z"
       id="path1137" />
    <path
       style="fill:#93a7ac;fill-opacity:1;stroke-width:0.0834461"
       d="m 55.709436,115.37333 c 0,-0.0634 -0.03003,-0.13385 -0.06676,-0.15653 -0.03672,-0.0228 -0.06675,0.0478 -0.06675,0.15653 0,0.10885 0.03003,0.17931 0.06675,0.15661 0.03672,-0.0228 0.06676,-0.0932 0.06676,-0.15661 z"
       id="path1131" />
    <path
       style="fill:#eeffaa;fill-opacity:1;stroke-width:0.0834461"
       d="m 237.52717,190.83532 c -0.20778,-0.15716 -0.40873,-0.55567 -0.32329,-0.64111 0.0376,-0.0376 0.24526,-0.0927 0.4614,-0.12226 0.31875,-0.0437 0.39301,-0.0301 0.39301,0.0722 0,0.0693 0.0225,0.2381 0.0498,0.37502 0.0389,0.19457 0.0161,0.26061 -0.1043,0.30252 -0.0847,0.0295 -0.19163,0.0711 -0.23754,0.0925 -0.0459,0.0214 -0.15346,-0.014 -0.23905,-0.0789 z"
       id="path1097" />
    <path
       style="fill:#93a7ac;fill-opacity:1;stroke-width:0.0834461"
       d="m 63.784046,207.58714 c -0.15753,-0.51858 -0.0652,-0.68487 0.230854,-0.41553 0.0999,0.0909 0.26713,0.20931 0.37169,0.26324 0.10454,0.0539 0.16804,0.13374 0.1411,0.17735 -0.0733,0.11861 -0.706494,0.0973 -0.743644,-0.0251 z"
       id="path1093" />
    <path
       style="fill:#453748;fill-opacity:1;stroke-width:0.0834461"
       d="m 96.235561,234.96682 c -0.0265,-0.0686 -0.0138,-0.12469 0.0281,-0.12469 0.11311,0 0.18335,0.1483 0.0959,0.20238 -0.0419,0.0259 -0.0976,-0.009 -0.12391,-0.0777 z"
       id="path1079" />
    <path
       style="fill:#93a7ac;fill-opacity:1;stroke-width:0.0834461"
       d="m 41.981622,227.37406 c -0.386186,-0.46128 -0.402987,-0.54047 -0.18497,-0.87115 l 0.155548,-0.23592 0.184044,0.31937 c 0.317659,0.55126 0.338217,0.6032 0.338217,0.85572 0,0.38862 -0.124962,0.37137 -0.492839,-0.068 z"
       id="path1003" />
    <path
       style="fill:#93a7ac;fill-opacity:1;stroke-width:0.0834461"
       d="m 83.279888,225.08181 c 0,-0.0486 -0.0439,-0.0612 -0.0976,-0.028 -0.0681,0.0421 -0.0792,0.0122 -0.0368,-0.0994 0.0464,-0.12184 0.0377,-0.13674 -0.037,-0.0627 -0.0538,0.0534 -0.0726,0.13785 -0.0417,0.18775 0.0718,0.11618 0.21309,0.11774 0.21309,0.003 z"
       id="path981" />
    <path
       style="fill:#93a7ac;fill-opacity:1;stroke-width:0.0834461"
       d="m 168.15698,115.69242 c -0.0824,-0.0818 -0.092,-0.0722 -0.0467,0.0467 0.0314,0.0823 0.078,0.12861 0.10369,0.10292 0.0257,-0.0257 5e-5,-0.093 -0.057,-0.14965 z"
       id="path979" />
    <path
       style="fill:#93a7ac;fill-opacity:1;stroke-width:0.0834461"
       d="m -52.022988,227.09344 c -0.160628,-0.0879 -0.251381,-0.16145 -0.201639,-0.16338 0.04972,-0.003 0.0939,-0.0504 0.09821,-0.10782 0.0042,-0.0573 0.06326,-0.25419 0.131075,-0.43736 0.131075,-0.35422 0.282496,-0.43846 0.806847,-0.44884 0.235109,-0.005 0.263816,0.0106 0.147373,0.0785 -0.07959,0.0464 -0.206163,0.29872 -0.281279,0.56074 -0.133244,0.46474 -0.250243,0.6886 -0.356129,0.68154 -0.02881,-0.003 -0.183806,-0.0754 -0.344461,-0.16341 z"
       id="path967" />
    <path
       style="fill:#453748;fill-opacity:1;stroke-width:0.0834461"
       d="m 251.58578,184.82109 c 0.0175,-0.22791 0.0417,-0.24923 0.23035,-0.20193 0.52009,0.13058 0.58105,0.45678 0.0854,0.45678 -0.32229,0 -0.33438,-0.01 -0.3157,-0.25485 z"
       id="path931" />
    <path
       style="fill:#453748;fill-opacity:1;stroke-width:0.0834461"
       d="m 229.59002,109.68392 c -0.0918,-0.037 -0.28059,-0.0698 -0.41952,-0.073 -0.26977,-0.006 -0.62355,-0.20757 -0.62355,-0.35483 0,-0.0532 0.0946,-0.0702 0.23474,-0.0422 0.36177,0.0723 1.14676,0.43641 1.05601,0.48969 -0.0444,0.0262 -0.1559,0.0172 -0.24768,-0.0198 z"
       id="path927" />
  </g>
</svg>
