<svg id="Capa_1" enable-background="new 0 0 512 512" height="512" viewBox="0 0 512 512" width="512" xmlns="http://www.w3.org/2000/svg"><g><path d="m72.499 187.907c4.142 0 7.5-3.373 7.5-7.515s-3.358-7.5-7.5-7.5-7.5 3.358-7.5 7.5v.029c0 4.142 3.357 7.486 7.5 7.486z"/><path d="m508.829 104.416c-1.422-1.308-3.959-2.799-8.037-2.455-7.803.709-15.081-1.466-20.483-6.112-5.358-4.609-8.564-11.404-9.029-19.132-.002-.035-.004-.069-.007-.104-.11-1.493-.369-4.991-3.444-7.393-2.043-1.596-4.614-2.139-7.694-1.607l-157.408 28.465c-4.076.737-6.783 4.639-6.046 8.715.737 4.077 4.647 6.784 8.715 6.046l151.627-27.419c1.777 9.432 6.458 17.739 13.504 23.801 7.273 6.256 16.537 9.676 26.473 9.867v65c-14.116-3.282-24.829-15.685-25.719-30.662-.002-.036-.004-.072-.007-.108-.633-8.565-7.067-9.49-9.804-9.49h-327.383l137.322-24.844c4.076-.738 6.782-4.64 6.045-8.716s-4.642-6.783-8.715-6.045l-219.097 39.638c-3.064.208-8.458 1.698-8.923 9.555-1.016 16.715-14.241 30.232-30.753 31.441-4.818.346-9.966 3.455-9.966 11.138v198.42c0 7.684 5.148 10.792 9.957 11.138 16.521 1.21 29.747 14.727 30.762 31.43.513 8.665 7.012 9.601 9.783 9.601h170.873c4.142 0 7.5-3.358 7.5-7.5s-3.358-7.5-7.5-7.5h-166.167c-3.214-20.755-19.568-37.276-40.208-40.535v-191.686c20.633-3.255 36.988-19.772 40.207-40.535h401.58c3.192 20.763 19.549 37.288 40.213 40.539v113.658 78.02c-20.661 3.246-37.02 19.772-40.213 40.54h-200.801c-4.142 0-7.5 3.358-7.5 7.5s3.358 7.5 7.5 7.5h205.484c2.737 0 9.171-.925 9.804-9.49.003-.036.005-.072.007-.108.992-16.707 14.205-30.22 30.724-31.431 4.832-.348 9.995-3.456 9.995-11.138v-279.814c0-1.304 0-5.272-3.171-8.188z"/><path d="m64.999 406.019c0 4.142 3.358 7.5 7.5 7.5s7.5-3.358 7.5-7.5v-.028c0-4.142-3.358-7.486-7.5-7.486s-7.5 3.372-7.5 7.514z"/><path d="m439.473 398.505c-4.142 0-7.5 3.372-7.5 7.514s3.358 7.5 7.5 7.5 7.5-3.358 7.5-7.5v-.028c0-4.143-3.358-7.486-7.5-7.486z"/><path d="m446.973 180.392c0-4.142-3.358-7.5-7.5-7.5s-7.5 3.358-7.5 7.5v.029c0 4.142 3.358 7.486 7.5 7.486s7.5-3.373 7.5-7.515z"/><path d="m248.486 259.411v67.588c0 4.142 3.358 7.5 7.5 7.5s7.5-3.358 7.5-7.5v-67.588c0-4.142-3.358-7.5-7.5-7.5s-7.5 3.358-7.5 7.5z"/><path d="m215.471 257.206-16.319 49.506-17.117-49.742c-1.348-3.917-5.617-6-9.532-4.651-3.917 1.348-5.999 5.616-4.651 9.532l22.92 66.604c1.27 3.615 4.679 6.029 8.5 6.029h.083c3.858-.036 7.264-2.522 8.479-6.195l21.884-66.388c1.297-3.934-.841-8.174-4.775-9.471-3.933-1.294-8.175.842-9.472 4.776z"/><path d="m293.573 251.911c-4.081 0-7.5 3.419-7.5 7.5v67.588c0 4.142 3.358 7.5 7.5 7.5s7.5-3.358 7.5-7.5v-21.893c3.969-.021 8.573-.042 11.152-.042 14.764 0 26.775-11.916 26.775-26.562 0-14.662-12.011-26.59-26.775-26.59h-18.652zm30.428 26.591c0 6.267-5.393 11.562-11.775 11.562-2.565 0-7.122.021-11.081.042-.021-4.133-.043-8.951-.043-11.604 0-2.256-.007-7.267-.015-11.59h11.139c6.382-.001 11.775 5.307 11.775 11.59z"/><path d="m71.988 235.389h368.392c4.142 0 7.5-3.358 7.5-7.5s-3.358-7.5-7.5-7.5h-368.392c-4.142 0-7.5 3.358-7.5 7.5s3.358 7.5 7.5 7.5z"/><path d="m447.88 358.522c0-4.142-3.358-7.5-7.5-7.5h-368.392c-4.142 0-7.5 3.358-7.5 7.5s3.358 7.5 7.5 7.5h368.392c4.142 0 7.5-3.358 7.5-7.5z"/><path d="m449.063 283.756c-.528-1.643-2.072-4.603-6.483-5.965l-15.121-4.64-9.062-13.065c-2.631-3.799-5.925-4.366-7.654-4.366s-5.023.567-7.651 4.361l-9.065 13.07-15.134 4.644c-4.398 1.358-5.941 4.318-6.469 5.961-.528 1.642-1 4.941 1.75 8.565l9.56 12.736-.317 16.024c-.071 4.59 2.251 6.972 3.643 7.983 1.39 1.011 4.374 2.486 8.773.983l14.899-5.219 14.944 5.227c1.329.461 2.532.642 3.601.642 2.41 0 4.141-.919 5.107-1.619 1.397-1.01 3.73-3.393 3.659-8.018l-.293-15.999 9.542-12.711c2.77-3.653 2.299-6.953 1.771-8.594zm-24.857 14.363c-1.003 1.336-1.531 2.969-1.5 4.64l.191 10.433-9.69-3.389c-1.604-.562-3.352-.561-4.956.001l-9.674 3.389.207-10.423c.033-1.674-.495-3.312-1.5-4.651l-6.27-8.353 9.899-3.038c1.608-.493 3.004-1.513 3.962-2.896l5.871-8.464 5.871 8.464c.958 1.382 2.354 2.402 3.962 2.896l9.898 3.038z"/><path d="m64.687 292.321 9.56 12.736-.318 16.024c-.071 4.604 2.262 6.987 3.659 7.997 1.395 1.008 4.379 2.479 8.726.971l14.929-5.222 14.946 5.228c1.329.461 2.532.642 3.601.642 2.41 0 4.14-.919 5.107-1.618 1.397-1.01 3.73-3.393 3.659-8.019l-.292-16.003 9.513-12.707c2.78-3.665 2.31-6.966 1.782-8.607s-2.067-4.594-6.468-5.954l-15.142-4.639-9.035-13.062c-.001-.001-.001-.002-.002-.003-2.631-3.799-5.934-4.366-7.668-4.366s-5.038.567-7.671 4.369l-9.035 13.062-15.192 4.654c-4.363 1.37-5.892 4.324-6.415 5.963-.525 1.641-.989 4.936 1.756 8.554zm26.733-5.591c1.613-.494 3.012-1.517 3.971-2.904l5.851-8.458 5.85 8.458c.959 1.387 2.359 2.41 3.972 2.904l9.909 3.036-6.26 8.361c-.999 1.335-1.525 2.965-1.495 4.632l.191 10.433-9.69-3.389c-.802-.28-1.639-.42-2.476-.42s-1.674.14-2.476.42l-9.678 3.385.207-10.417c.033-1.675-.495-3.312-1.5-4.651l-6.273-8.357z"/></g></svg>